M48
;Layer_Color=9474304
;FILE_FORMAT=2:5
INCH,LZ
;TYPE=PLATED
T1F00S00C0.02800
T2F00S00C0.04134
T3F00S00C0.04331
T4F00S00C0.06299
T5F00S00C0.06300
;TYPE=NON_PLATED
T6F00S00C0.12598
%
T01
X042Y0134488
Y0159488
Y0179488
Y0194488
Y0204488
X0435Y0189488
X0438642Y0145
X051Y0154488
Y0129488
Y0104488
Y0079488
Y0179488
Y0204488
X035Y0194488
X034
Y0185
X035Y0179488
X033Y0164488
X032
X0305Y0179488
X0304665Y0134488
X0133087Y016
X0135Y018
X0107992Y0145
X0125Y0105
X0046457Y015
X0044301Y0205
Y0215
X0035
Y0205
X0055Y0306713
Y0315
X0063795
Y0306713
X0073543Y0293858
X0127913Y03
X014874Y0311142
X0155Y033
X018Y0285039
X0185Y0259038
X0176809Y0235
X014126Y0265
X005Y0345
X0207596Y0277756
X021Y025
X032378Y0234488
X031Y038
X0404016Y0378898
X0409094Y0370492
X0419016
X0429171Y0370706
X0434016Y0380984
X0454095Y0373071
X051Y0375644
X0510906Y0351929
Y0321929
X051Y0295
Y0254488
Y0229488
X0510079Y0399787
X051Y0425317
Y0465
Y049
Y0515
X0475Y0525
X0465
X0455
Y0505
X0465
X0475
X044Y0495
X043
X0416842Y0485
X042Y053
X043Y052
X0385866Y053
X0370879Y051
X0395Y0405
X0404016Y0386684
X0419016Y0385984
X031Y041
Y044
X033Y0515
Y054
X034Y0605079
X0355
X0325Y0612165
X032Y0633465
X0325Y069
X035
X028Y066
X0265Y0561142
X0375Y0590866
Y0612165
Y064
X0395Y0575
X0405Y0575061
X0415
X0425
X0435Y0575
X0445Y0575061
X0455
X0475Y061
X048Y064
X0495Y0625846
X051Y054
X053Y0600768
X052Y0625846
X053Y0650768
X0445Y0705
X0435
X0425
X0415
X0405
X006Y07
T02
X0385Y0033779
Y0114488
T03
X0405Y069
X0415
X0425
X0435
X0445
T04
X0211968Y0390965
X0135984
X006
Y0677972
X0135984
X0211968
T05
X0375Y0244488
X0385Y0254488
X0375Y0264488
X0395
Y0244488
T06
X0211968Y0425
X0135984
X006
Y0643937
X0135984
X0211968
M30
