G04*
G04 #@! TF.GenerationSoftware,Altium Limited,Altium Designer,22.6.1 (34)*
G04*
G04 Layer_Color=16711935*
%FSLAX25Y25*%
%MOIN*%
G70*
G04*
G04 #@! TF.SameCoordinates,77978B21-DC67-4B61-947D-8792CEF4CC07*
G04*
G04*
G04 #@! TF.FilePolarity,Negative*
G04*
G01*
G75*
%ADD12C,0.01000*%
%ADD25R,0.06706X0.06706*%
%ADD26C,0.06706*%
%ADD27R,0.06706X0.06706*%
%ADD29C,0.05800*%
%ADD37C,0.17800*%
D12*
X19685Y393701D02*
G03*
X500Y374016I250J-19435D01*
G01*
X236221D02*
G03*
X216035Y393701I-19935J-250D01*
G01*
Y1000D02*
G03*
X236221Y19685I750J19435D01*
G01*
X500D02*
G03*
X19685Y1000I18935J250D01*
G01*
X236221Y19685D02*
Y374016D01*
X19685Y1000D02*
X19685D01*
X216035D01*
X20000Y393701D02*
X216035D01*
X500Y19685D02*
Y374016D01*
D25*
X219972Y354331D02*
D03*
X23122D02*
D03*
Y78740D02*
D03*
D26*
X219972Y344331D02*
D03*
Y334331D02*
D03*
Y324331D02*
D03*
Y314331D02*
D03*
X23122Y344331D02*
D03*
Y334331D02*
D03*
Y324331D02*
D03*
Y314331D02*
D03*
X209961Y78728D02*
D03*
X199961D02*
D03*
X189961D02*
D03*
X179961D02*
D03*
X23122Y38740D02*
D03*
Y48740D02*
D03*
Y58740D02*
D03*
Y68740D02*
D03*
D27*
X219961Y78728D02*
D03*
D29*
X65000Y58740D02*
D03*
X45000Y80000D02*
D03*
Y150000D02*
D03*
X55000Y69287D02*
D03*
Y120000D02*
D03*
X121516D02*
D03*
X65000Y85000D02*
D03*
D37*
X216535Y374016D02*
D03*
X219535Y24622D02*
D03*
X23622Y374016D02*
D03*
Y23622D02*
D03*
M02*
