G04*
G04 #@! TF.GenerationSoftware,Altium Limited,Altium Designer,22.6.1 (34)*
G04*
G04 Layer_Physical_Order=3*
G04 Layer_Color=16440176*
%FSLAX25Y25*%
%MOIN*%
G70*
G04*
G04 #@! TF.SameCoordinates,0C23EDBF-805D-421A-8D3F-8ECBED75DDC4*
G04*
G04*
G04 #@! TF.FilePolarity,Positive*
G04*
G01*
G75*
%ADD14C,0.01000*%
%ADD70C,0.06299*%
%ADD71R,0.06299X0.06299*%
%ADD76C,0.09646*%
%ADD83C,0.05000*%
G36*
X560980Y714957D02*
X562924Y714701D01*
X564818Y714193D01*
X566629Y713443D01*
X568328Y712463D01*
X569883Y711269D01*
X571269Y709883D01*
X572463Y708327D01*
X573443Y706630D01*
X574194Y704818D01*
X574701Y702924D01*
X574957Y700980D01*
X574957Y700000D01*
X574957Y20000D01*
X574957Y19020D01*
X574701Y17076D01*
X574193Y15182D01*
X573443Y13371D01*
X572463Y11672D01*
X571269Y10117D01*
X569883Y8731D01*
X568327Y7537D01*
X566629Y6557D01*
X564818Y5807D01*
X562924Y5299D01*
X560980Y5043D01*
X20000D01*
X19020Y5043D01*
X17076Y5299D01*
X15182Y5806D01*
X13371Y6557D01*
X11672Y7537D01*
X10117Y8731D01*
X8731Y10117D01*
X7537Y11672D01*
X6557Y13371D01*
X5806Y15182D01*
X5299Y17076D01*
X5043Y19020D01*
X5043Y20000D01*
Y705000D01*
Y705653D01*
X5213Y706947D01*
X5551Y708207D01*
X6051Y709413D01*
X6703Y710544D01*
X7498Y711579D01*
X8421Y712502D01*
X9456Y713297D01*
X10587Y713949D01*
X11793Y714449D01*
X13053Y714786D01*
X14347Y714957D01*
X560000D01*
X560980Y714957D01*
D02*
G37*
%LPC*%
G36*
X415750Y708423D02*
Y705750D01*
X418423D01*
X418261Y706351D01*
X417801Y707149D01*
X417149Y707801D01*
X416351Y708261D01*
X415750Y708423D01*
D02*
G37*
G36*
X414250D02*
X413649Y708261D01*
X412851Y707801D01*
X412199Y707149D01*
X411738Y706351D01*
X411578Y705750D01*
X414250D01*
Y708423D01*
D02*
G37*
G36*
X418423Y704250D02*
X415750D01*
Y701578D01*
X416351Y701739D01*
X417149Y702199D01*
X417801Y702851D01*
X418261Y703649D01*
X418423Y704250D01*
D02*
G37*
G36*
X414250D02*
X411578D01*
X411738Y703649D01*
X412199Y702851D01*
X412851Y702199D01*
X413649Y701739D01*
X414250Y701578D01*
Y704250D01*
D02*
G37*
G36*
X445487Y708700D02*
X444513D01*
X443572Y708448D01*
X442728Y707961D01*
X442039Y707272D01*
X441552Y706428D01*
X441300Y705487D01*
Y704513D01*
X441552Y703572D01*
X442039Y702728D01*
X442728Y702039D01*
X443572Y701552D01*
X444513Y701300D01*
X445487D01*
X446428Y701552D01*
X447272Y702039D01*
X447961Y702728D01*
X448448Y703572D01*
X448700Y704513D01*
Y705487D01*
X448448Y706428D01*
X447961Y707272D01*
X447272Y707961D01*
X446428Y708448D01*
X445487Y708700D01*
D02*
G37*
G36*
X435487D02*
X434513D01*
X433572Y708448D01*
X432728Y707961D01*
X432039Y707272D01*
X431552Y706428D01*
X431300Y705487D01*
Y704513D01*
X431552Y703572D01*
X432039Y702728D01*
X432728Y702039D01*
X433572Y701552D01*
X434513Y701300D01*
X435487D01*
X436428Y701552D01*
X437272Y702039D01*
X437961Y702728D01*
X438448Y703572D01*
X438700Y704513D01*
Y705487D01*
X438448Y706428D01*
X437961Y707272D01*
X437272Y707961D01*
X436428Y708448D01*
X435487Y708700D01*
D02*
G37*
G36*
X425487D02*
X424513D01*
X423572Y708448D01*
X422728Y707961D01*
X422039Y707272D01*
X421552Y706428D01*
X421300Y705487D01*
Y704513D01*
X421552Y703572D01*
X422039Y702728D01*
X422728Y702039D01*
X423572Y701552D01*
X424513Y701300D01*
X425487D01*
X426428Y701552D01*
X427272Y702039D01*
X427961Y702728D01*
X428448Y703572D01*
X428700Y704513D01*
Y705487D01*
X428448Y706428D01*
X427961Y707272D01*
X427272Y707961D01*
X426428Y708448D01*
X425487Y708700D01*
D02*
G37*
G36*
X405487D02*
X404513D01*
X403572Y708448D01*
X402728Y707961D01*
X402039Y707272D01*
X401552Y706428D01*
X401300Y705487D01*
Y704513D01*
X401552Y703572D01*
X402039Y702728D01*
X402728Y702039D01*
X403572Y701552D01*
X404513Y701300D01*
X405487D01*
X406428Y701552D01*
X407272Y702039D01*
X407961Y702728D01*
X408448Y703572D01*
X408700Y704513D01*
Y705487D01*
X408448Y706428D01*
X407961Y707272D01*
X407272Y707961D01*
X406428Y708448D01*
X405487Y708700D01*
D02*
G37*
G36*
X60750Y703422D02*
Y700750D01*
X63423D01*
X63261Y701351D01*
X62801Y702149D01*
X62149Y702801D01*
X61351Y703262D01*
X60750Y703422D01*
D02*
G37*
G36*
X59250D02*
X58649Y703262D01*
X57851Y702801D01*
X57199Y702149D01*
X56739Y701351D01*
X56577Y700750D01*
X59250D01*
Y703422D01*
D02*
G37*
G36*
X63423Y699250D02*
X60750D01*
Y696578D01*
X61351Y696738D01*
X62149Y697199D01*
X62801Y697851D01*
X63261Y698649D01*
X63423Y699250D01*
D02*
G37*
G36*
X59250D02*
X56577D01*
X56739Y698649D01*
X57199Y697851D01*
X57851Y697199D01*
X58649Y696738D01*
X59250Y696578D01*
Y699250D01*
D02*
G37*
G36*
X325750Y693423D02*
Y690750D01*
X328422D01*
X328261Y691351D01*
X327801Y692149D01*
X327149Y692801D01*
X326351Y693261D01*
X325750Y693423D01*
D02*
G37*
G36*
X324250D02*
X323649Y693261D01*
X322851Y692801D01*
X322199Y692149D01*
X321739Y691351D01*
X321578Y690750D01*
X324250D01*
Y693423D01*
D02*
G37*
G36*
X415546Y694150D02*
X415500D01*
Y690500D01*
X419150D01*
Y690546D01*
X418867Y691602D01*
X418321Y692548D01*
X417548Y693321D01*
X416602Y693867D01*
X415546Y694150D01*
D02*
G37*
G36*
X414500D02*
X414454D01*
X413398Y693867D01*
X412452Y693321D01*
X411680Y692548D01*
X411133Y691602D01*
X410850Y690546D01*
Y690500D01*
X414500D01*
Y694150D01*
D02*
G37*
G36*
X328422Y689250D02*
X325750D01*
Y686578D01*
X326351Y686738D01*
X327149Y687199D01*
X327801Y687851D01*
X328261Y688649D01*
X328422Y689250D01*
D02*
G37*
G36*
X324250D02*
X321578D01*
X321739Y688649D01*
X322199Y687851D01*
X322851Y687199D01*
X323649Y686738D01*
X324250Y686578D01*
Y689250D01*
D02*
G37*
G36*
X350487Y693700D02*
X349513D01*
X348572Y693448D01*
X347728Y692961D01*
X347039Y692272D01*
X346552Y691428D01*
X346300Y690487D01*
Y689513D01*
X346552Y688572D01*
X347039Y687728D01*
X347728Y687039D01*
X348572Y686552D01*
X349513Y686300D01*
X350487D01*
X351428Y686552D01*
X352272Y687039D01*
X352961Y687728D01*
X353448Y688572D01*
X353700Y689513D01*
Y690487D01*
X353448Y691428D01*
X352961Y692272D01*
X352272Y692961D01*
X351428Y693448D01*
X350487Y693700D01*
D02*
G37*
G36*
X419150Y689500D02*
X415500D01*
Y685850D01*
X415546D01*
X416602Y686133D01*
X417548Y686680D01*
X418321Y687452D01*
X418867Y688398D01*
X419150Y689454D01*
Y689500D01*
D02*
G37*
G36*
X414500D02*
X410850D01*
Y689454D01*
X411133Y688398D01*
X411680Y687452D01*
X412452Y686680D01*
X413398Y686133D01*
X414454Y685850D01*
X414500D01*
Y689500D01*
D02*
G37*
G36*
X445573Y694350D02*
X444427D01*
X443321Y694053D01*
X442329Y693480D01*
X441519Y692671D01*
X440947Y691679D01*
X440650Y690573D01*
Y689427D01*
X440947Y688321D01*
X441519Y687329D01*
X442329Y686519D01*
X443321Y685947D01*
X444427Y685650D01*
X445573D01*
X446679Y685947D01*
X447671Y686519D01*
X448481Y687329D01*
X449053Y688321D01*
X449350Y689427D01*
Y690573D01*
X449053Y691679D01*
X448481Y692671D01*
X447671Y693480D01*
X446679Y694053D01*
X445573Y694350D01*
D02*
G37*
G36*
X435573D02*
X434427D01*
X433321Y694053D01*
X432329Y693480D01*
X431520Y692671D01*
X430947Y691679D01*
X430650Y690573D01*
Y689427D01*
X430947Y688321D01*
X431520Y687329D01*
X432329Y686519D01*
X433321Y685947D01*
X434427Y685650D01*
X435573D01*
X436679Y685947D01*
X437671Y686519D01*
X438481Y687329D01*
X439053Y688321D01*
X439350Y689427D01*
Y690573D01*
X439053Y691679D01*
X438481Y692671D01*
X437671Y693480D01*
X436679Y694053D01*
X435573Y694350D01*
D02*
G37*
G36*
X425573D02*
X424427D01*
X423321Y694053D01*
X422329Y693480D01*
X421520Y692671D01*
X420947Y691679D01*
X420650Y690573D01*
Y689427D01*
X420947Y688321D01*
X421520Y687329D01*
X422329Y686519D01*
X423321Y685947D01*
X424427Y685650D01*
X425573D01*
X426679Y685947D01*
X427671Y686519D01*
X428480Y687329D01*
X429053Y688321D01*
X429350Y689427D01*
Y690573D01*
X429053Y691679D01*
X428480Y692671D01*
X427671Y693480D01*
X426679Y694053D01*
X425573Y694350D01*
D02*
G37*
G36*
X409350D02*
X400650D01*
Y685650D01*
X409350D01*
Y694350D01*
D02*
G37*
G36*
X60574Y683795D02*
X60500D01*
Y678472D01*
X65823D01*
Y678546D01*
X65599Y679671D01*
X65160Y680731D01*
X64523Y681684D01*
X63712Y682495D01*
X62758Y683133D01*
X61699Y683571D01*
X60574Y683795D01*
D02*
G37*
G36*
X59500D02*
X59426D01*
X58302Y683571D01*
X57242Y683133D01*
X56288Y682495D01*
X55477Y681684D01*
X54840Y680731D01*
X54401Y679671D01*
X54177Y678546D01*
Y678472D01*
X59500D01*
Y683795D01*
D02*
G37*
G36*
X65823Y677472D02*
X60500D01*
Y672150D01*
X60574D01*
X61699Y672373D01*
X62758Y672812D01*
X63712Y673450D01*
X64523Y674261D01*
X65160Y675214D01*
X65599Y676274D01*
X65823Y677399D01*
Y677472D01*
D02*
G37*
G36*
X59500D02*
X54177D01*
Y677399D01*
X54401Y676274D01*
X54840Y675214D01*
X55477Y674261D01*
X56288Y673450D01*
X57242Y672812D01*
X58302Y672373D01*
X59426Y672150D01*
X59500D01*
Y677472D01*
D02*
G37*
G36*
X212562Y683995D02*
X211375D01*
X210212Y683764D01*
X209116Y683310D01*
X208129Y682651D01*
X207290Y681812D01*
X206631Y680825D01*
X206177Y679729D01*
X205946Y678566D01*
Y677379D01*
X206177Y676216D01*
X206631Y675120D01*
X207290Y674133D01*
X208129Y673294D01*
X209116Y672635D01*
X210212Y672181D01*
X211375Y671950D01*
X212562D01*
X213725Y672181D01*
X214821Y672635D01*
X215808Y673294D01*
X216647Y674133D01*
X217306Y675120D01*
X217760Y676216D01*
X217991Y677379D01*
Y678566D01*
X217760Y679729D01*
X217306Y680825D01*
X216647Y681812D01*
X215808Y682651D01*
X214821Y683310D01*
X213725Y683764D01*
X212562Y683995D01*
D02*
G37*
G36*
X136577D02*
X135391D01*
X134228Y683764D01*
X133131Y683310D01*
X132145Y682651D01*
X131306Y681812D01*
X130647Y680825D01*
X130193Y679729D01*
X129961Y678566D01*
Y677379D01*
X130193Y676216D01*
X130647Y675120D01*
X131306Y674133D01*
X132145Y673294D01*
X133131Y672635D01*
X134228Y672181D01*
X135391Y671950D01*
X136577D01*
X137741Y672181D01*
X138837Y672635D01*
X139824Y673294D01*
X140663Y674133D01*
X141322Y675120D01*
X141776Y676216D01*
X142007Y677379D01*
Y678566D01*
X141776Y679729D01*
X141322Y680825D01*
X140663Y681812D01*
X139824Y682651D01*
X138837Y683310D01*
X137741Y683764D01*
X136577Y683995D01*
D02*
G37*
G36*
X280487Y663700D02*
X279513D01*
X278572Y663448D01*
X277728Y662961D01*
X277039Y662272D01*
X276552Y661428D01*
X276300Y660487D01*
Y659513D01*
X276552Y658572D01*
X277039Y657728D01*
X277728Y657039D01*
X278572Y656552D01*
X279513Y656300D01*
X280487D01*
X281428Y656552D01*
X282272Y657039D01*
X282961Y657728D01*
X283448Y658572D01*
X283700Y659513D01*
Y660487D01*
X283448Y661428D01*
X282961Y662272D01*
X282272Y662961D01*
X281428Y663448D01*
X280487Y663700D01*
D02*
G37*
G36*
X530750Y654190D02*
Y651518D01*
X533423D01*
X533261Y652118D01*
X532801Y652917D01*
X532149Y653568D01*
X531351Y654029D01*
X530750Y654190D01*
D02*
G37*
G36*
X529250D02*
X528649Y654029D01*
X527851Y653568D01*
X527199Y652917D01*
X526739Y652118D01*
X526578Y651518D01*
X529250D01*
Y654190D01*
D02*
G37*
G36*
X533423Y650018D02*
X530750D01*
Y647345D01*
X531351Y647506D01*
X532149Y647967D01*
X532801Y648619D01*
X533261Y649417D01*
X533423Y650018D01*
D02*
G37*
G36*
X529250D02*
X526578D01*
X526739Y649417D01*
X527199Y648619D01*
X527851Y647967D01*
X528649Y647506D01*
X529250Y647345D01*
Y650018D01*
D02*
G37*
G36*
X480750Y643423D02*
Y640750D01*
X483423D01*
X483261Y641351D01*
X482801Y642149D01*
X482149Y642801D01*
X481351Y643261D01*
X480750Y643423D01*
D02*
G37*
G36*
X479250D02*
X478649Y643261D01*
X477851Y642801D01*
X477199Y642149D01*
X476739Y641351D01*
X476578Y640750D01*
X479250D01*
Y643423D01*
D02*
G37*
G36*
X375750D02*
Y640750D01*
X378422D01*
X378261Y641351D01*
X377801Y642149D01*
X377149Y642801D01*
X376351Y643261D01*
X375750Y643423D01*
D02*
G37*
G36*
X374250D02*
X373649Y643261D01*
X372851Y642801D01*
X372199Y642149D01*
X371739Y641351D01*
X371578Y640750D01*
X374250D01*
Y643423D01*
D02*
G37*
G36*
X468307Y673389D02*
X381693D01*
X381225Y673296D01*
X380828Y673031D01*
X380562Y672634D01*
X380469Y672165D01*
Y638228D01*
X380562Y637760D01*
X380828Y637363D01*
X381225Y637098D01*
X381693Y637005D01*
X468307D01*
X468775Y637098D01*
X469172Y637363D01*
X469438Y637760D01*
X469531Y638228D01*
Y672165D01*
X469438Y672634D01*
X469172Y673031D01*
X468775Y673296D01*
X468307Y673389D01*
D02*
G37*
G36*
X483423Y639250D02*
X480750D01*
Y636578D01*
X481351Y636738D01*
X482149Y637199D01*
X482801Y637851D01*
X483261Y638649D01*
X483423Y639250D01*
D02*
G37*
G36*
X479250D02*
X476578D01*
X476739Y638649D01*
X477199Y637851D01*
X477851Y637199D01*
X478649Y636738D01*
X479250Y636578D01*
Y639250D01*
D02*
G37*
G36*
X378422D02*
X375750D01*
Y636578D01*
X376351Y636738D01*
X377149Y637199D01*
X377801Y637851D01*
X378261Y638649D01*
X378422Y639250D01*
D02*
G37*
G36*
X374250D02*
X371578D01*
X371739Y638649D01*
X372199Y637851D01*
X372851Y637199D01*
X373649Y636738D01*
X374250Y636578D01*
Y639250D01*
D02*
G37*
G36*
X212707Y651436D02*
X211230D01*
X209781Y651148D01*
X208416Y650583D01*
X207188Y649762D01*
X206143Y648717D01*
X205323Y647489D01*
X204757Y646124D01*
X204469Y644676D01*
Y643198D01*
X204757Y641750D01*
X205323Y640385D01*
X206143Y639156D01*
X207188Y638112D01*
X208416Y637291D01*
X209781Y636726D01*
X211230Y636438D01*
X212707D01*
X214156Y636726D01*
X215521Y637291D01*
X216749Y638112D01*
X217793Y639156D01*
X218614Y640385D01*
X219180Y641750D01*
X219468Y643198D01*
Y644676D01*
X219180Y646124D01*
X218614Y647489D01*
X217793Y648717D01*
X216749Y649762D01*
X215521Y650583D01*
X214156Y651148D01*
X212707Y651436D01*
D02*
G37*
G36*
X136723D02*
X135246D01*
X133797Y651148D01*
X132432Y650583D01*
X131204Y649762D01*
X130159Y648717D01*
X129339Y647489D01*
X128773Y646124D01*
X128485Y644676D01*
Y643198D01*
X128773Y641750D01*
X129339Y640385D01*
X130159Y639156D01*
X131204Y638112D01*
X132432Y637291D01*
X133797Y636726D01*
X135246Y636438D01*
X136723D01*
X138172Y636726D01*
X139536Y637291D01*
X140765Y638112D01*
X141809Y639156D01*
X142630Y640385D01*
X143195Y641750D01*
X143483Y643198D01*
Y644676D01*
X143195Y646124D01*
X142630Y647489D01*
X141809Y648717D01*
X140765Y649762D01*
X139536Y650583D01*
X138172Y651148D01*
X136723Y651436D01*
D02*
G37*
G36*
X60739D02*
X59261D01*
X57813Y651148D01*
X56448Y650583D01*
X55220Y649762D01*
X54175Y648717D01*
X53354Y647489D01*
X52789Y646124D01*
X52501Y644676D01*
Y643198D01*
X52789Y641750D01*
X53354Y640385D01*
X54175Y639156D01*
X55220Y638112D01*
X56448Y637291D01*
X57813Y636726D01*
X59261Y636438D01*
X60739D01*
X62187Y636726D01*
X63552Y637291D01*
X64780Y638112D01*
X65825Y639156D01*
X66646Y640385D01*
X67211Y641750D01*
X67499Y643198D01*
Y644676D01*
X67211Y646124D01*
X66646Y647489D01*
X65825Y648717D01*
X64780Y649762D01*
X63552Y650583D01*
X62187Y651148D01*
X60739Y651436D01*
D02*
G37*
G36*
X320487Y637165D02*
X319513D01*
X318572Y636912D01*
X317728Y636425D01*
X317039Y635736D01*
X316552Y634893D01*
X316300Y633952D01*
Y632977D01*
X316552Y632036D01*
X317039Y631193D01*
X317728Y630504D01*
X318572Y630017D01*
X319513Y629765D01*
X320487D01*
X321428Y630017D01*
X322272Y630504D01*
X322961Y631193D01*
X323448Y632036D01*
X323700Y632977D01*
Y633952D01*
X323448Y634893D01*
X322961Y635736D01*
X322272Y636425D01*
X321428Y636912D01*
X320487Y637165D01*
D02*
G37*
G36*
X520750Y629269D02*
Y626596D01*
X523422D01*
X523261Y627197D01*
X522801Y627995D01*
X522149Y628647D01*
X521351Y629108D01*
X520750Y629269D01*
D02*
G37*
G36*
X519250D02*
X518649Y629108D01*
X517851Y628647D01*
X517199Y627995D01*
X516739Y627197D01*
X516577Y626596D01*
X519250D01*
Y629269D01*
D02*
G37*
G36*
X523422Y625096D02*
X520750D01*
Y622424D01*
X521351Y622585D01*
X522149Y623046D01*
X522801Y623697D01*
X523261Y624495D01*
X523422Y625096D01*
D02*
G37*
G36*
X519250D02*
X516577D01*
X516739Y624495D01*
X517199Y623697D01*
X517851Y623046D01*
X518649Y622585D01*
X519250Y622424D01*
Y625096D01*
D02*
G37*
G36*
X495487Y629546D02*
X494513D01*
X493572Y629294D01*
X492728Y628807D01*
X492039Y628118D01*
X491552Y627275D01*
X491300Y626333D01*
Y625359D01*
X491552Y624418D01*
X492039Y623574D01*
X492728Y622886D01*
X493572Y622399D01*
X494513Y622146D01*
X495487D01*
X496428Y622399D01*
X497272Y622886D01*
X497961Y623574D01*
X498448Y624418D01*
X498700Y625359D01*
Y626333D01*
X498448Y627275D01*
X497961Y628118D01*
X497272Y628807D01*
X496428Y629294D01*
X495487Y629546D01*
D02*
G37*
G36*
X375487Y615865D02*
X374513D01*
X373572Y615613D01*
X372728Y615126D01*
X372039Y614437D01*
X371552Y613593D01*
X371300Y612652D01*
Y611678D01*
X371552Y610737D01*
X372039Y609894D01*
X372728Y609205D01*
X373572Y608717D01*
X374513Y608465D01*
X375487D01*
X376428Y608717D01*
X377272Y609205D01*
X377961Y609894D01*
X378448Y610737D01*
X378700Y611678D01*
Y612652D01*
X378448Y613593D01*
X377961Y614437D01*
X377272Y615126D01*
X376428Y615613D01*
X375487Y615865D01*
D02*
G37*
G36*
X325487D02*
X324513D01*
X323572Y615613D01*
X322728Y615126D01*
X322039Y614437D01*
X321552Y613593D01*
X321300Y612652D01*
Y611678D01*
X321552Y610737D01*
X322039Y609894D01*
X322728Y609205D01*
X323572Y608717D01*
X324513Y608465D01*
X325487D01*
X326428Y608717D01*
X327272Y609205D01*
X327961Y609894D01*
X328448Y610737D01*
X328700Y611678D01*
Y612652D01*
X328448Y613593D01*
X327961Y614437D01*
X327272Y615126D01*
X326428Y615613D01*
X325487Y615865D01*
D02*
G37*
G36*
X475487Y613700D02*
X474513D01*
X473572Y613448D01*
X472728Y612961D01*
X472039Y612272D01*
X471552Y611428D01*
X471300Y610487D01*
Y609513D01*
X471552Y608572D01*
X472039Y607728D01*
X472728Y607039D01*
X473572Y606552D01*
X474513Y606300D01*
X475487D01*
X476428Y606552D01*
X477272Y607039D01*
X477961Y607728D01*
X478448Y608572D01*
X478700Y609513D01*
Y610487D01*
X478448Y611428D01*
X477961Y612272D01*
X477272Y612961D01*
X476428Y613448D01*
X475487Y613700D01*
D02*
G37*
G36*
X530750Y604190D02*
Y601518D01*
X533423D01*
X533261Y602118D01*
X532801Y602917D01*
X532149Y603568D01*
X531351Y604029D01*
X530750Y604190D01*
D02*
G37*
G36*
X529250D02*
X528649Y604029D01*
X527851Y603568D01*
X527199Y602917D01*
X526739Y602118D01*
X526578Y601518D01*
X529250D01*
Y604190D01*
D02*
G37*
G36*
X355487Y608779D02*
X354513D01*
X353572Y608527D01*
X352728Y608040D01*
X352039Y607351D01*
X351552Y606507D01*
X351300Y605566D01*
Y604592D01*
X351552Y603651D01*
X352039Y602807D01*
X352728Y602118D01*
X353572Y601631D01*
X354513Y601379D01*
X355487D01*
X356428Y601631D01*
X357272Y602118D01*
X357961Y602807D01*
X358448Y603651D01*
X358700Y604592D01*
Y605566D01*
X358448Y606507D01*
X357961Y607351D01*
X357272Y608040D01*
X356428Y608527D01*
X355487Y608779D01*
D02*
G37*
G36*
X340487D02*
X339513D01*
X338572Y608527D01*
X337728Y608040D01*
X337039Y607351D01*
X336552Y606507D01*
X336300Y605566D01*
Y604592D01*
X336552Y603651D01*
X337039Y602807D01*
X337728Y602118D01*
X338572Y601631D01*
X339513Y601379D01*
X340487D01*
X341428Y601631D01*
X342272Y602118D01*
X342961Y602807D01*
X343448Y603651D01*
X343700Y604592D01*
Y605566D01*
X343448Y606507D01*
X342961Y607351D01*
X342272Y608040D01*
X341428Y608527D01*
X340487Y608779D01*
D02*
G37*
G36*
X533423Y600018D02*
X530750D01*
Y597345D01*
X531351Y597506D01*
X532149Y597967D01*
X532801Y598619D01*
X533261Y599417D01*
X533423Y600018D01*
D02*
G37*
G36*
X529250D02*
X526578D01*
X526739Y599417D01*
X527199Y598619D01*
X527851Y597967D01*
X528649Y597506D01*
X529250Y597345D01*
Y600018D01*
D02*
G37*
G36*
X375487Y594566D02*
X374513D01*
X373572Y594314D01*
X372728Y593827D01*
X372039Y593138D01*
X371552Y592294D01*
X371300Y591353D01*
Y590379D01*
X371552Y589438D01*
X372039Y588594D01*
X372728Y587905D01*
X373572Y587418D01*
X374513Y587166D01*
X375487D01*
X376428Y587418D01*
X377272Y587905D01*
X377961Y588594D01*
X378448Y589438D01*
X378700Y590379D01*
Y591353D01*
X378448Y592294D01*
X377961Y593138D01*
X377272Y593827D01*
X376428Y594314D01*
X375487Y594566D01*
D02*
G37*
G36*
X455750Y578484D02*
Y575811D01*
X458423D01*
X458261Y576412D01*
X457801Y577211D01*
X457149Y577862D01*
X456351Y578323D01*
X455750Y578484D01*
D02*
G37*
G36*
X454250D02*
X453649Y578323D01*
X452851Y577862D01*
X452199Y577211D01*
X451739Y576412D01*
X451578Y575811D01*
X454250D01*
Y578484D01*
D02*
G37*
G36*
X458423Y574311D02*
X455750D01*
Y571639D01*
X456351Y571800D01*
X457149Y572261D01*
X457801Y572912D01*
X458261Y573710D01*
X458423Y574311D01*
D02*
G37*
G36*
X454250D02*
X451578D01*
X451739Y573710D01*
X452199Y572912D01*
X452851Y572261D01*
X453649Y571800D01*
X454250Y571639D01*
Y574311D01*
D02*
G37*
G36*
X445487Y578761D02*
X444513D01*
X443572Y578509D01*
X442728Y578022D01*
X442039Y577333D01*
X441552Y576490D01*
X441300Y575549D01*
Y574574D01*
X441552Y573633D01*
X442039Y572789D01*
X442728Y572101D01*
X443572Y571614D01*
X444513Y571361D01*
X445487D01*
X446428Y571614D01*
X447272Y572101D01*
X447961Y572789D01*
X448448Y573633D01*
X448700Y574574D01*
Y575549D01*
X448448Y576490D01*
X447961Y577333D01*
X447272Y578022D01*
X446428Y578509D01*
X445487Y578761D01*
D02*
G37*
G36*
X425487D02*
X424513D01*
X423572Y578509D01*
X422728Y578022D01*
X422039Y577333D01*
X421552Y576490D01*
X421300Y575549D01*
Y574574D01*
X421552Y573633D01*
X422039Y572789D01*
X422728Y572101D01*
X423572Y571614D01*
X424513Y571361D01*
X425487D01*
X426428Y571614D01*
X427272Y572101D01*
X427961Y572789D01*
X428448Y573633D01*
X428700Y574574D01*
Y575549D01*
X428448Y576490D01*
X427961Y577333D01*
X427272Y578022D01*
X426428Y578509D01*
X425487Y578761D01*
D02*
G37*
G36*
X415487D02*
X414513D01*
X413572Y578509D01*
X412728Y578022D01*
X412039Y577333D01*
X411552Y576490D01*
X411300Y575549D01*
Y574574D01*
X411552Y573633D01*
X412039Y572789D01*
X412728Y572101D01*
X413572Y571614D01*
X414513Y571361D01*
X415487D01*
X416428Y571614D01*
X417272Y572101D01*
X417961Y572789D01*
X418448Y573633D01*
X418700Y574574D01*
Y575549D01*
X418448Y576490D01*
X417961Y577333D01*
X417272Y578022D01*
X416428Y578509D01*
X415487Y578761D01*
D02*
G37*
G36*
X405487D02*
X404513D01*
X403572Y578509D01*
X402728Y578022D01*
X402039Y577333D01*
X401552Y576490D01*
X401300Y575549D01*
Y574574D01*
X401552Y573633D01*
X402039Y572789D01*
X402728Y572101D01*
X403572Y571614D01*
X404513Y571361D01*
X405487D01*
X406428Y571614D01*
X407272Y572101D01*
X407961Y572789D01*
X408448Y573633D01*
X408700Y574574D01*
Y575549D01*
X408448Y576490D01*
X407961Y577333D01*
X407272Y578022D01*
X406428Y578509D01*
X405487Y578761D01*
D02*
G37*
G36*
X435487Y578700D02*
X434513D01*
X433572Y578448D01*
X432728Y577961D01*
X432039Y577272D01*
X431552Y576428D01*
X431300Y575487D01*
Y574513D01*
X431552Y573572D01*
X432039Y572728D01*
X432728Y572039D01*
X433572Y571552D01*
X434513Y571300D01*
X435487D01*
X436428Y571552D01*
X437272Y572039D01*
X437961Y572728D01*
X438448Y573572D01*
X438700Y574513D01*
Y575487D01*
X438448Y576428D01*
X437961Y577272D01*
X437272Y577961D01*
X436428Y578448D01*
X435487Y578700D01*
D02*
G37*
G36*
X395487D02*
X394513D01*
X393572Y578448D01*
X392728Y577961D01*
X392039Y577272D01*
X391552Y576428D01*
X391300Y575487D01*
Y574513D01*
X391552Y573572D01*
X392039Y572728D01*
X392728Y572039D01*
X393572Y571552D01*
X394513Y571300D01*
X395487D01*
X396428Y571552D01*
X397272Y572039D01*
X397961Y572728D01*
X398448Y573572D01*
X398700Y574513D01*
Y575487D01*
X398448Y576428D01*
X397961Y577272D01*
X397272Y577961D01*
X396428Y578448D01*
X395487Y578700D01*
D02*
G37*
G36*
X265750Y564564D02*
Y561892D01*
X268423D01*
X268262Y562493D01*
X267801Y563291D01*
X267149Y563942D01*
X266351Y564403D01*
X265750Y564564D01*
D02*
G37*
G36*
X264250D02*
X263649Y564403D01*
X262851Y563942D01*
X262199Y563291D01*
X261738Y562493D01*
X261578Y561892D01*
X264250D01*
Y564564D01*
D02*
G37*
G36*
X268423Y560392D02*
X265750D01*
Y557719D01*
X266351Y557880D01*
X267149Y558341D01*
X267801Y558993D01*
X268262Y559791D01*
X268423Y560392D01*
D02*
G37*
G36*
X264250D02*
X261578D01*
X261738Y559791D01*
X262199Y558993D01*
X262851Y558341D01*
X263649Y557880D01*
X264250Y557719D01*
Y560392D01*
D02*
G37*
G36*
X510487Y543700D02*
X509513D01*
X508572Y543448D01*
X507728Y542961D01*
X507039Y542272D01*
X506552Y541428D01*
X506300Y540487D01*
Y539513D01*
X506552Y538572D01*
X507039Y537728D01*
X507728Y537039D01*
X508572Y536552D01*
X509513Y536300D01*
X510487D01*
X511428Y536552D01*
X512272Y537039D01*
X512961Y537728D01*
X513448Y538572D01*
X513700Y539513D01*
Y540487D01*
X513448Y541428D01*
X512961Y542272D01*
X512272Y542961D01*
X511428Y543448D01*
X510487Y543700D01*
D02*
G37*
G36*
X330487D02*
X329513D01*
X328572Y543448D01*
X327728Y542961D01*
X327039Y542272D01*
X326552Y541428D01*
X326300Y540487D01*
Y539513D01*
X326552Y538572D01*
X327039Y537728D01*
X327728Y537039D01*
X328572Y536552D01*
X329513Y536300D01*
X330487D01*
X331428Y536552D01*
X332272Y537039D01*
X332961Y537728D01*
X333448Y538572D01*
X333700Y539513D01*
Y540487D01*
X333448Y541428D01*
X332961Y542272D01*
X332272Y542961D01*
X331428Y543448D01*
X330487Y543700D01*
D02*
G37*
G36*
X420487Y533700D02*
X419513D01*
X418572Y533448D01*
X417728Y532961D01*
X417039Y532272D01*
X416552Y531428D01*
X416300Y530487D01*
Y529513D01*
X416552Y528572D01*
X417039Y527728D01*
X417728Y527039D01*
X418572Y526552D01*
X419513Y526300D01*
X420487D01*
X421428Y526552D01*
X422272Y527039D01*
X422961Y527728D01*
X423448Y528572D01*
X423700Y529513D01*
Y530487D01*
X423448Y531428D01*
X422961Y532272D01*
X422272Y532961D01*
X421428Y533448D01*
X420487Y533700D01*
D02*
G37*
G36*
X386353D02*
X385379D01*
X384438Y533448D01*
X383594Y532961D01*
X382905Y532272D01*
X382418Y531428D01*
X382166Y530487D01*
Y529513D01*
X382418Y528572D01*
X382905Y527728D01*
X383594Y527039D01*
X384438Y526552D01*
X385379Y526300D01*
X386353D01*
X387294Y526552D01*
X388138Y527039D01*
X388827Y527728D01*
X389314Y528572D01*
X389566Y529513D01*
Y530487D01*
X389314Y531428D01*
X388827Y532272D01*
X388138Y532961D01*
X387294Y533448D01*
X386353Y533700D01*
D02*
G37*
G36*
X475487Y528700D02*
X474513D01*
X473572Y528448D01*
X472728Y527961D01*
X472039Y527272D01*
X471552Y526428D01*
X471300Y525487D01*
Y524513D01*
X471552Y523572D01*
X472039Y522728D01*
X472728Y522039D01*
X473572Y521552D01*
X474513Y521300D01*
X475487D01*
X476428Y521552D01*
X477272Y522039D01*
X477961Y522728D01*
X478448Y523572D01*
X478700Y524513D01*
Y525487D01*
X478448Y526428D01*
X477961Y527272D01*
X477272Y527961D01*
X476428Y528448D01*
X475487Y528700D01*
D02*
G37*
G36*
X465487D02*
X464513D01*
X463572Y528448D01*
X462728Y527961D01*
X462039Y527272D01*
X461552Y526428D01*
X461300Y525487D01*
Y524513D01*
X461552Y523572D01*
X462039Y522728D01*
X462728Y522039D01*
X463572Y521552D01*
X464513Y521300D01*
X465487D01*
X466428Y521552D01*
X467272Y522039D01*
X467961Y522728D01*
X468448Y523572D01*
X468700Y524513D01*
Y525487D01*
X468448Y526428D01*
X467961Y527272D01*
X467272Y527961D01*
X466428Y528448D01*
X465487Y528700D01*
D02*
G37*
G36*
X455487D02*
X454513D01*
X453572Y528448D01*
X452728Y527961D01*
X452039Y527272D01*
X451552Y526428D01*
X451300Y525487D01*
Y524513D01*
X451552Y523572D01*
X452039Y522728D01*
X452728Y522039D01*
X453572Y521552D01*
X454513Y521300D01*
X455487D01*
X456428Y521552D01*
X457272Y522039D01*
X457961Y522728D01*
X458448Y523572D01*
X458700Y524513D01*
Y525487D01*
X458448Y526428D01*
X457961Y527272D01*
X457272Y527961D01*
X456428Y528448D01*
X455487Y528700D01*
D02*
G37*
G36*
X430487Y523700D02*
X429513D01*
X428572Y523448D01*
X427728Y522961D01*
X427039Y522272D01*
X426552Y521428D01*
X426300Y520487D01*
Y519513D01*
X426552Y518572D01*
X427039Y517728D01*
X427728Y517039D01*
X428572Y516552D01*
X429513Y516300D01*
X430487D01*
X431428Y516552D01*
X432272Y517039D01*
X432961Y517728D01*
X433448Y518572D01*
X433700Y519513D01*
Y520487D01*
X433448Y521428D01*
X432961Y522272D01*
X432272Y522961D01*
X431428Y523448D01*
X430487Y523700D01*
D02*
G37*
G36*
X330750Y518423D02*
Y515750D01*
X333422D01*
X333261Y516351D01*
X332801Y517149D01*
X332149Y517801D01*
X331351Y518261D01*
X330750Y518423D01*
D02*
G37*
G36*
X329250D02*
X328649Y518261D01*
X327851Y517801D01*
X327199Y517149D01*
X326739Y516351D01*
X326577Y515750D01*
X329250D01*
Y518423D01*
D02*
G37*
G36*
X333422Y514250D02*
X330750D01*
Y511578D01*
X331351Y511738D01*
X332149Y512199D01*
X332801Y512851D01*
X333261Y513649D01*
X333422Y514250D01*
D02*
G37*
G36*
X329250D02*
X326577D01*
X326739Y513649D01*
X327199Y512851D01*
X327851Y512199D01*
X328649Y511738D01*
X329250Y511578D01*
Y514250D01*
D02*
G37*
G36*
X510487Y518700D02*
X509513D01*
X508572Y518448D01*
X507728Y517961D01*
X507039Y517272D01*
X506552Y516428D01*
X506300Y515487D01*
Y514513D01*
X506552Y513572D01*
X507039Y512728D01*
X507728Y512039D01*
X508572Y511552D01*
X509513Y511300D01*
X510487D01*
X511428Y511552D01*
X512272Y512039D01*
X512961Y512728D01*
X513448Y513572D01*
X513700Y514513D01*
Y515487D01*
X513448Y516428D01*
X512961Y517272D01*
X512272Y517961D01*
X511428Y518448D01*
X510487Y518700D01*
D02*
G37*
G36*
X371366Y513700D02*
X370392D01*
X369450Y513448D01*
X368607Y512961D01*
X367918Y512272D01*
X367431Y511428D01*
X367179Y510487D01*
Y509513D01*
X367431Y508572D01*
X367918Y507728D01*
X368607Y507039D01*
X369450Y506552D01*
X370392Y506300D01*
X371366D01*
X372307Y506552D01*
X373150Y507039D01*
X373839Y507728D01*
X374326Y508572D01*
X374579Y509513D01*
Y510487D01*
X374326Y511428D01*
X373839Y512272D01*
X373150Y512961D01*
X372307Y513448D01*
X371366Y513700D01*
D02*
G37*
G36*
X475487Y508700D02*
X474513D01*
X473572Y508448D01*
X472728Y507961D01*
X472039Y507272D01*
X471552Y506428D01*
X471300Y505487D01*
Y504513D01*
X471552Y503572D01*
X472039Y502728D01*
X472728Y502039D01*
X473572Y501552D01*
X474513Y501300D01*
X475487D01*
X476428Y501552D01*
X477272Y502039D01*
X477961Y502728D01*
X478448Y503572D01*
X478700Y504513D01*
Y505487D01*
X478448Y506428D01*
X477961Y507272D01*
X477272Y507961D01*
X476428Y508448D01*
X475487Y508700D01*
D02*
G37*
G36*
X465487D02*
X464513D01*
X463572Y508448D01*
X462728Y507961D01*
X462039Y507272D01*
X461552Y506428D01*
X461300Y505487D01*
Y504513D01*
X461552Y503572D01*
X462039Y502728D01*
X462728Y502039D01*
X463572Y501552D01*
X464513Y501300D01*
X465487D01*
X466428Y501552D01*
X467272Y502039D01*
X467961Y502728D01*
X468448Y503572D01*
X468700Y504513D01*
Y505487D01*
X468448Y506428D01*
X467961Y507272D01*
X467272Y507961D01*
X466428Y508448D01*
X465487Y508700D01*
D02*
G37*
G36*
X455487D02*
X454513D01*
X453572Y508448D01*
X452728Y507961D01*
X452039Y507272D01*
X451552Y506428D01*
X451300Y505487D01*
Y504513D01*
X451552Y503572D01*
X452039Y502728D01*
X452728Y502039D01*
X453572Y501552D01*
X454513Y501300D01*
X455487D01*
X456428Y501552D01*
X457272Y502039D01*
X457961Y502728D01*
X458448Y503572D01*
X458700Y504513D01*
Y505487D01*
X458448Y506428D01*
X457961Y507272D01*
X457272Y507961D01*
X456428Y508448D01*
X455487Y508700D01*
D02*
G37*
G36*
X440750Y498422D02*
Y495750D01*
X443423D01*
X443261Y496351D01*
X442801Y497149D01*
X442149Y497801D01*
X441351Y498261D01*
X440750Y498422D01*
D02*
G37*
G36*
X439250D02*
X438649Y498261D01*
X437851Y497801D01*
X437199Y497149D01*
X436738Y496351D01*
X436578Y495750D01*
X439250D01*
Y498422D01*
D02*
G37*
G36*
X443423Y494250D02*
X440750D01*
Y491577D01*
X441351Y491739D01*
X442149Y492199D01*
X442801Y492851D01*
X443261Y493649D01*
X443423Y494250D01*
D02*
G37*
G36*
X439250D02*
X436578D01*
X436738Y493649D01*
X437199Y492851D01*
X437851Y492199D01*
X438649Y491739D01*
X439250Y491577D01*
Y494250D01*
D02*
G37*
G36*
X430487Y498700D02*
X429513D01*
X428572Y498448D01*
X427728Y497961D01*
X427039Y497272D01*
X426552Y496428D01*
X426300Y495487D01*
Y494513D01*
X426552Y493572D01*
X427039Y492728D01*
X427728Y492039D01*
X428572Y491552D01*
X429513Y491300D01*
X430487D01*
X431428Y491552D01*
X432272Y492039D01*
X432961Y492728D01*
X433448Y493572D01*
X433700Y494513D01*
Y495487D01*
X433448Y496428D01*
X432961Y497272D01*
X432272Y497961D01*
X431428Y498448D01*
X430487Y498700D01*
D02*
G37*
G36*
X510487Y493700D02*
X509513D01*
X508572Y493448D01*
X507728Y492961D01*
X507039Y492272D01*
X506552Y491428D01*
X506300Y490487D01*
Y489513D01*
X506552Y488572D01*
X507039Y487728D01*
X507728Y487039D01*
X508572Y486552D01*
X509513Y486300D01*
X510487D01*
X511428Y486552D01*
X512272Y487039D01*
X512961Y487728D01*
X513448Y488572D01*
X513700Y489513D01*
Y490487D01*
X513448Y491428D01*
X512961Y492272D01*
X512272Y492961D01*
X511428Y493448D01*
X510487Y493700D01*
D02*
G37*
G36*
X417592Y488422D02*
Y485750D01*
X420264D01*
X420103Y486351D01*
X419642Y487149D01*
X418991Y487801D01*
X418193Y488262D01*
X417592Y488422D01*
D02*
G37*
G36*
X416092D02*
X415491Y488262D01*
X414693Y487801D01*
X414041Y487149D01*
X413580Y486351D01*
X413419Y485750D01*
X416092D01*
Y488422D01*
D02*
G37*
G36*
X420264Y484250D02*
X417592D01*
Y481577D01*
X418193Y481739D01*
X418991Y482199D01*
X419642Y482851D01*
X420103Y483649D01*
X420264Y484250D01*
D02*
G37*
G36*
X416092D02*
X413419D01*
X413580Y483649D01*
X414041Y482851D01*
X414693Y482199D01*
X415491Y481739D01*
X416092Y481577D01*
Y484250D01*
D02*
G37*
G36*
X510750Y468423D02*
Y465750D01*
X513422D01*
X513262Y466351D01*
X512801Y467149D01*
X512149Y467801D01*
X511351Y468261D01*
X510750Y468423D01*
D02*
G37*
G36*
X509250D02*
X508649Y468261D01*
X507851Y467801D01*
X507199Y467149D01*
X506739Y466351D01*
X506577Y465750D01*
X509250D01*
Y468423D01*
D02*
G37*
G36*
X513422Y464250D02*
X510750D01*
Y461578D01*
X511351Y461738D01*
X512149Y462199D01*
X512801Y462851D01*
X513262Y463649D01*
X513422Y464250D01*
D02*
G37*
G36*
X509250D02*
X506577D01*
X506739Y463649D01*
X507199Y462851D01*
X507851Y462199D01*
X508649Y461738D01*
X509250Y461578D01*
Y464250D01*
D02*
G37*
G36*
X310750Y443423D02*
Y440750D01*
X313422D01*
X313262Y441351D01*
X312801Y442149D01*
X312149Y442801D01*
X311351Y443261D01*
X310750Y443423D01*
D02*
G37*
G36*
X309250D02*
X308649Y443261D01*
X307851Y442801D01*
X307199Y442149D01*
X306738Y441351D01*
X306577Y440750D01*
X309250D01*
Y443423D01*
D02*
G37*
G36*
X313422Y439250D02*
X310750D01*
Y436578D01*
X311351Y436738D01*
X312149Y437199D01*
X312801Y437851D01*
X313262Y438649D01*
X313422Y439250D01*
D02*
G37*
G36*
X309250D02*
X306577D01*
X306738Y438649D01*
X307199Y437851D01*
X307851Y437199D01*
X308649Y436738D01*
X309250Y436578D01*
Y439250D01*
D02*
G37*
G36*
X510487Y429017D02*
X509513D01*
X508572Y428765D01*
X507728Y428277D01*
X507039Y427589D01*
X506552Y426745D01*
X506300Y425804D01*
Y424830D01*
X506552Y423889D01*
X507039Y423045D01*
X507728Y422356D01*
X508572Y421869D01*
X509513Y421617D01*
X510487D01*
X511428Y421869D01*
X512272Y422356D01*
X512961Y423045D01*
X513448Y423889D01*
X513700Y424830D01*
Y425804D01*
X513448Y426745D01*
X512961Y427589D01*
X512272Y428277D01*
X511428Y428765D01*
X510487Y429017D01*
D02*
G37*
G36*
X212707Y432499D02*
X211230D01*
X209781Y432211D01*
X208416Y431646D01*
X207188Y430825D01*
X206143Y429780D01*
X205323Y428552D01*
X204757Y427187D01*
X204469Y425739D01*
Y424261D01*
X204757Y422813D01*
X205323Y421448D01*
X206143Y420220D01*
X207188Y419175D01*
X208416Y418354D01*
X209781Y417789D01*
X211230Y417501D01*
X212707D01*
X214156Y417789D01*
X215521Y418354D01*
X216749Y419175D01*
X217793Y420220D01*
X218614Y421448D01*
X219180Y422813D01*
X219468Y424261D01*
Y425739D01*
X219180Y427187D01*
X218614Y428552D01*
X217793Y429780D01*
X216749Y430825D01*
X215521Y431646D01*
X214156Y432211D01*
X212707Y432499D01*
D02*
G37*
G36*
X136723D02*
X135246D01*
X133797Y432211D01*
X132432Y431646D01*
X131204Y430825D01*
X130159Y429780D01*
X129339Y428552D01*
X128773Y427187D01*
X128485Y425739D01*
Y424261D01*
X128773Y422813D01*
X129339Y421448D01*
X130159Y420220D01*
X131204Y419175D01*
X132432Y418354D01*
X133797Y417789D01*
X135246Y417501D01*
X136723D01*
X138172Y417789D01*
X139536Y418354D01*
X140765Y419175D01*
X141809Y420220D01*
X142630Y421448D01*
X143195Y422813D01*
X143483Y424261D01*
Y425739D01*
X143195Y427187D01*
X142630Y428552D01*
X141809Y429780D01*
X140765Y430825D01*
X139536Y431646D01*
X138172Y432211D01*
X136723Y432499D01*
D02*
G37*
G36*
X60739D02*
X59261D01*
X57813Y432211D01*
X56448Y431646D01*
X55220Y430825D01*
X54175Y429780D01*
X53354Y428552D01*
X52789Y427187D01*
X52501Y425739D01*
Y424261D01*
X52789Y422813D01*
X53354Y421448D01*
X54175Y420220D01*
X55220Y419175D01*
X56448Y418354D01*
X57813Y417789D01*
X59261Y417501D01*
X60739D01*
X62187Y417789D01*
X63552Y418354D01*
X64780Y419175D01*
X65825Y420220D01*
X66646Y421448D01*
X67211Y422813D01*
X67499Y424261D01*
Y425739D01*
X67211Y427187D01*
X66646Y428552D01*
X65825Y429780D01*
X64780Y430825D01*
X63552Y431646D01*
X62187Y432211D01*
X60739Y432499D01*
D02*
G37*
G36*
X310750Y413422D02*
Y410750D01*
X313422D01*
X313262Y411351D01*
X312801Y412149D01*
X312149Y412801D01*
X311351Y413262D01*
X310750Y413422D01*
D02*
G37*
G36*
X309250D02*
X308649Y413262D01*
X307851Y412801D01*
X307199Y412149D01*
X306738Y411351D01*
X306577Y410750D01*
X309250D01*
Y413422D01*
D02*
G37*
G36*
X313422Y409250D02*
X310750D01*
Y406577D01*
X311351Y406739D01*
X312149Y407199D01*
X312801Y407851D01*
X313262Y408649D01*
X313422Y409250D01*
D02*
G37*
G36*
X309250D02*
X306577D01*
X306738Y408649D01*
X307199Y407851D01*
X307851Y407199D01*
X308649Y406739D01*
X309250Y406577D01*
Y409250D01*
D02*
G37*
G36*
X395487Y408700D02*
X394513D01*
X393572Y408448D01*
X392728Y407961D01*
X392039Y407272D01*
X391552Y406428D01*
X391300Y405487D01*
Y404513D01*
X391552Y403572D01*
X392039Y402728D01*
X392728Y402039D01*
X393572Y401552D01*
X394513Y401300D01*
X395487D01*
X396428Y401552D01*
X397272Y402039D01*
X397961Y402728D01*
X398448Y403572D01*
X398700Y404513D01*
Y405487D01*
X398448Y406428D01*
X397961Y407272D01*
X397272Y407961D01*
X396428Y408448D01*
X395487Y408700D01*
D02*
G37*
G36*
X510566Y403487D02*
X509592D01*
X508651Y403234D01*
X507807Y402747D01*
X507118Y402059D01*
X506631Y401215D01*
X506379Y400274D01*
Y399300D01*
X506631Y398358D01*
X507118Y397515D01*
X507807Y396826D01*
X508651Y396339D01*
X509592Y396087D01*
X510566D01*
X511507Y396339D01*
X512351Y396826D01*
X513039Y397515D01*
X513527Y398358D01*
X513779Y399300D01*
Y400274D01*
X513527Y401215D01*
X513039Y402059D01*
X512351Y402747D01*
X511507Y403234D01*
X510566Y403487D01*
D02*
G37*
G36*
X419766Y389407D02*
Y386734D01*
X422438D01*
X422277Y387335D01*
X421816Y388133D01*
X421165Y388785D01*
X420367Y389246D01*
X419766Y389407D01*
D02*
G37*
G36*
X418266D02*
X417665Y389246D01*
X416867Y388785D01*
X416215Y388133D01*
X415754Y387335D01*
X415593Y386734D01*
X418266D01*
Y389407D01*
D02*
G37*
G36*
X212562Y396987D02*
X211375D01*
X210212Y396756D01*
X209116Y396302D01*
X208129Y395643D01*
X207290Y394804D01*
X206631Y393817D01*
X206177Y392721D01*
X205946Y391558D01*
Y390371D01*
X206177Y389208D01*
X206631Y388112D01*
X207290Y387125D01*
X208129Y386286D01*
X209116Y385627D01*
X210212Y385173D01*
X211375Y384942D01*
X212562D01*
X213725Y385173D01*
X214821Y385627D01*
X215808Y386286D01*
X216647Y387125D01*
X217306Y388112D01*
X217760Y389208D01*
X217991Y390371D01*
Y391558D01*
X217760Y392721D01*
X217306Y393817D01*
X216647Y394804D01*
X215808Y395643D01*
X214821Y396302D01*
X213725Y396756D01*
X212562Y396987D01*
D02*
G37*
G36*
X136577D02*
X135391D01*
X134228Y396756D01*
X133131Y396302D01*
X132145Y395643D01*
X131306Y394804D01*
X130647Y393817D01*
X130193Y392721D01*
X129961Y391558D01*
Y390371D01*
X130193Y389208D01*
X130647Y388112D01*
X131306Y387125D01*
X132145Y386286D01*
X133131Y385627D01*
X134228Y385173D01*
X135391Y384942D01*
X136577D01*
X137741Y385173D01*
X138837Y385627D01*
X139824Y386286D01*
X140663Y387125D01*
X141322Y388112D01*
X141776Y389208D01*
X142007Y390371D01*
Y391558D01*
X141776Y392721D01*
X141322Y393817D01*
X140663Y394804D01*
X139824Y395643D01*
X138837Y396302D01*
X137741Y396756D01*
X136577Y396987D01*
D02*
G37*
G36*
X66023D02*
X53977D01*
Y384942D01*
X66023D01*
Y396987D01*
D02*
G37*
G36*
X422438Y385234D02*
X419766D01*
Y382562D01*
X420367Y382723D01*
X421165Y383184D01*
X421816Y383835D01*
X422277Y384633D01*
X422438Y385234D01*
D02*
G37*
G36*
X418266D02*
X415593D01*
X415754Y384633D01*
X416215Y383835D01*
X416867Y383184D01*
X417665Y382723D01*
X418266Y382562D01*
Y385234D01*
D02*
G37*
G36*
X310750Y383422D02*
Y380750D01*
X313422D01*
X313262Y381351D01*
X312801Y382149D01*
X312149Y382801D01*
X311351Y383261D01*
X310750Y383422D01*
D02*
G37*
G36*
X309250D02*
X308649Y383261D01*
X307851Y382801D01*
X307199Y382149D01*
X306738Y381351D01*
X306577Y380750D01*
X309250D01*
Y383422D01*
D02*
G37*
G36*
X434503Y384684D02*
X433529D01*
X432588Y384432D01*
X431744Y383945D01*
X431055Y383256D01*
X430568Y382412D01*
X430316Y381471D01*
Y380497D01*
X430568Y379556D01*
X431055Y378712D01*
X431744Y378024D01*
X432588Y377536D01*
X433529Y377284D01*
X434503D01*
X435444Y377536D01*
X436288Y378024D01*
X436976Y378712D01*
X437464Y379556D01*
X437716Y380497D01*
Y381471D01*
X437464Y382412D01*
X436976Y383256D01*
X436288Y383945D01*
X435444Y384432D01*
X434503Y384684D01*
D02*
G37*
G36*
X313422Y379250D02*
X310750D01*
Y376577D01*
X311351Y376739D01*
X312149Y377199D01*
X312801Y377851D01*
X313262Y378649D01*
X313422Y379250D01*
D02*
G37*
G36*
X309250D02*
X306577D01*
X306738Y378649D01*
X307199Y377851D01*
X307851Y377199D01*
X308649Y376739D01*
X309250Y376577D01*
Y379250D01*
D02*
G37*
G36*
X404503Y390384D02*
X403529D01*
X402588Y390132D01*
X401744Y389645D01*
X401055Y388956D01*
X400568Y388112D01*
X400316Y387171D01*
Y386197D01*
X400568Y385256D01*
X401055Y384412D01*
X401744Y383723D01*
X402588Y383236D01*
X403284Y383050D01*
Y382532D01*
X402588Y382346D01*
X401744Y381858D01*
X401055Y381170D01*
X400568Y380326D01*
X400316Y379385D01*
Y378411D01*
X400568Y377469D01*
X401055Y376626D01*
X401744Y375937D01*
X402588Y375450D01*
X403529Y375198D01*
X404503D01*
X405444Y375450D01*
X406288Y375937D01*
X406977Y376626D01*
X407464Y377469D01*
X407716Y378411D01*
Y379385D01*
X407464Y380326D01*
X406977Y381170D01*
X406288Y381858D01*
X405444Y382346D01*
X404747Y382532D01*
Y383050D01*
X405444Y383236D01*
X406288Y383723D01*
X406977Y384412D01*
X407464Y385256D01*
X407716Y386197D01*
Y387171D01*
X407464Y388112D01*
X406977Y388956D01*
X406288Y389645D01*
X405444Y390132D01*
X404503Y390384D01*
D02*
G37*
G36*
X454845Y376493D02*
Y373821D01*
X457517D01*
X457356Y374422D01*
X456895Y375220D01*
X456244Y375872D01*
X455445Y376332D01*
X454845Y376493D01*
D02*
G37*
G36*
X453344D02*
X452743Y376332D01*
X451945Y375872D01*
X451294Y375220D01*
X450833Y374422D01*
X450672Y373821D01*
X453344D01*
Y376493D01*
D02*
G37*
G36*
X510487Y379344D02*
X509513D01*
X508572Y379092D01*
X507728Y378605D01*
X507039Y377916D01*
X506552Y377073D01*
X506300Y376132D01*
Y375157D01*
X506552Y374216D01*
X507039Y373373D01*
X507728Y372684D01*
X508572Y372197D01*
X509513Y371944D01*
X510487D01*
X511428Y372197D01*
X512272Y372684D01*
X512961Y373373D01*
X513448Y374216D01*
X513700Y375157D01*
Y376132D01*
X513448Y377073D01*
X512961Y377916D01*
X512272Y378605D01*
X511428Y379092D01*
X510487Y379344D01*
D02*
G37*
G36*
X457517Y372321D02*
X454845D01*
Y369648D01*
X455445Y369809D01*
X456244Y370270D01*
X456895Y370922D01*
X457356Y371720D01*
X457517Y372321D01*
D02*
G37*
G36*
X453344D02*
X450672D01*
X450833Y371720D01*
X451294Y370922D01*
X451945Y370270D01*
X452743Y369809D01*
X453344Y369648D01*
Y372321D01*
D02*
G37*
G36*
X429658Y374406D02*
X428684D01*
X427743Y374153D01*
X426899Y373666D01*
X426210Y372977D01*
X425723Y372134D01*
X425471Y371193D01*
Y370218D01*
X425723Y369277D01*
X426210Y368434D01*
X426899Y367745D01*
X427743Y367258D01*
X428684Y367005D01*
X429658D01*
X430599Y367258D01*
X431443Y367745D01*
X432132Y368434D01*
X432619Y369277D01*
X432871Y370218D01*
Y371193D01*
X432619Y372134D01*
X432132Y372977D01*
X431443Y373666D01*
X430599Y374153D01*
X429658Y374406D01*
D02*
G37*
G36*
X419503Y374192D02*
X418529D01*
X417588Y373940D01*
X416744Y373453D01*
X416055Y372764D01*
X415568Y371920D01*
X415316Y370979D01*
Y370005D01*
X415568Y369064D01*
X416055Y368220D01*
X416744Y367531D01*
X417588Y367044D01*
X418529Y366792D01*
X419503D01*
X420444Y367044D01*
X421288Y367531D01*
X421977Y368220D01*
X422464Y369064D01*
X422716Y370005D01*
Y370979D01*
X422464Y371920D01*
X421977Y372764D01*
X421288Y373453D01*
X420444Y373940D01*
X419503Y374192D01*
D02*
G37*
G36*
X409582D02*
X408607D01*
X407666Y373940D01*
X406823Y373453D01*
X406134Y372764D01*
X405647Y371920D01*
X405395Y370979D01*
Y370005D01*
X405647Y369064D01*
X406134Y368220D01*
X406823Y367531D01*
X407666Y367044D01*
X408607Y366792D01*
X409582D01*
X410523Y367044D01*
X411366Y367531D01*
X412055Y368220D01*
X412542Y369064D01*
X412794Y370005D01*
Y370979D01*
X412542Y371920D01*
X412055Y372764D01*
X411366Y373453D01*
X410523Y373940D01*
X409582Y374192D01*
D02*
G37*
G36*
X511393Y355629D02*
X510418D01*
X509477Y355377D01*
X508634Y354890D01*
X507945Y354201D01*
X507458Y353357D01*
X507205Y352416D01*
Y351442D01*
X507458Y350501D01*
X507945Y349657D01*
X508634Y348968D01*
X509477Y348481D01*
X510418Y348229D01*
X511393D01*
X512334Y348481D01*
X513177Y348968D01*
X513866Y349657D01*
X514353Y350501D01*
X514606Y351442D01*
Y352416D01*
X514353Y353357D01*
X513866Y354201D01*
X513177Y354890D01*
X512334Y355377D01*
X511393Y355629D01*
D02*
G37*
G36*
X50750Y348423D02*
Y345750D01*
X53422D01*
X53262Y346351D01*
X52801Y347149D01*
X52149Y347801D01*
X51351Y348261D01*
X50750Y348423D01*
D02*
G37*
G36*
X49250D02*
X48649Y348261D01*
X47851Y347801D01*
X47199Y347149D01*
X46738Y346351D01*
X46578Y345750D01*
X49250D01*
Y348423D01*
D02*
G37*
G36*
X53422Y344250D02*
X50750D01*
Y341578D01*
X51351Y341739D01*
X52149Y342199D01*
X52801Y342851D01*
X53262Y343649D01*
X53422Y344250D01*
D02*
G37*
G36*
X49250D02*
X46578D01*
X46738Y343649D01*
X47199Y342851D01*
X47851Y342199D01*
X48649Y341739D01*
X49250Y341578D01*
Y344250D01*
D02*
G37*
G36*
X155487Y333700D02*
X154513D01*
X153572Y333448D01*
X152728Y332961D01*
X152039Y332272D01*
X151552Y331428D01*
X151300Y330487D01*
Y329513D01*
X151552Y328572D01*
X152039Y327728D01*
X152728Y327039D01*
X153572Y326552D01*
X154513Y326300D01*
X155487D01*
X156428Y326552D01*
X157272Y327039D01*
X157961Y327728D01*
X158448Y328572D01*
X158700Y329513D01*
Y330487D01*
X158448Y331428D01*
X157961Y332272D01*
X157272Y332961D01*
X156428Y333448D01*
X155487Y333700D01*
D02*
G37*
G36*
X511393Y325629D02*
X510418D01*
X509477Y325377D01*
X508634Y324890D01*
X507945Y324201D01*
X507458Y323357D01*
X507205Y322416D01*
Y321442D01*
X507458Y320501D01*
X507945Y319657D01*
X508634Y318968D01*
X509477Y318481D01*
X510418Y318229D01*
X511393D01*
X512334Y318481D01*
X513177Y318968D01*
X513866Y319657D01*
X514353Y320501D01*
X514606Y321442D01*
Y322416D01*
X514353Y323357D01*
X513866Y324201D01*
X513177Y324890D01*
X512334Y325377D01*
X511393Y325629D01*
D02*
G37*
G36*
X149490Y314564D02*
Y311892D01*
X152163D01*
X152002Y312493D01*
X151541Y313291D01*
X150889Y313942D01*
X150091Y314403D01*
X149490Y314564D01*
D02*
G37*
G36*
X147990D02*
X147389Y314403D01*
X146591Y313942D01*
X145940Y313291D01*
X145479Y312493D01*
X145318Y311892D01*
X147990D01*
Y314564D01*
D02*
G37*
G36*
X64282Y318700D02*
X63308D01*
X62367Y318448D01*
X61523Y317961D01*
X60834Y317272D01*
X60347Y316428D01*
X60095Y315487D01*
Y314513D01*
X60347Y313572D01*
X60834Y312728D01*
X61523Y312039D01*
X62367Y311552D01*
X63308Y311300D01*
X64282D01*
X65223Y311552D01*
X66067Y312039D01*
X66756Y312728D01*
X67243Y313572D01*
X67495Y314513D01*
Y315487D01*
X67243Y316428D01*
X66756Y317272D01*
X66067Y317961D01*
X65223Y318448D01*
X64282Y318700D01*
D02*
G37*
G36*
X55487D02*
X54513D01*
X53572Y318448D01*
X52728Y317961D01*
X52039Y317272D01*
X51552Y316428D01*
X51300Y315487D01*
Y314513D01*
X51552Y313572D01*
X52039Y312728D01*
X52728Y312039D01*
X53572Y311552D01*
X54513Y311300D01*
X55487D01*
X56428Y311552D01*
X57272Y312039D01*
X57961Y312728D01*
X58448Y313572D01*
X58700Y314513D01*
Y315487D01*
X58448Y316428D01*
X57961Y317272D01*
X57272Y317961D01*
X56428Y318448D01*
X55487Y318700D01*
D02*
G37*
G36*
X152163Y310392D02*
X149490D01*
Y307719D01*
X150091Y307880D01*
X150889Y308341D01*
X151541Y308993D01*
X152002Y309791D01*
X152163Y310392D01*
D02*
G37*
G36*
X147990D02*
X145318D01*
X145479Y309791D01*
X145940Y308993D01*
X146591Y308341D01*
X147389Y307880D01*
X147990Y307719D01*
Y310392D01*
D02*
G37*
G36*
X64282Y310413D02*
X63308D01*
X62367Y310160D01*
X61523Y309673D01*
X60834Y308984D01*
X60347Y308141D01*
X60095Y307200D01*
Y306225D01*
X60347Y305284D01*
X60834Y304441D01*
X61523Y303752D01*
X62367Y303265D01*
X63308Y303013D01*
X64282D01*
X65223Y303265D01*
X66067Y303752D01*
X66756Y304441D01*
X67243Y305284D01*
X67495Y306225D01*
Y307200D01*
X67243Y308141D01*
X66756Y308984D01*
X66067Y309673D01*
X65223Y310160D01*
X64282Y310413D01*
D02*
G37*
G36*
X55487D02*
X54513D01*
X53572Y310160D01*
X52728Y309673D01*
X52039Y308984D01*
X51552Y308141D01*
X51300Y307200D01*
Y306225D01*
X51552Y305284D01*
X52039Y304441D01*
X52728Y303752D01*
X53572Y303265D01*
X54513Y303013D01*
X55487D01*
X56428Y303265D01*
X57272Y303752D01*
X57961Y304441D01*
X58448Y305284D01*
X58700Y306225D01*
Y307200D01*
X58448Y308141D01*
X57961Y308984D01*
X57272Y309673D01*
X56428Y310160D01*
X55487Y310413D01*
D02*
G37*
G36*
X128663Y303422D02*
Y300750D01*
X131336D01*
X131175Y301351D01*
X130714Y302149D01*
X130062Y302801D01*
X129264Y303261D01*
X128663Y303422D01*
D02*
G37*
G36*
X127163D02*
X126562Y303261D01*
X125764Y302801D01*
X125113Y302149D01*
X124652Y301351D01*
X124491Y300750D01*
X127163D01*
Y303422D01*
D02*
G37*
G36*
X131336Y299250D02*
X128663D01*
Y296578D01*
X129264Y296739D01*
X130062Y297199D01*
X130714Y297851D01*
X131175Y298649D01*
X131336Y299250D01*
D02*
G37*
G36*
X127163D02*
X124491D01*
X124652Y298649D01*
X125113Y297851D01*
X125764Y297199D01*
X126562Y296739D01*
X127163Y296578D01*
Y299250D01*
D02*
G37*
G36*
X510750Y298423D02*
Y295750D01*
X513422D01*
X513262Y296351D01*
X512801Y297149D01*
X512149Y297801D01*
X511351Y298261D01*
X510750Y298423D01*
D02*
G37*
G36*
X509250D02*
X508649Y298261D01*
X507851Y297801D01*
X507199Y297149D01*
X506739Y296351D01*
X506577Y295750D01*
X509250D01*
Y298423D01*
D02*
G37*
G36*
X74293Y297281D02*
Y294608D01*
X76966D01*
X76805Y295209D01*
X76344Y296007D01*
X75692Y296659D01*
X74894Y297120D01*
X74293Y297281D01*
D02*
G37*
G36*
X72793D02*
X72192Y297120D01*
X71394Y296659D01*
X70743Y296007D01*
X70282Y295209D01*
X70121Y294608D01*
X72793D01*
Y297281D01*
D02*
G37*
G36*
X513422Y294250D02*
X510750D01*
Y291578D01*
X511351Y291739D01*
X512149Y292199D01*
X512801Y292851D01*
X513262Y293649D01*
X513422Y294250D01*
D02*
G37*
G36*
X509250D02*
X506577D01*
X506739Y293649D01*
X507199Y292851D01*
X507851Y292199D01*
X508649Y291739D01*
X509250Y291578D01*
Y294250D01*
D02*
G37*
G36*
X76966Y293108D02*
X74293D01*
Y290436D01*
X74894Y290597D01*
X75692Y291058D01*
X76344Y291709D01*
X76805Y292507D01*
X76966Y293108D01*
D02*
G37*
G36*
X72793D02*
X70121D01*
X70282Y292507D01*
X70743Y291709D01*
X71394Y291058D01*
X72192Y290597D01*
X72793Y290436D01*
Y293108D01*
D02*
G37*
G36*
X180487Y288739D02*
X179513D01*
X178572Y288487D01*
X177728Y288000D01*
X177039Y287311D01*
X176552Y286468D01*
X176300Y285526D01*
Y284552D01*
X176552Y283611D01*
X177039Y282768D01*
X177728Y282079D01*
X178572Y281592D01*
X179513Y281339D01*
X180487D01*
X181428Y281592D01*
X182272Y282079D01*
X182961Y282768D01*
X183448Y283611D01*
X183700Y284552D01*
Y285526D01*
X183448Y286468D01*
X182961Y287311D01*
X182272Y288000D01*
X181428Y288487D01*
X180487Y288739D01*
D02*
G37*
G36*
X208083Y281456D02*
X207109D01*
X206168Y281204D01*
X205324Y280717D01*
X204636Y280028D01*
X204148Y279184D01*
X203896Y278243D01*
Y277269D01*
X204148Y276328D01*
X204636Y275484D01*
X205324Y274795D01*
X206168Y274308D01*
X207109Y274056D01*
X208083D01*
X209024Y274308D01*
X209868Y274795D01*
X210557Y275484D01*
X211044Y276328D01*
X211296Y277269D01*
Y278243D01*
X211044Y279184D01*
X210557Y280028D01*
X209868Y280717D01*
X209024Y281204D01*
X208083Y281456D01*
D02*
G37*
G36*
X142010Y268423D02*
Y265750D01*
X144682D01*
X144521Y266351D01*
X144061Y267149D01*
X143409Y267801D01*
X142611Y268262D01*
X142010Y268423D01*
D02*
G37*
G36*
X140510D02*
X139909Y268262D01*
X139111Y267801D01*
X138459Y267149D01*
X137998Y266351D01*
X137837Y265750D01*
X140510D01*
Y268423D01*
D02*
G37*
G36*
X144682Y264250D02*
X142010D01*
Y261578D01*
X142611Y261738D01*
X143409Y262199D01*
X144061Y262851D01*
X144521Y263649D01*
X144682Y264250D01*
D02*
G37*
G36*
X140510D02*
X137837D01*
X137998Y263649D01*
X138459Y262851D01*
X139111Y262199D01*
X139909Y261738D01*
X140510Y261578D01*
Y264250D01*
D02*
G37*
G36*
X395611Y270688D02*
X394389D01*
X393192Y270450D01*
X392063Y269983D01*
X391048Y269304D01*
X390184Y268441D01*
X389506Y267425D01*
X389038Y266297D01*
X388800Y265099D01*
Y263878D01*
X389038Y262680D01*
X389506Y261551D01*
X390184Y260536D01*
X391048Y259672D01*
X392063Y258994D01*
X393192Y258526D01*
X394389Y258288D01*
X395611D01*
X396809Y258526D01*
X397937Y258994D01*
X398952Y259672D01*
X399816Y260536D01*
X400494Y261551D01*
X400962Y262680D01*
X401200Y263878D01*
Y265099D01*
X400962Y266297D01*
X400494Y267425D01*
X399816Y268441D01*
X398952Y269304D01*
X397937Y269983D01*
X396809Y270450D01*
X395611Y270688D01*
D02*
G37*
G36*
X375611D02*
X374389D01*
X373191Y270450D01*
X372063Y269983D01*
X371048Y269304D01*
X370184Y268441D01*
X369506Y267425D01*
X369038Y266297D01*
X368800Y265099D01*
Y263878D01*
X369038Y262680D01*
X369506Y261551D01*
X370184Y260536D01*
X371048Y259672D01*
X372063Y258994D01*
X373191Y258526D01*
X374389Y258288D01*
X375611D01*
X376809Y258526D01*
X377937Y258994D01*
X378952Y259672D01*
X379816Y260536D01*
X380494Y261551D01*
X380962Y262680D01*
X381200Y263878D01*
Y265099D01*
X380962Y266297D01*
X380494Y267425D01*
X379816Y268441D01*
X378952Y269304D01*
X377937Y269983D01*
X376809Y270450D01*
X375611Y270688D01*
D02*
G37*
G36*
X185487Y262738D02*
X184513D01*
X183572Y262486D01*
X182728Y261998D01*
X182039Y261310D01*
X181552Y260466D01*
X181300Y259525D01*
Y258551D01*
X181552Y257610D01*
X182039Y256766D01*
X182728Y256077D01*
X183572Y255590D01*
X184513Y255338D01*
X185487D01*
X186428Y255590D01*
X187272Y256077D01*
X187961Y256766D01*
X188448Y257610D01*
X188700Y258551D01*
Y259525D01*
X188448Y260466D01*
X187961Y261310D01*
X187272Y261998D01*
X186428Y262486D01*
X185487Y262738D01*
D02*
G37*
G36*
X510487Y258188D02*
X509513D01*
X508572Y257936D01*
X507728Y257449D01*
X507039Y256760D01*
X506552Y255916D01*
X506300Y254975D01*
Y254001D01*
X506552Y253060D01*
X507039Y252216D01*
X507728Y251527D01*
X508572Y251040D01*
X509513Y250788D01*
X510487D01*
X511428Y251040D01*
X512272Y251527D01*
X512961Y252216D01*
X513448Y253060D01*
X513700Y254001D01*
Y254975D01*
X513448Y255916D01*
X512961Y256760D01*
X512272Y257449D01*
X511428Y257936D01*
X510487Y258188D01*
D02*
G37*
G36*
X385611Y260688D02*
X384389D01*
X383191Y260450D01*
X382063Y259982D01*
X381048Y259304D01*
X380184Y258440D01*
X379506Y257425D01*
X379038Y256297D01*
X378800Y255099D01*
Y253877D01*
X379038Y252680D01*
X379506Y251551D01*
X380184Y250536D01*
X381048Y249672D01*
X382063Y248994D01*
X383191Y248526D01*
X384389Y248288D01*
X385611D01*
X386808Y248526D01*
X387937Y248994D01*
X388952Y249672D01*
X389816Y250536D01*
X390494Y251551D01*
X390962Y252680D01*
X391200Y253877D01*
Y255099D01*
X390962Y256297D01*
X390494Y257425D01*
X389816Y258440D01*
X388952Y259304D01*
X387937Y259982D01*
X386808Y260450D01*
X385611Y260688D01*
D02*
G37*
G36*
X210487Y253700D02*
X209513D01*
X208572Y253448D01*
X207728Y252961D01*
X207039Y252272D01*
X206552Y251428D01*
X206300Y250487D01*
Y249513D01*
X206552Y248572D01*
X207039Y247728D01*
X207728Y247039D01*
X208572Y246552D01*
X209513Y246300D01*
X210487D01*
X211428Y246552D01*
X212272Y247039D01*
X212961Y247728D01*
X213448Y248572D01*
X213700Y249513D01*
Y250487D01*
X213448Y251428D01*
X212961Y252272D01*
X212272Y252961D01*
X211428Y253448D01*
X210487Y253700D01*
D02*
G37*
G36*
X395611Y250688D02*
X394389D01*
X393192Y250450D01*
X392063Y249983D01*
X391048Y249304D01*
X390184Y248441D01*
X389506Y247425D01*
X389038Y246297D01*
X388800Y245099D01*
Y243878D01*
X389038Y242680D01*
X389506Y241551D01*
X390184Y240536D01*
X391048Y239672D01*
X392063Y238994D01*
X393192Y238526D01*
X394389Y238288D01*
X395611D01*
X396809Y238526D01*
X397937Y238994D01*
X398952Y239672D01*
X399816Y240536D01*
X400494Y241551D01*
X400962Y242680D01*
X401200Y243878D01*
Y245099D01*
X400962Y246297D01*
X400494Y247425D01*
X399816Y248441D01*
X398952Y249304D01*
X397937Y249983D01*
X396809Y250450D01*
X395611Y250688D01*
D02*
G37*
G36*
X375611D02*
X374389D01*
X373191Y250450D01*
X372063Y249983D01*
X371048Y249304D01*
X370184Y248441D01*
X369506Y247425D01*
X369038Y246297D01*
X368800Y245099D01*
Y243878D01*
X369038Y242680D01*
X369506Y241551D01*
X370184Y240536D01*
X371048Y239672D01*
X372063Y238994D01*
X373191Y238526D01*
X374389Y238288D01*
X375611D01*
X376809Y238526D01*
X377937Y238994D01*
X378952Y239672D01*
X379816Y240536D01*
X380494Y241551D01*
X380962Y242680D01*
X381200Y243878D01*
Y245099D01*
X380962Y246297D01*
X380494Y247425D01*
X379816Y248441D01*
X378952Y249304D01*
X377937Y249983D01*
X376809Y250450D01*
X375611Y250688D01*
D02*
G37*
G36*
X177296Y238700D02*
X176322D01*
X175381Y238448D01*
X174537Y237961D01*
X173848Y237272D01*
X173361Y236428D01*
X173109Y235487D01*
Y234513D01*
X173361Y233572D01*
X173848Y232728D01*
X174537Y232039D01*
X175381Y231552D01*
X176322Y231300D01*
X177296D01*
X178237Y231552D01*
X179080Y232039D01*
X179769Y232728D01*
X180256Y233572D01*
X180509Y234513D01*
Y235487D01*
X180256Y236428D01*
X179769Y237272D01*
X179080Y237961D01*
X178237Y238448D01*
X177296Y238700D01*
D02*
G37*
G36*
X324267Y238188D02*
X323293D01*
X322352Y237936D01*
X321508Y237449D01*
X320819Y236760D01*
X320332Y235916D01*
X320080Y234975D01*
Y234001D01*
X320332Y233060D01*
X320819Y232216D01*
X321508Y231527D01*
X322352Y231040D01*
X323293Y230788D01*
X324267D01*
X325208Y231040D01*
X326052Y231527D01*
X326741Y232216D01*
X327228Y233060D01*
X327480Y234001D01*
Y234975D01*
X327228Y235916D01*
X326741Y236760D01*
X326052Y237449D01*
X325208Y237936D01*
X324267Y238188D01*
D02*
G37*
G36*
X510487Y233188D02*
X509513D01*
X508572Y232936D01*
X507728Y232449D01*
X507039Y231760D01*
X506552Y230916D01*
X506300Y229975D01*
Y229001D01*
X506552Y228060D01*
X507039Y227216D01*
X507728Y226527D01*
X508572Y226040D01*
X509513Y225788D01*
X510487D01*
X511428Y226040D01*
X512272Y226527D01*
X512961Y227216D01*
X513448Y228060D01*
X513700Y229001D01*
Y229975D01*
X513448Y230916D01*
X512961Y231760D01*
X512272Y232449D01*
X511428Y232936D01*
X510487Y233188D01*
D02*
G37*
G36*
X44788Y218700D02*
X43814D01*
X42873Y218448D01*
X42029Y217961D01*
X41340Y217272D01*
X40853Y216428D01*
X40601Y215487D01*
Y214513D01*
X40853Y213572D01*
X41340Y212728D01*
X42029Y212039D01*
X42873Y211552D01*
X43814Y211300D01*
X44788D01*
X45729Y211552D01*
X46573Y212039D01*
X47262Y212728D01*
X47749Y213572D01*
X48001Y214513D01*
Y215487D01*
X47749Y216428D01*
X47262Y217272D01*
X46573Y217961D01*
X45729Y218448D01*
X44788Y218700D01*
D02*
G37*
G36*
X35487D02*
X34513D01*
X33572Y218448D01*
X32728Y217961D01*
X32039Y217272D01*
X31552Y216428D01*
X31300Y215487D01*
Y214513D01*
X31552Y213572D01*
X32039Y212728D01*
X32728Y212039D01*
X33572Y211552D01*
X34513Y211300D01*
X35487D01*
X36428Y211552D01*
X37272Y212039D01*
X37961Y212728D01*
X38448Y213572D01*
X38700Y214513D01*
Y215487D01*
X38448Y216428D01*
X37961Y217272D01*
X37272Y217961D01*
X36428Y218448D01*
X35487Y218700D01*
D02*
G37*
G36*
X420750Y207911D02*
Y205238D01*
X423422D01*
X423261Y205839D01*
X422801Y206637D01*
X422149Y207289D01*
X421351Y207750D01*
X420750Y207911D01*
D02*
G37*
G36*
X419250D02*
X418649Y207750D01*
X417851Y207289D01*
X417199Y206637D01*
X416739Y205839D01*
X416577Y205238D01*
X419250D01*
Y207911D01*
D02*
G37*
G36*
X44788Y208700D02*
X43814D01*
X42873Y208448D01*
X42029Y207961D01*
X41340Y207272D01*
X40853Y206428D01*
X40601Y205487D01*
Y204513D01*
X40853Y203572D01*
X41340Y202728D01*
X42029Y202039D01*
X42873Y201552D01*
X43814Y201300D01*
X44788D01*
X45729Y201552D01*
X46573Y202039D01*
X47262Y202728D01*
X47749Y203572D01*
X48001Y204513D01*
Y205487D01*
X47749Y206428D01*
X47262Y207272D01*
X46573Y207961D01*
X45729Y208448D01*
X44788Y208700D01*
D02*
G37*
G36*
X35487D02*
X34513D01*
X33572Y208448D01*
X32728Y207961D01*
X32039Y207272D01*
X31552Y206428D01*
X31300Y205487D01*
Y204513D01*
X31552Y203572D01*
X32039Y202728D01*
X32728Y202039D01*
X33572Y201552D01*
X34513Y201300D01*
X35487D01*
X36428Y201552D01*
X37272Y202039D01*
X37961Y202728D01*
X38448Y203572D01*
X38700Y204513D01*
Y205487D01*
X38448Y206428D01*
X37961Y207272D01*
X37272Y207961D01*
X36428Y208448D01*
X35487Y208700D01*
D02*
G37*
G36*
X423422Y203738D02*
X420750D01*
Y201066D01*
X421351Y201227D01*
X422149Y201688D01*
X422801Y202339D01*
X423261Y203137D01*
X423422Y203738D01*
D02*
G37*
G36*
X419250D02*
X416577D01*
X416739Y203137D01*
X417199Y202339D01*
X417851Y201688D01*
X418649Y201227D01*
X419250Y201066D01*
Y203738D01*
D02*
G37*
G36*
X510487Y208188D02*
X509513D01*
X508572Y207936D01*
X507728Y207449D01*
X507039Y206760D01*
X506552Y205916D01*
X506300Y204975D01*
Y204001D01*
X506552Y203060D01*
X507039Y202216D01*
X507728Y201527D01*
X508572Y201040D01*
X509513Y200788D01*
X510487D01*
X511428Y201040D01*
X512272Y201527D01*
X512961Y202216D01*
X513448Y203060D01*
X513700Y204001D01*
Y204975D01*
X513448Y205916D01*
X512961Y206760D01*
X512272Y207449D01*
X511428Y207936D01*
X510487Y208188D01*
D02*
G37*
G36*
X420750Y197911D02*
Y195238D01*
X423422D01*
X423261Y195839D01*
X422801Y196637D01*
X422149Y197289D01*
X421351Y197750D01*
X420750Y197911D01*
D02*
G37*
G36*
X419250D02*
X418649Y197750D01*
X417851Y197289D01*
X417199Y196637D01*
X416739Y195839D01*
X416577Y195238D01*
X419250D01*
Y197911D01*
D02*
G37*
G36*
X423422Y193738D02*
X420750D01*
Y191066D01*
X421351Y191227D01*
X422149Y191688D01*
X422801Y192339D01*
X423261Y193137D01*
X423422Y193738D01*
D02*
G37*
G36*
X419250D02*
X416577D01*
X416739Y193137D01*
X417199Y192339D01*
X417851Y191688D01*
X418649Y191227D01*
X419250Y191066D01*
Y193738D01*
D02*
G37*
G36*
X350487Y198188D02*
X349513D01*
X348572Y197936D01*
X347728Y197449D01*
X347039Y196760D01*
X346552Y195916D01*
X346300Y194975D01*
Y194001D01*
X346552Y193060D01*
X347039Y192216D01*
X347728Y191527D01*
X348572Y191040D01*
X349513Y190788D01*
X350487D01*
X351428Y191040D01*
X352272Y191527D01*
X352961Y192216D01*
X353448Y193060D01*
X353700Y194001D01*
Y194975D01*
X353448Y195916D01*
X352961Y196760D01*
X352272Y197449D01*
X351428Y197936D01*
X350487Y198188D01*
D02*
G37*
G36*
X340487D02*
X339513D01*
X338572Y197936D01*
X337728Y197449D01*
X337039Y196760D01*
X336552Y195916D01*
X336300Y194975D01*
Y194001D01*
X336552Y193060D01*
X337039Y192216D01*
X337728Y191527D01*
X338572Y191040D01*
X339513Y190788D01*
X340487D01*
X341428Y191040D01*
X342272Y191527D01*
X342961Y192216D01*
X343448Y193060D01*
X343700Y194001D01*
Y194975D01*
X343448Y195916D01*
X342961Y196760D01*
X342272Y197449D01*
X341428Y197936D01*
X340487Y198188D01*
D02*
G37*
G36*
X435487Y193188D02*
X434513D01*
X433572Y192936D01*
X432728Y192449D01*
X432039Y191760D01*
X431552Y190916D01*
X431300Y189975D01*
Y189001D01*
X431552Y188060D01*
X432039Y187216D01*
X432728Y186527D01*
X433572Y186040D01*
X434513Y185788D01*
X435487D01*
X436428Y186040D01*
X437272Y186527D01*
X437961Y187216D01*
X438448Y188060D01*
X438700Y189001D01*
Y189975D01*
X438448Y190916D01*
X437961Y191760D01*
X437272Y192449D01*
X436428Y192936D01*
X435487Y193188D01*
D02*
G37*
G36*
X340487Y188700D02*
X339513D01*
X338572Y188448D01*
X337728Y187961D01*
X337039Y187272D01*
X336552Y186428D01*
X336300Y185487D01*
Y184513D01*
X336552Y183572D01*
X337039Y182728D01*
X337728Y182039D01*
X338572Y181552D01*
X339513Y181300D01*
X340487D01*
X341428Y181552D01*
X342272Y182039D01*
X342961Y182728D01*
X343448Y183572D01*
X343700Y184513D01*
Y185487D01*
X343448Y186428D01*
X342961Y187272D01*
X342272Y187961D01*
X341428Y188448D01*
X340487Y188700D01*
D02*
G37*
G36*
X420750Y182911D02*
Y180238D01*
X423422D01*
X423261Y180839D01*
X422801Y181637D01*
X422149Y182289D01*
X421351Y182750D01*
X420750Y182911D01*
D02*
G37*
G36*
X419250D02*
X418649Y182750D01*
X417851Y182289D01*
X417199Y181637D01*
X416739Y180839D01*
X416577Y180238D01*
X419250D01*
Y182911D01*
D02*
G37*
G36*
X350750D02*
Y180238D01*
X353422D01*
X353261Y180839D01*
X352801Y181637D01*
X352149Y182289D01*
X351351Y182750D01*
X350750Y182911D01*
D02*
G37*
G36*
X349250D02*
X348649Y182750D01*
X347851Y182289D01*
X347199Y181637D01*
X346739Y180839D01*
X346578Y180238D01*
X349250D01*
Y182911D01*
D02*
G37*
G36*
X305750D02*
Y180238D01*
X308422D01*
X308261Y180839D01*
X307801Y181637D01*
X307149Y182289D01*
X306351Y182750D01*
X305750Y182911D01*
D02*
G37*
G36*
X304250D02*
X303649Y182750D01*
X302851Y182289D01*
X302199Y181637D01*
X301739Y180839D01*
X301577Y180238D01*
X304250D01*
Y182911D01*
D02*
G37*
G36*
X135487Y183700D02*
X134513D01*
X133572Y183448D01*
X132728Y182961D01*
X132039Y182272D01*
X131552Y181428D01*
X131300Y180487D01*
Y179513D01*
X131552Y178572D01*
X132039Y177728D01*
X132728Y177039D01*
X133572Y176552D01*
X134513Y176300D01*
X135487D01*
X136428Y176552D01*
X137272Y177039D01*
X137961Y177728D01*
X138448Y178572D01*
X138700Y179513D01*
Y180487D01*
X138448Y181428D01*
X137961Y182272D01*
X137272Y182961D01*
X136428Y183448D01*
X135487Y183700D01*
D02*
G37*
G36*
X423422Y178738D02*
X420750D01*
Y176066D01*
X421351Y176227D01*
X422149Y176688D01*
X422801Y177339D01*
X423261Y178137D01*
X423422Y178738D01*
D02*
G37*
G36*
X419250D02*
X416577D01*
X416739Y178137D01*
X417199Y177339D01*
X417851Y176688D01*
X418649Y176227D01*
X419250Y176066D01*
Y178738D01*
D02*
G37*
G36*
X353422D02*
X350750D01*
Y176066D01*
X351351Y176227D01*
X352149Y176688D01*
X352801Y177339D01*
X353261Y178137D01*
X353422Y178738D01*
D02*
G37*
G36*
X349250D02*
X346578D01*
X346739Y178137D01*
X347199Y177339D01*
X347851Y176688D01*
X348649Y176227D01*
X349250Y176066D01*
Y178738D01*
D02*
G37*
G36*
X308422D02*
X305750D01*
Y176066D01*
X306351Y176227D01*
X307149Y176688D01*
X307801Y177339D01*
X308261Y178137D01*
X308422Y178738D01*
D02*
G37*
G36*
X304250D02*
X301577D01*
X301739Y178137D01*
X302199Y177339D01*
X302851Y176688D01*
X303649Y176227D01*
X304250Y176066D01*
Y178738D01*
D02*
G37*
G36*
X510487Y183188D02*
X509513D01*
X508572Y182936D01*
X507728Y182449D01*
X507039Y181760D01*
X506552Y180916D01*
X506300Y179975D01*
Y179001D01*
X506552Y178060D01*
X507039Y177216D01*
X507728Y176527D01*
X508572Y176040D01*
X509513Y175788D01*
X510487D01*
X511428Y176040D01*
X512272Y176527D01*
X512961Y177216D01*
X513448Y178060D01*
X513700Y179001D01*
Y179975D01*
X513448Y180916D01*
X512961Y181760D01*
X512272Y182449D01*
X511428Y182936D01*
X510487Y183188D01*
D02*
G37*
G36*
X330487Y168188D02*
X329513D01*
X328572Y167936D01*
X327728Y167449D01*
X327039Y166760D01*
X326552Y165916D01*
X326300Y164975D01*
Y164001D01*
X326552Y163060D01*
X327039Y162216D01*
X327728Y161527D01*
X328572Y161040D01*
X329513Y160788D01*
X330487D01*
X331428Y161040D01*
X332272Y161527D01*
X332961Y162216D01*
X333448Y163060D01*
X333700Y164001D01*
Y164975D01*
X333448Y165916D01*
X332961Y166760D01*
X332272Y167449D01*
X331428Y167936D01*
X330487Y168188D01*
D02*
G37*
G36*
X320487D02*
X319513D01*
X318572Y167936D01*
X317728Y167449D01*
X317039Y166760D01*
X316552Y165916D01*
X316300Y164975D01*
Y164001D01*
X316552Y163060D01*
X317039Y162216D01*
X317728Y161527D01*
X318572Y161040D01*
X319513Y160788D01*
X320487D01*
X321428Y161040D01*
X322272Y161527D01*
X322961Y162216D01*
X323448Y163060D01*
X323700Y164001D01*
Y164975D01*
X323448Y165916D01*
X322961Y166760D01*
X322272Y167449D01*
X321428Y167936D01*
X320487Y168188D01*
D02*
G37*
G36*
X133837Y163423D02*
Y160750D01*
X136510D01*
X136349Y161351D01*
X135888Y162149D01*
X135237Y162801D01*
X134438Y163261D01*
X133837Y163423D01*
D02*
G37*
G36*
X132337D02*
X131737Y163261D01*
X130938Y162801D01*
X130287Y162149D01*
X129826Y161351D01*
X129665Y160750D01*
X132337D01*
Y163423D01*
D02*
G37*
G36*
X136510Y159250D02*
X133837D01*
Y156578D01*
X134438Y156738D01*
X135237Y157199D01*
X135888Y157851D01*
X136349Y158649D01*
X136510Y159250D01*
D02*
G37*
G36*
X132337D02*
X129665D01*
X129826Y158649D01*
X130287Y157851D01*
X130938Y157199D01*
X131737Y156738D01*
X132337Y156578D01*
Y159250D01*
D02*
G37*
G36*
X420487Y163188D02*
X419513D01*
X418572Y162936D01*
X417728Y162449D01*
X417039Y161760D01*
X416552Y160916D01*
X416300Y159975D01*
Y159001D01*
X416552Y158060D01*
X417039Y157216D01*
X417728Y156527D01*
X418572Y156040D01*
X419513Y155788D01*
X420487D01*
X421428Y156040D01*
X422272Y156527D01*
X422961Y157216D01*
X423448Y158060D01*
X423700Y159001D01*
Y159975D01*
X423448Y160916D01*
X422961Y161760D01*
X422272Y162449D01*
X421428Y162936D01*
X420487Y163188D01*
D02*
G37*
G36*
X510487Y158188D02*
X509513D01*
X508572Y157936D01*
X507728Y157449D01*
X507039Y156760D01*
X506552Y155916D01*
X506300Y154975D01*
Y154001D01*
X506552Y153060D01*
X507039Y152216D01*
X507728Y151527D01*
X508572Y151040D01*
X509513Y150788D01*
X510487D01*
X511428Y151040D01*
X512272Y151527D01*
X512961Y152216D01*
X513448Y153060D01*
X513700Y154001D01*
Y154975D01*
X513448Y155916D01*
X512961Y156760D01*
X512272Y157449D01*
X511428Y157936D01*
X510487Y158188D01*
D02*
G37*
G36*
X47207Y153422D02*
Y150750D01*
X49879D01*
X49718Y151351D01*
X49257Y152149D01*
X48606Y152801D01*
X47808Y153261D01*
X47207Y153422D01*
D02*
G37*
G36*
X45707D02*
X45106Y153261D01*
X44308Y152801D01*
X43656Y152149D01*
X43195Y151351D01*
X43034Y150750D01*
X45707D01*
Y153422D01*
D02*
G37*
G36*
X49879Y149250D02*
X47207D01*
Y146578D01*
X47808Y146739D01*
X48606Y147199D01*
X49257Y147851D01*
X49718Y148649D01*
X49879Y149250D01*
D02*
G37*
G36*
X45707D02*
X43034D01*
X43195Y148649D01*
X43656Y147851D01*
X44308Y147199D01*
X45106Y146739D01*
X45707Y146578D01*
Y149250D01*
D02*
G37*
G36*
X439392Y148423D02*
Y145750D01*
X442064D01*
X441903Y146351D01*
X441442Y147149D01*
X440791Y147801D01*
X439993Y148261D01*
X439392Y148423D01*
D02*
G37*
G36*
X437892D02*
X437291Y148261D01*
X436493Y147801D01*
X435841Y147149D01*
X435380Y146351D01*
X435219Y145750D01*
X437892D01*
Y148423D01*
D02*
G37*
G36*
X108742D02*
Y145750D01*
X111415D01*
X111254Y146351D01*
X110793Y147149D01*
X110141Y147801D01*
X109343Y148261D01*
X108742Y148423D01*
D02*
G37*
G36*
X107242D02*
X106641Y148261D01*
X105843Y147801D01*
X105191Y147149D01*
X104731Y146351D01*
X104570Y145750D01*
X107242D01*
Y148423D01*
D02*
G37*
G36*
X442064Y144250D02*
X439392D01*
Y141577D01*
X439993Y141738D01*
X440791Y142199D01*
X441442Y142851D01*
X441903Y143649D01*
X442064Y144250D01*
D02*
G37*
G36*
X437892D02*
X435219D01*
X435380Y143649D01*
X435841Y142851D01*
X436493Y142199D01*
X437291Y141738D01*
X437892Y141577D01*
Y144250D01*
D02*
G37*
G36*
X111415D02*
X108742D01*
Y141577D01*
X109343Y141738D01*
X110141Y142199D01*
X110793Y142851D01*
X111254Y143649D01*
X111415Y144250D01*
D02*
G37*
G36*
X107242D02*
X104570D01*
X104731Y143649D01*
X105191Y142851D01*
X105843Y142199D01*
X106641Y141738D01*
X107242Y141577D01*
Y144250D01*
D02*
G37*
G36*
X420750Y137911D02*
Y135238D01*
X423422D01*
X423261Y135839D01*
X422801Y136637D01*
X422149Y137289D01*
X421351Y137750D01*
X420750Y137911D01*
D02*
G37*
G36*
X419250D02*
X418649Y137750D01*
X417851Y137289D01*
X417199Y136637D01*
X416739Y135839D01*
X416577Y135238D01*
X419250D01*
Y137911D01*
D02*
G37*
G36*
X305415D02*
Y135238D01*
X308088D01*
X307927Y135839D01*
X307466Y136637D01*
X306814Y137289D01*
X306016Y137750D01*
X305415Y137911D01*
D02*
G37*
G36*
X303915D02*
X303314Y137750D01*
X302516Y137289D01*
X301865Y136637D01*
X301404Y135839D01*
X301243Y135238D01*
X303915D01*
Y137911D01*
D02*
G37*
G36*
X423422Y133738D02*
X420750D01*
Y131066D01*
X421351Y131227D01*
X422149Y131687D01*
X422801Y132339D01*
X423261Y133137D01*
X423422Y133738D01*
D02*
G37*
G36*
X419250D02*
X416577D01*
X416739Y133137D01*
X417199Y132339D01*
X417851Y131687D01*
X418649Y131227D01*
X419250Y131066D01*
Y133738D01*
D02*
G37*
G36*
X308088D02*
X305415D01*
Y131066D01*
X306016Y131227D01*
X306814Y131687D01*
X307466Y132339D01*
X307927Y133137D01*
X308088Y133738D01*
D02*
G37*
G36*
X303915D02*
X301243D01*
X301404Y133137D01*
X301865Y132339D01*
X302516Y131687D01*
X303314Y131227D01*
X303915Y131066D01*
Y133738D01*
D02*
G37*
G36*
X510487Y133188D02*
X509513D01*
X508572Y132936D01*
X507728Y132449D01*
X507039Y131760D01*
X506552Y130916D01*
X506300Y129975D01*
Y129001D01*
X506552Y128060D01*
X507039Y127216D01*
X507728Y126527D01*
X508572Y126040D01*
X509513Y125788D01*
X510487D01*
X511428Y126040D01*
X512272Y126527D01*
X512961Y127216D01*
X513448Y128060D01*
X513700Y129001D01*
Y129975D01*
X513448Y130916D01*
X512961Y131760D01*
X512272Y132449D01*
X511428Y132936D01*
X510487Y133188D01*
D02*
G37*
G36*
X385573Y118838D02*
X384427D01*
X383321Y118541D01*
X382329Y117969D01*
X381520Y117159D01*
X380947Y116167D01*
X380650Y115061D01*
Y113916D01*
X380947Y112809D01*
X381520Y111818D01*
X382329Y111008D01*
X383321Y110435D01*
X384427Y110139D01*
X385573D01*
X386679Y110435D01*
X387671Y111008D01*
X388480Y111818D01*
X389053Y112809D01*
X389350Y113916D01*
Y115061D01*
X389053Y116167D01*
X388480Y117159D01*
X387671Y117969D01*
X386679Y118541D01*
X385573Y118838D01*
D02*
G37*
G36*
X125750Y108423D02*
Y105750D01*
X128422D01*
X128261Y106351D01*
X127801Y107149D01*
X127149Y107801D01*
X126351Y108262D01*
X125750Y108423D01*
D02*
G37*
G36*
X124250D02*
X123649Y108262D01*
X122851Y107801D01*
X122199Y107149D01*
X121739Y106351D01*
X121578Y105750D01*
X124250D01*
Y108423D01*
D02*
G37*
G36*
X128422Y104250D02*
X125750D01*
Y101577D01*
X126351Y101739D01*
X127149Y102199D01*
X127801Y102851D01*
X128261Y103649D01*
X128422Y104250D01*
D02*
G37*
G36*
X124250D02*
X121578D01*
X121739Y103649D01*
X122199Y102851D01*
X122851Y102199D01*
X123649Y101739D01*
X124250Y101577D01*
Y104250D01*
D02*
G37*
G36*
X510487Y108188D02*
X509513D01*
X508572Y107936D01*
X507728Y107449D01*
X507039Y106760D01*
X506552Y105916D01*
X506300Y104975D01*
Y104001D01*
X506552Y103060D01*
X507039Y102216D01*
X507728Y101527D01*
X508572Y101040D01*
X509513Y100788D01*
X510487D01*
X511428Y101040D01*
X512272Y101527D01*
X512961Y102216D01*
X513448Y103060D01*
X513700Y104001D01*
Y104975D01*
X513448Y105916D01*
X512961Y106760D01*
X512272Y107449D01*
X511428Y107936D01*
X510487Y108188D01*
D02*
G37*
G36*
X510750Y82911D02*
Y80238D01*
X513422D01*
X513262Y80839D01*
X512801Y81637D01*
X512149Y82289D01*
X511351Y82750D01*
X510750Y82911D01*
D02*
G37*
G36*
X509250D02*
X508649Y82750D01*
X507851Y82289D01*
X507199Y81637D01*
X506739Y80839D01*
X506577Y80238D01*
X509250D01*
Y82911D01*
D02*
G37*
G36*
X513422Y78738D02*
X510750D01*
Y76066D01*
X511351Y76227D01*
X512149Y76688D01*
X512801Y77339D01*
X513262Y78137D01*
X513422Y78738D01*
D02*
G37*
G36*
X509250D02*
X506577D01*
X506739Y78137D01*
X507199Y77339D01*
X507851Y76688D01*
X508649Y76227D01*
X509250Y76066D01*
Y78738D01*
D02*
G37*
G36*
X389150Y37929D02*
X385500D01*
Y34280D01*
X389150D01*
Y37929D01*
D02*
G37*
G36*
X384500D02*
X380850D01*
Y34280D01*
X384500D01*
Y37929D01*
D02*
G37*
G36*
X389150Y33280D02*
X385500D01*
Y29630D01*
X389150D01*
Y33280D01*
D02*
G37*
G36*
X384500D02*
X380850D01*
Y29630D01*
X384500D01*
Y33280D01*
D02*
G37*
%LPD*%
D14*
X580000Y705000D02*
G03*
X560826Y720000I-18924J-4435D01*
G01*
X227Y19994D02*
G03*
X20000Y0I19429J-560D01*
G01*
X15000Y720000D02*
G03*
X28Y700002I4435J-18924D01*
G01*
X565000Y0D02*
G03*
X580000Y19174I-4435J18924D01*
G01*
X580000Y705000D02*
X580000Y18924D01*
X35000Y720000D02*
X560000Y720000D01*
X15000Y720000D02*
X35000D01*
X-0Y700000D02*
X0Y20000D01*
X20000Y-0D02*
X565000Y-0D01*
D70*
X415000Y690000D02*
D03*
D71*
X385000Y33779D02*
D03*
D76*
X60000Y677972D02*
D03*
D83*
X375000Y640000D02*
D03*
X480000D02*
D03*
X438642Y145000D02*
D03*
X310000Y440000D02*
D03*
Y410000D02*
D03*
Y380000D02*
D03*
X440000Y495000D02*
D03*
X510000Y295000D02*
D03*
X454095Y373071D02*
D03*
X419016Y385984D02*
D03*
X455000Y575061D02*
D03*
X350000Y179488D02*
D03*
X420000Y194488D02*
D03*
Y204488D02*
D03*
X304665Y134488D02*
D03*
X305000Y179488D02*
D03*
X420000D02*
D03*
Y134488D02*
D03*
X510000Y79488D02*
D03*
X530000Y600768D02*
D03*
Y650768D02*
D03*
X330000Y515000D02*
D03*
X265000Y561142D02*
D03*
X520000Y625846D02*
D03*
X60000Y700000D02*
D03*
X416842Y485000D02*
D03*
X510000Y465000D02*
D03*
X325000Y690000D02*
D03*
X415000Y705000D02*
D03*
X125000Y105000D02*
D03*
X141260Y265000D02*
D03*
X107992Y145000D02*
D03*
X133087Y160000D02*
D03*
X46457Y150000D02*
D03*
X148740Y311142D02*
D03*
X127913Y300000D02*
D03*
X73543Y293858D02*
D03*
X50000Y345000D02*
D03*
M02*
