G04*
G04 #@! TF.GenerationSoftware,Altium Limited,Altium Designer,22.6.1 (34)*
G04*
G04 Layer_Color=8388736*
%FSLAX25Y25*%
%MOIN*%
G70*
G04*
G04 #@! TF.SameCoordinates,0C23EDBF-805D-421A-8D3F-8ECBED75DDC4*
G04*
G04*
G04 #@! TF.FilePolarity,Negative*
G04*
G01*
G75*
%ADD14C,0.01000*%
%ADD15R,0.01968X0.01378*%
%ADD16R,0.01378X0.01968*%
%ADD17R,0.09843X0.09843*%
%ADD19R,0.03543X0.05118*%
%ADD20R,0.03150X0.04134*%
%ADD22R,0.03937X0.05315*%
%ADD23R,0.04331X0.04921*%
%ADD25R,0.05512X0.03740*%
%ADD26R,0.05363X0.04755*%
%ADD27R,0.03150X0.02362*%
%ADD28R,0.04755X0.05363*%
%ADD29R,0.06102X0.03937*%
G04:AMPARAMS|DCode=30|XSize=71.82mil|YSize=24.33mil|CornerRadius=12.17mil|HoleSize=0mil|Usage=FLASHONLY|Rotation=180.000|XOffset=0mil|YOffset=0mil|HoleType=Round|Shape=RoundedRectangle|*
%AMROUNDEDRECTD30*
21,1,0.07182,0.00000,0,0,180.0*
21,1,0.04749,0.02433,0,0,180.0*
1,1,0.02433,-0.02375,0.00000*
1,1,0.02433,0.02375,0.00000*
1,1,0.02433,0.02375,0.00000*
1,1,0.02433,-0.02375,0.00000*
%
%ADD30ROUNDEDRECTD30*%
%ADD31R,0.07182X0.02433*%
%ADD32R,0.03740X0.05512*%
%ADD35R,0.07087X0.03937*%
%ADD38R,0.03740X0.05315*%
%ADD40R,0.02402X0.05000*%
%ADD41R,0.05000X0.02402*%
G04:AMPARAMS|DCode=42|XSize=47.45mil|YSize=20.95mil|CornerRadius=10.48mil|HoleSize=0mil|Usage=FLASHONLY|Rotation=0.000|XOffset=0mil|YOffset=0mil|HoleType=Round|Shape=RoundedRectangle|*
%AMROUNDEDRECTD42*
21,1,0.04745,0.00000,0,0,0.0*
21,1,0.02650,0.02095,0,0,0.0*
1,1,0.02095,0.01325,0.00000*
1,1,0.02095,-0.01325,0.00000*
1,1,0.02095,-0.01325,0.00000*
1,1,0.02095,0.01325,0.00000*
%
%ADD42ROUNDEDRECTD42*%
%ADD43R,0.04745X0.02095*%
%ADD50R,0.05315X0.03740*%
%ADD51R,0.09843X0.06693*%
%ADD53R,0.02717X0.03898*%
%ADD54R,0.04934X0.06509*%
%ADD55R,0.15761X0.08792*%
%ADD56R,0.03600X0.02800*%
%ADD57R,0.02800X0.03600*%
%ADD58R,0.06115X0.04737*%
%ADD59R,0.05328X0.06115*%
%ADD60R,0.03950X0.05721*%
%ADD61R,0.05131X0.05524*%
%ADD62R,0.05524X0.02178*%
%ADD63R,0.09068X0.06312*%
%ADD64R,0.04737X0.03556*%
%ADD65R,0.03162X0.03556*%
%ADD66R,0.05524X0.05131*%
%ADD67R,0.06902X0.06115*%
%ADD68R,0.04737X0.06115*%
%ADD69R,0.05721X0.03950*%
%ADD70C,0.06299*%
%ADD71R,0.06299X0.06299*%
%ADD72C,0.10800*%
%ADD73C,0.07099*%
%ADD74R,0.07099X0.07099*%
%ADD75C,0.12598*%
%ADD76C,0.09646*%
%ADD77R,0.09646X0.09646*%
%ADD78C,0.05800*%
D14*
X580000Y705000D02*
G03*
X560826Y720000I-18924J-4435D01*
G01*
X227Y19994D02*
G03*
X20000Y0I19429J-560D01*
G01*
X15000Y720000D02*
G03*
X28Y700002I4435J-18924D01*
G01*
X565000Y0D02*
G03*
X580000Y19174I-4435J18924D01*
G01*
X580000Y705000D02*
X580000Y18924D01*
X35000Y720000D02*
X560000Y720000D01*
X15000Y720000D02*
X35000D01*
X-0Y700000D02*
X0Y20000D01*
X20000Y-0D02*
X565000Y-0D01*
D15*
X411929Y390905D02*
D03*
Y388937D02*
D03*
Y386968D02*
D03*
Y385000D02*
D03*
Y383032D02*
D03*
Y381063D02*
D03*
X426102D02*
D03*
Y383032D02*
D03*
Y385000D02*
D03*
Y386968D02*
D03*
Y388937D02*
D03*
Y390905D02*
D03*
D16*
X414094Y378898D02*
D03*
X416063D02*
D03*
X418032D02*
D03*
X420000D02*
D03*
X421969D02*
D03*
X423937D02*
D03*
Y393071D02*
D03*
X421969D02*
D03*
X420000D02*
D03*
X418032D02*
D03*
X416063D02*
D03*
X414094D02*
D03*
D17*
X419016Y385984D02*
D03*
D19*
X449646Y395984D02*
D03*
X441378D02*
D03*
X419882Y360984D02*
D03*
X428150D02*
D03*
D20*
X447657Y370984D02*
D03*
X440374D02*
D03*
D22*
X323937Y224488D02*
D03*
X316063D02*
D03*
D23*
X315079Y204488D02*
D03*
X324921D02*
D03*
D25*
X395000Y130847D02*
D03*
Y138130D02*
D03*
D26*
X410000Y134488D02*
D03*
Y140805D02*
D03*
D27*
X430000Y199488D02*
D03*
Y193976D02*
D03*
D28*
X436316Y164488D02*
D03*
X430000D02*
D03*
X416842Y495000D02*
D03*
X423158D02*
D03*
D29*
X325335Y143189D02*
D03*
X304665D02*
D03*
X325335Y155787D02*
D03*
X304665D02*
D03*
D30*
X316220Y179488D02*
D03*
X323780Y183228D02*
D03*
D31*
Y175748D02*
D03*
D32*
X431358Y154488D02*
D03*
X438642D02*
D03*
X443642Y505000D02*
D03*
X436358D02*
D03*
D35*
X550000Y620846D02*
D03*
Y630689D02*
D03*
D38*
X500370Y665846D02*
D03*
X494465D02*
D03*
Y695846D02*
D03*
X500370D02*
D03*
X494465Y640846D02*
D03*
X500370D02*
D03*
X494465Y610846D02*
D03*
X500370D02*
D03*
D40*
X400157Y585083D02*
D03*
X403701D02*
D03*
X407244D02*
D03*
X410787D02*
D03*
X414370D02*
D03*
X417913D02*
D03*
X421457D02*
D03*
X425000D02*
D03*
X428543D02*
D03*
X432087D02*
D03*
X435669D02*
D03*
X439213D02*
D03*
X442756D02*
D03*
X446299D02*
D03*
X449843D02*
D03*
D41*
X398941Y637008D02*
D03*
Y633465D02*
D03*
Y629921D02*
D03*
Y626378D02*
D03*
Y622795D02*
D03*
Y619252D02*
D03*
Y615709D02*
D03*
Y612165D02*
D03*
Y608622D02*
D03*
Y605079D02*
D03*
Y601496D02*
D03*
Y597953D02*
D03*
Y594410D02*
D03*
Y590866D02*
D03*
X451059D02*
D03*
Y594410D02*
D03*
Y597953D02*
D03*
Y601496D02*
D03*
Y605079D02*
D03*
Y608622D02*
D03*
Y612165D02*
D03*
Y615709D02*
D03*
Y619252D02*
D03*
Y622795D02*
D03*
Y626378D02*
D03*
Y629921D02*
D03*
Y633465D02*
D03*
Y637008D02*
D03*
D42*
X176695Y258740D02*
D03*
Y251260D02*
D03*
X168423D02*
D03*
Y255000D02*
D03*
X169136Y285039D02*
D03*
Y277559D02*
D03*
X160864D02*
D03*
Y281299D02*
D03*
D43*
X168423Y258740D02*
D03*
X160864Y285039D02*
D03*
D50*
X46457Y156142D02*
D03*
Y162047D02*
D03*
X73543Y302047D02*
D03*
Y307953D02*
D03*
D51*
X42126Y360000D02*
D03*
X57874D02*
D03*
X367126Y690000D02*
D03*
X382874D02*
D03*
D53*
X53740Y324902D02*
D03*
X50000D02*
D03*
X46260D02*
D03*
Y335098D02*
D03*
X50000D02*
D03*
X53740D02*
D03*
D54*
X443386Y380984D02*
D03*
X449094D02*
D03*
D55*
X525906Y351929D02*
D03*
Y321299D02*
D03*
X525000Y295000D02*
D03*
Y425000D02*
D03*
Y400000D02*
D03*
Y375644D02*
D03*
Y79488D02*
D03*
Y254488D02*
D03*
Y229488D02*
D03*
Y204488D02*
D03*
Y179488D02*
D03*
Y155374D02*
D03*
Y104488D02*
D03*
Y129488D02*
D03*
X290000Y380000D02*
D03*
X525000Y465000D02*
D03*
Y490000D02*
D03*
Y515000D02*
D03*
Y540000D02*
D03*
X85000Y270000D02*
D03*
X312283Y649134D02*
D03*
X65000Y195000D02*
D03*
X125000Y190000D02*
D03*
X150000Y145000D02*
D03*
X165000Y300000D02*
D03*
X141260Y340000D02*
D03*
X90000Y345000D02*
D03*
X25000Y360000D02*
D03*
X290000Y440000D02*
D03*
Y410000D02*
D03*
D56*
X359400Y204488D02*
D03*
Y199488D02*
D03*
Y194488D02*
D03*
Y189488D02*
D03*
Y184488D02*
D03*
Y174488D02*
D03*
Y169488D02*
D03*
Y164488D02*
D03*
Y159488D02*
D03*
Y154488D02*
D03*
X410600D02*
D03*
Y159488D02*
D03*
Y164488D02*
D03*
Y169488D02*
D03*
Y174488D02*
D03*
Y184488D02*
D03*
Y189488D02*
D03*
Y194488D02*
D03*
Y199488D02*
D03*
Y204488D02*
D03*
D57*
X360200Y179488D02*
D03*
X409800D02*
D03*
D58*
X325000Y597953D02*
D03*
Y605039D02*
D03*
X195000Y251457D02*
D03*
Y258543D02*
D03*
Y277756D02*
D03*
Y284842D02*
D03*
D59*
X550000Y600768D02*
D03*
X544291D02*
D03*
X550000Y650768D02*
D03*
X544291D02*
D03*
D60*
X308150Y515000D02*
D03*
X301850D02*
D03*
X305984Y612165D02*
D03*
X312283D02*
D03*
D61*
X310118Y540000D02*
D03*
X301850D02*
D03*
X304016Y633465D02*
D03*
X312283D02*
D03*
D62*
X419095Y510000D02*
D03*
Y507441D02*
D03*
Y504882D02*
D03*
X425000Y510000D02*
D03*
Y507441D02*
D03*
Y504882D02*
D03*
D63*
X315000Y690000D02*
D03*
X279173D02*
D03*
X315000Y672284D02*
D03*
X279173D02*
D03*
X72087Y156142D02*
D03*
X107913D02*
D03*
X72087Y173858D02*
D03*
X107913D02*
D03*
X92087Y306713D02*
D03*
X127913D02*
D03*
X92087Y324429D02*
D03*
X127913D02*
D03*
X312913Y578858D02*
D03*
X277087D02*
D03*
X312913Y561142D02*
D03*
X277087D02*
D03*
D64*
X131906Y173937D02*
D03*
X147953Y324590D02*
D03*
D65*
X125213Y173937D02*
D03*
Y166063D02*
D03*
X132694D02*
D03*
X141260Y324590D02*
D03*
Y316716D02*
D03*
X148740D02*
D03*
D66*
X125000Y124134D02*
D03*
Y115866D02*
D03*
X141260Y299134D02*
D03*
Y290866D02*
D03*
D67*
X125000Y143839D02*
D03*
Y136161D02*
D03*
D68*
X53543Y175000D02*
D03*
X46457D02*
D03*
X73543Y324310D02*
D03*
X66457D02*
D03*
D69*
X141260Y281299D02*
D03*
Y275000D02*
D03*
D70*
X385000Y114488D02*
D03*
D71*
Y33779D02*
D03*
D72*
Y254488D02*
D03*
X375000Y264488D02*
D03*
X395000D02*
D03*
Y244488D02*
D03*
X375000D02*
D03*
D73*
X425000Y690000D02*
D03*
X415000D02*
D03*
X435000D02*
D03*
X445000D02*
D03*
D74*
X405000D02*
D03*
D75*
X135984Y643937D02*
D03*
Y425000D02*
D03*
X211968D02*
D03*
Y643937D02*
D03*
X60000D02*
D03*
Y425000D02*
D03*
D76*
X135984Y677972D02*
D03*
Y390965D02*
D03*
X211968Y677972D02*
D03*
Y390965D02*
D03*
X60000Y677972D02*
D03*
D77*
Y390965D02*
D03*
D78*
X375000Y640000D02*
D03*
X480000D02*
D03*
X370879Y510000D02*
D03*
X430000Y495000D02*
D03*
X495000Y625846D02*
D03*
X438642Y145000D02*
D03*
X310000Y440000D02*
D03*
Y410000D02*
D03*
Y380000D02*
D03*
X475000Y525000D02*
D03*
X465000D02*
D03*
X455000D02*
D03*
X465000Y505000D02*
D03*
X455000D02*
D03*
X440000Y495000D02*
D03*
X385866Y530000D02*
D03*
X420000D02*
D03*
X395000Y405000D02*
D03*
X475000Y505000D02*
D03*
X430000Y520000D02*
D03*
X510000Y295000D02*
D03*
X454095Y373071D02*
D03*
X419016Y385984D02*
D03*
X409094Y370492D02*
D03*
X434016Y380984D02*
D03*
X404016Y378898D02*
D03*
Y386684D02*
D03*
X429171Y370706D02*
D03*
X419016Y370492D02*
D03*
X510906Y321929D02*
D03*
X510079Y399787D02*
D03*
X510000Y375644D02*
D03*
X510906Y351929D02*
D03*
X510000Y425317D02*
D03*
X425000Y575061D02*
D03*
X435000Y575000D02*
D03*
X455000Y575061D02*
D03*
X415000D02*
D03*
X395000Y575000D02*
D03*
X405000Y575061D02*
D03*
X445000D02*
D03*
X323780Y234488D02*
D03*
X340000Y194488D02*
D03*
Y185000D02*
D03*
X350000Y194488D02*
D03*
Y179488D02*
D03*
X420000Y194488D02*
D03*
Y204488D02*
D03*
X304665Y134488D02*
D03*
X330000Y164488D02*
D03*
X320000D02*
D03*
X305000Y179488D02*
D03*
X420000D02*
D03*
Y159488D02*
D03*
X435000Y189488D02*
D03*
X420000Y134488D02*
D03*
X510000Y254488D02*
D03*
Y79488D02*
D03*
Y104488D02*
D03*
Y129488D02*
D03*
Y154488D02*
D03*
Y179488D02*
D03*
Y204488D02*
D03*
Y229488D02*
D03*
X355000Y605079D02*
D03*
X340000D02*
D03*
X475000Y610000D02*
D03*
X530000Y600768D02*
D03*
Y650768D02*
D03*
X330000Y515000D02*
D03*
Y540000D02*
D03*
X375000Y590866D02*
D03*
Y612165D02*
D03*
X265000Y561142D02*
D03*
X520000Y625846D02*
D03*
X60000Y700000D02*
D03*
X416842Y485000D02*
D03*
X510000Y465000D02*
D03*
Y490000D02*
D03*
Y515000D02*
D03*
Y540000D02*
D03*
X325000Y690000D02*
D03*
X207596Y277756D02*
D03*
X280000Y660000D02*
D03*
X350000Y690000D02*
D03*
X415000Y705000D02*
D03*
X405000D02*
D03*
X445000D02*
D03*
X435000D02*
D03*
X425000D02*
D03*
X210000Y250000D02*
D03*
X325000Y612165D02*
D03*
X320000Y633465D02*
D03*
X176809Y235000D02*
D03*
X185000Y259038D02*
D03*
X180000Y285039D02*
D03*
X135000Y180000D02*
D03*
X63795Y306713D02*
D03*
X55000D02*
D03*
X63795Y315000D02*
D03*
X44301Y215000D02*
D03*
X35000D02*
D03*
X44301Y205000D02*
D03*
X125000Y105000D02*
D03*
X141260Y265000D02*
D03*
X107992Y145000D02*
D03*
X133087Y160000D02*
D03*
X46457Y150000D02*
D03*
X35000Y205000D02*
D03*
X148740Y311142D02*
D03*
X155000Y330000D02*
D03*
X127913Y300000D02*
D03*
X73543Y293858D02*
D03*
X55000Y315000D02*
D03*
X50000Y345000D02*
D03*
M02*
