G04*
G04 #@! TF.GenerationSoftware,Altium Limited,Altium Designer,22.6.1 (34)*
G04*
G04 Layer_Color=65535*
%FSLAX25Y25*%
%MOIN*%
G70*
G04*
G04 #@! TF.SameCoordinates,0C23EDBF-805D-421A-8D3F-8ECBED75DDC4*
G04*
G04*
G04 #@! TF.FilePolarity,Positive*
G04*
G01*
G75*
%ADD10C,0.00984*%
%ADD11C,0.00787*%
%ADD12C,0.00600*%
%ADD13C,0.00100*%
%ADD14C,0.01000*%
D10*
X408287Y391004D02*
G03*
X408287Y391004I-492J0D01*
G01*
X329941Y204488D02*
G03*
X329941Y204488I-492J0D01*
G01*
X299941Y155886D02*
G03*
X299941Y155886I-492J0D01*
G01*
X415059Y510000D02*
G03*
X415059Y510000I-492J0D01*
G01*
X456299Y636949D02*
G03*
X456299Y636949I-492J0D01*
G01*
X163885Y258839D02*
G03*
X163885Y258839I-492J0D01*
G01*
X315492Y667362D02*
G03*
X315492Y667362I-492J0D01*
G01*
X72579Y178779D02*
G03*
X72579Y178779I-492J0D01*
G01*
X156326Y285138D02*
G03*
X156326Y285138I-492J0D01*
G01*
X60492Y378169D02*
G03*
X60492Y378169I-492J0D01*
G01*
X35531Y360000D02*
G03*
X35531Y360000I-492J0D01*
G01*
X92579Y329350D02*
G03*
X92579Y329350I-492J0D01*
G01*
X54311Y339350D02*
G03*
X54311Y339350I-492J0D01*
G01*
X360531Y690000D02*
G03*
X360531Y690000I-492J0D01*
G01*
X277579Y583779D02*
G03*
X277579Y583779I-492J0D01*
G01*
D11*
X390118Y32205D02*
G03*
X392874Y110551I-5305J39408D01*
G01*
X377126Y110551D02*
G03*
X379882Y32205I8061J-38938D01*
G01*
X131972Y176386D02*
G03*
X131972Y176386I-117J0D01*
G01*
X148018Y327039D02*
G03*
X148018Y327039I-117J0D01*
G01*
X410945Y394055D02*
X411929D01*
X426102D02*
X427087D01*
Y377913D02*
Y378898D01*
Y393071D02*
Y394055D01*
X410945Y377913D02*
X411929D01*
X426102D02*
X427087D01*
X410945D02*
Y378898D01*
Y393071D02*
Y394055D01*
X444626Y393327D02*
X446398D01*
X444626Y398642D02*
X446398D01*
X443425Y368130D02*
X444606D01*
X443425Y373839D02*
X444606D01*
X423130Y363642D02*
X424902D01*
X423130Y358327D02*
X424902D01*
X382933Y121673D02*
X387067D01*
X385000Y119606D02*
Y123740D01*
X392874Y110551D02*
Y116850D01*
X377126Y110551D02*
Y116850D01*
X399567Y249220D02*
Y259756D01*
X379732Y239921D02*
X390268D01*
X370433Y249220D02*
Y259756D01*
X379732Y269055D02*
X390268D01*
X319508Y221732D02*
X320492D01*
X319508Y227244D02*
X320492D01*
X318721Y207146D02*
X321280D01*
X318721Y201831D02*
X321280D01*
X392146Y134193D02*
Y134783D01*
X397854Y134193D02*
Y134783D01*
X414256Y132111D02*
Y143182D01*
X405744Y132111D02*
Y143182D01*
X433098Y193395D02*
Y200285D01*
X426949Y193484D02*
Y200374D01*
X427623Y168744D02*
X438694D01*
X427623Y160232D02*
X438694D01*
X306142Y146634D02*
Y152342D01*
X309193Y140630D02*
X320807D01*
X323858Y146634D02*
Y152342D01*
X309193Y158346D02*
X320807D01*
X322559Y178441D02*
Y180535D01*
X317441Y185197D02*
X318713D01*
X317441Y173779D02*
Y176795D01*
Y182181D02*
Y185197D01*
Y173779D02*
X318713D01*
X434705Y157343D02*
X435295D01*
X434705Y151634D02*
X435295D01*
X322736Y601102D02*
Y601890D01*
X327264Y601102D02*
Y601890D01*
X544882Y619468D02*
Y632067D01*
X555118Y619468D02*
Y632067D01*
X304606Y512933D02*
X305394D01*
X304606Y517067D02*
X305394D01*
X305394Y538031D02*
Y541968D01*
Y538031D02*
X306575D01*
X305394Y541968D02*
X306575D01*
X493066Y661584D02*
X501727D01*
X493087Y670079D02*
X501748D01*
X417913Y512264D02*
Y512362D01*
Y502520D02*
Y502618D01*
X426181Y512264D02*
Y512362D01*
Y502520D02*
Y502618D01*
X417913Y512362D02*
X426181D01*
X417913Y502520D02*
X426181D01*
X439705Y502146D02*
X440295D01*
X439705Y507854D02*
X440295D01*
X414464Y490744D02*
X425536D01*
X414464Y499256D02*
X425536D01*
X397146Y583287D02*
Y588189D01*
X452520Y583287D02*
X452854D01*
X397146D02*
X397480D01*
X452854D02*
Y588189D01*
X450591Y684705D02*
Y695295D01*
X399410D02*
X450591D01*
X399410Y684705D02*
Y695295D01*
Y684705D02*
X450591D01*
X308740Y614232D02*
X309528D01*
X308740Y610098D02*
X309528D01*
X308740Y631496D02*
Y635433D01*
X307559D02*
X308740D01*
X307559Y631496D02*
X308740D01*
X192736Y254606D02*
Y255394D01*
X197264Y254606D02*
Y255394D01*
X172764Y249291D02*
Y260709D01*
X172354Y249291D02*
X172764D01*
X172354D02*
Y260709D01*
X172764D01*
X192736Y280906D02*
Y281693D01*
X197264Y280906D02*
Y281693D01*
X308898Y669331D02*
Y692953D01*
X285276Y669331D02*
Y692953D01*
X308898D01*
X285276Y669331D02*
X308898D01*
X78189Y153189D02*
Y176811D01*
X101811Y153189D02*
Y176811D01*
X78189Y153189D02*
X101811D01*
X78189Y176811D02*
X101811D01*
X165205Y275590D02*
Y287008D01*
X164795Y275590D02*
X165205D01*
X164795D02*
Y287008D01*
X165205D01*
X134662Y167441D02*
Y172559D01*
X123245Y167441D02*
Y172559D01*
X127379Y167441D02*
X130528D01*
X123031Y119409D02*
X126969D01*
Y120591D01*
X123031Y119409D02*
Y120591D01*
X49606Y172736D02*
X50394D01*
X49606Y177264D02*
X50394D01*
X42224Y154764D02*
Y163425D01*
X50689Y154764D02*
Y163425D01*
X17500Y380532D02*
X254468D01*
Y688406D01*
X17500D02*
X254468D01*
X17500Y380532D02*
Y688406D01*
X40945Y365748D02*
X59055D01*
Y354252D02*
Y355177D01*
Y364823D02*
Y365748D01*
X40945Y354252D02*
X59055D01*
X40945D02*
Y355177D01*
Y364823D02*
Y365748D01*
X143327Y277756D02*
Y278543D01*
X139193Y277756D02*
Y278543D01*
X139291Y294409D02*
X143228D01*
Y295590D01*
X139291Y294409D02*
Y295590D01*
X150709Y318094D02*
Y323212D01*
X139291Y318094D02*
Y323212D01*
X143425Y318094D02*
X146575D01*
X98189Y303760D02*
Y327382D01*
X121811Y303760D02*
Y327382D01*
X98189Y303760D02*
X121811D01*
X98189Y327382D02*
X121811D01*
X69606Y322046D02*
X70394D01*
X69606Y326574D02*
X70394D01*
X69311Y300669D02*
Y309331D01*
X77776Y300669D02*
Y309331D01*
X44094Y328327D02*
Y331673D01*
X55905Y328327D02*
Y331673D01*
X365945Y695748D02*
X384055D01*
Y684252D02*
Y685177D01*
Y694823D02*
Y695748D01*
X365945Y684252D02*
X384055D01*
X365945D02*
Y685177D01*
Y694823D02*
Y695748D01*
X283189Y581811D02*
X306811D01*
X283189Y558189D02*
X306811D01*
Y581811D01*
X283189Y558189D02*
Y581811D01*
X493087Y700079D02*
X501748D01*
X493066Y691584D02*
X501727D01*
X493087Y645079D02*
X501748D01*
X493087Y636614D02*
X501748D01*
X493087Y615079D02*
X501748D01*
X493087Y606614D02*
X501748D01*
D12*
X353400Y204488D02*
G03*
X353400Y204488I-500J0D01*
G01*
X358900Y149438D02*
X411100D01*
Y151778D01*
X358900Y209538D02*
X411100D01*
X358900Y207198D02*
Y209538D01*
Y149438D02*
Y151778D01*
X411100Y207198D02*
Y209538D01*
X451066Y700999D02*
X448400D01*
Y698999D01*
X449733Y699666D01*
X450399D01*
X451066Y698999D01*
Y697666D01*
X450399Y697000D01*
X449066D01*
X448400Y697666D01*
X400200Y697100D02*
X401533D01*
X400866D01*
Y701099D01*
X400200Y700432D01*
D13*
X32850Y14600D02*
X46250D01*
X69450D02*
X78350D01*
X54450D02*
X57150D01*
X81850D02*
X84750D01*
X106550Y14700D02*
X113550D01*
X92550D02*
X95050D01*
X82050D02*
X84450D01*
X69750D02*
X78150D01*
X54550D02*
X56850D01*
X32950D02*
X46050D01*
X106750Y14800D02*
X113550D01*
X92850D02*
X94950D01*
X82150D02*
X84250D01*
X69950D02*
X77950D01*
X54650D02*
X56650D01*
X33050D02*
X45850D01*
X106850Y14900D02*
X113550D01*
X93050D02*
X94850D01*
X82250D02*
X84050D01*
X70050D02*
X77850D01*
X54750D02*
X56450D01*
X33050D02*
X45650D01*
X107050Y15000D02*
X113550D01*
X93150D02*
X94750D01*
X82350D02*
X83850D01*
X70150D02*
X77750D01*
X54850D02*
X56250D01*
X33050D02*
X45550D01*
X107150Y15100D02*
X113550D01*
X93350D02*
X94750D01*
X82350D02*
X83750D01*
X70250D02*
X77650D01*
X54950D02*
X56150D01*
X33150D02*
X45350D01*
X107250Y15200D02*
X113550D01*
X93450D02*
X94650D01*
X82450D02*
X83650D01*
X70350D02*
X77550D01*
X54950D02*
X55950D01*
X33150D02*
X45250D01*
X107350Y15300D02*
X113550D01*
X93550D02*
X94650D01*
X82450D02*
X83550D01*
X70450D02*
X77450D01*
X54950D02*
X55850D01*
X33150D02*
X45150D01*
X107450Y15400D02*
X113550D01*
X93650D02*
X94650D01*
X82550D02*
X83350D01*
X70550D02*
X77350D01*
X55050D02*
X55750D01*
X33150D02*
X45050D01*
X107450Y15500D02*
X113550D01*
X93750D02*
X94550D01*
X82550D02*
X83250D01*
X70650D02*
X77250D01*
X55050D02*
X55650D01*
X33150D02*
X44950D01*
X107550Y15600D02*
X113550D01*
X93850D02*
X94550D01*
X82550D02*
X83150D01*
X70750D02*
X77150D01*
X55050D02*
X55550D01*
X33150D02*
X44850D01*
X107550Y15700D02*
X113550D01*
X93950D02*
X94550D01*
X82550D02*
X83150D01*
X70850D02*
X77050D01*
X55150D02*
X55450D01*
X33150D02*
X44750D01*
X107650Y15800D02*
X113550D01*
X94050D02*
X94550D01*
X82550D02*
X83050D01*
X71050D02*
X76950D01*
X55150D02*
X55350D01*
X33150D02*
X44650D01*
X107650Y15900D02*
X113550D01*
X94150D02*
X94550D01*
X82550D02*
X82950D01*
X71150D02*
X76850D01*
X55150D02*
X55250D01*
X33150D02*
X44550D01*
X107750Y16000D02*
X113550D01*
X94250D02*
X94550D01*
X82550D02*
X82850D01*
X71250D02*
X76750D01*
X55150D02*
X55250D01*
X33150D02*
X44550D01*
X107750Y16100D02*
X113550D01*
X94250D02*
X94550D01*
X82550D02*
X82750D01*
X71350D02*
X76650D01*
X33150D02*
X44450D01*
X107750Y16200D02*
X113550D01*
X94350D02*
X94550D01*
X82550D02*
X82750D01*
X71450D02*
X76550D01*
X33150D02*
X44350D01*
X107750Y16300D02*
X113550D01*
X94450D02*
X94550D01*
X82550D02*
X82650D01*
X71550D02*
X76450D01*
X33150D02*
X44350D01*
X107750Y16400D02*
X113550D01*
X94450D02*
X94650D01*
X82550D02*
X82650D01*
X71650D02*
X76350D01*
X33150D02*
X44250D01*
X107850Y16500D02*
X113550D01*
X94550D02*
X94650D01*
X82450D02*
X82550D01*
X71750D02*
X76250D01*
X33150D02*
X44250D01*
X107850Y16600D02*
X113550D01*
X94550D02*
X94650D01*
X82450D02*
X82550D01*
X71850D02*
X76150D01*
X33150D02*
X44150D01*
X107850Y16700D02*
X113550D01*
X94650D02*
X94750D01*
X82350D02*
X82450D01*
X71950D02*
X76050D01*
X33150D02*
X44150D01*
X107850Y16800D02*
X113550D01*
X94650D02*
X94750D01*
X82350D02*
X82450D01*
X72050D02*
X75950D01*
X33150D02*
X44150D01*
X107850Y16900D02*
X113550D01*
X94650D02*
X94850D01*
X82250D02*
X82450D01*
X72250D02*
X75850D01*
X33150D02*
X44050D01*
X107750Y17000D02*
X113550D01*
X94750D02*
X94950D01*
X82150D02*
X82450D01*
X72350D02*
X75750D01*
X33150D02*
X44050D01*
X107750Y17100D02*
X113550D01*
X94750D02*
X95050D01*
X82050D02*
X82350D01*
X72450D02*
X75650D01*
X54550D02*
X54750D01*
X33150D02*
X44050D01*
X107750Y17200D02*
X113550D01*
X94750D02*
X95150D01*
X81950D02*
X82350D01*
X72550D02*
X75550D01*
X54450D02*
X54750D01*
X33150D02*
X44050D01*
X107750Y17300D02*
X113550D01*
X94750D02*
X95350D01*
X81750D02*
X82350D01*
X72650D02*
X75550D01*
X54250D02*
X54750D01*
X33150D02*
X43950D01*
X107750Y17400D02*
X113550D01*
X94850D02*
X95650D01*
X81350D02*
X82350D01*
X72750D02*
X75450D01*
X54050D02*
X54750D01*
X33150D02*
X43950D01*
X107650Y17500D02*
X113550D01*
X94850D02*
X102850D01*
X85750D02*
X91350D01*
X79950D02*
X82350D01*
X72850D02*
X75350D01*
X58350D02*
X60850D01*
X47450D02*
X54750D01*
X33150D02*
X43950D01*
X107650Y17600D02*
X113550D01*
X94850D02*
X103050D01*
X85650D02*
X91450D01*
X79650D02*
X82250D01*
X72950D02*
X75250D01*
X58150D02*
X68350D01*
X47350D02*
X54750D01*
X33150D02*
X43950D01*
X107550Y17700D02*
X113550D01*
X94850D02*
X102950D01*
X85550D02*
X91550D01*
X79550D02*
X82250D01*
X73050D02*
X75150D01*
X58050D02*
X68550D01*
X47350D02*
X54750D01*
X33150D02*
X43950D01*
X107550Y17800D02*
X113550D01*
X94850D02*
X102850D01*
X85550D02*
X91550D01*
X79450D02*
X82250D01*
X73150D02*
X75050D01*
X57950D02*
X68750D01*
X47250D02*
X54650D01*
X33150D02*
X43950D01*
X107450Y17900D02*
X113550D01*
X94850D02*
X102750D01*
X85550D02*
X91550D01*
X79350D02*
X82250D01*
X73250D02*
X74950D01*
X57950D02*
X68850D01*
X47250D02*
X54650D01*
X33150D02*
X43950D01*
X107350Y18000D02*
X113550D01*
X94850D02*
X102650D01*
X85550D02*
X91550D01*
X79250D02*
X82250D01*
X73450D02*
X74850D01*
X57950D02*
X68950D01*
X47250D02*
X54650D01*
X33150D02*
X43950D01*
X107250Y18100D02*
X113550D01*
X94850D02*
X102550D01*
X85550D02*
X91550D01*
X79050D02*
X82250D01*
X73550D02*
X74750D01*
X57950D02*
X69150D01*
X47250D02*
X54650D01*
X33150D02*
X43950D01*
X107150Y18200D02*
X113550D01*
X94850D02*
X102450D01*
X85450D02*
X91650D01*
X78950D02*
X82250D01*
X73650D02*
X74650D01*
X57950D02*
X69250D01*
X47250D02*
X54650D01*
X39550D02*
X43950D01*
X33150D02*
X38250D01*
X107050Y18300D02*
X113550D01*
X94850D02*
X102350D01*
X85450D02*
X91650D01*
X78850D02*
X82250D01*
X73750D02*
X74550D01*
X57950D02*
X69350D01*
X47250D02*
X54650D01*
X40250D02*
X43950D01*
X33150D02*
X34750D01*
X106950Y18400D02*
X113550D01*
X94850D02*
X102250D01*
X85450D02*
X91650D01*
X78750D02*
X82250D01*
X73850D02*
X74450D01*
X57950D02*
X69450D01*
X47250D02*
X54650D01*
X40650D02*
X43950D01*
X33150D02*
X34550D01*
X106850Y18500D02*
X113550D01*
X94850D02*
X102050D01*
X85450D02*
X91650D01*
X78650D02*
X82250D01*
X73950D02*
X74350D01*
X57950D02*
X69550D01*
X47250D02*
X54650D01*
X40950D02*
X43950D01*
X33150D02*
X34450D01*
X106750Y18600D02*
X113550D01*
X94850D02*
X101950D01*
X85450D02*
X91650D01*
X78550D02*
X82250D01*
X74050D02*
X74250D01*
X57950D02*
X69650D01*
X47250D02*
X54650D01*
X41150D02*
X43950D01*
X33150D02*
X34350D01*
X106550Y18700D02*
X113550D01*
X94850D02*
X101850D01*
X85450D02*
X91650D01*
X78450D02*
X82250D01*
X57950D02*
X69750D01*
X47250D02*
X54650D01*
X41450D02*
X43950D01*
X33150D02*
X34250D01*
X106450Y18800D02*
X113550D01*
X94850D02*
X101750D01*
X85450D02*
X91650D01*
X78350D02*
X82250D01*
X57950D02*
X69850D01*
X47250D02*
X54650D01*
X41550D02*
X43950D01*
X33150D02*
X34150D01*
X106350Y18900D02*
X113550D01*
X94850D02*
X101650D01*
X85450D02*
X91650D01*
X78250D02*
X82250D01*
X57950D02*
X69950D01*
X47250D02*
X54650D01*
X41750D02*
X43950D01*
X33150D02*
X34050D01*
X106250Y19000D02*
X113550D01*
X94850D02*
X101550D01*
X85450D02*
X91650D01*
X78150D02*
X82250D01*
X57950D02*
X70050D01*
X47250D02*
X54650D01*
X41850D02*
X43950D01*
X33150D02*
X33950D01*
X106150Y19100D02*
X113550D01*
X94850D02*
X101450D01*
X85450D02*
X91650D01*
X78050D02*
X82250D01*
X57950D02*
X70250D01*
X47250D02*
X54650D01*
X42050D02*
X43950D01*
X33150D02*
X33950D01*
X106050Y19200D02*
X113550D01*
X94850D02*
X101250D01*
X85450D02*
X91650D01*
X77950D02*
X82250D01*
X57950D02*
X70350D01*
X47250D02*
X54650D01*
X42150D02*
X43950D01*
X33150D02*
X33950D01*
X105950Y19300D02*
X113550D01*
X94850D02*
X101150D01*
X85450D02*
X91650D01*
X77850D02*
X82250D01*
X57950D02*
X70450D01*
X47250D02*
X54650D01*
X42250D02*
X43950D01*
X33150D02*
X33850D01*
X105750Y19400D02*
X113550D01*
X94850D02*
X101050D01*
X85450D02*
X91650D01*
X77750D02*
X82250D01*
X57950D02*
X70550D01*
X47250D02*
X54650D01*
X42350D02*
X43950D01*
X33150D02*
X33850D01*
X105650Y19500D02*
X113550D01*
X94850D02*
X100950D01*
X85450D02*
X91650D01*
X77650D02*
X82250D01*
X57950D02*
X70650D01*
X47250D02*
X54650D01*
X42450D02*
X43950D01*
X33150D02*
X33850D01*
X105550Y19600D02*
X113550D01*
X94850D02*
X100850D01*
X85450D02*
X91650D01*
X77550D02*
X82250D01*
X64550D02*
X70750D01*
X57950D02*
X59550D01*
X47250D02*
X54650D01*
X42550D02*
X43950D01*
X33150D02*
X33850D01*
X105450Y19700D02*
X113550D01*
X94850D02*
X100750D01*
X85450D02*
X91650D01*
X77550D02*
X82250D01*
X64850D02*
X70850D01*
X57950D02*
X59250D01*
X47250D02*
X54650D01*
X42650D02*
X43950D01*
X33150D02*
X33750D01*
X105350Y19800D02*
X113550D01*
X94850D02*
X100650D01*
X85450D02*
X91650D01*
X77450D02*
X82250D01*
X65050D02*
X70950D01*
X57950D02*
X59150D01*
X47250D02*
X54650D01*
X42750D02*
X43950D01*
X33150D02*
X33750D01*
X105250Y19900D02*
X113550D01*
X94850D02*
X100450D01*
X85450D02*
X91650D01*
X77350D02*
X82250D01*
X65250D02*
X71050D01*
X57950D02*
X58950D01*
X47250D02*
X54650D01*
X42850D02*
X43950D01*
X33150D02*
X33750D01*
X105050Y20000D02*
X113550D01*
X94850D02*
X100350D01*
X85450D02*
X91650D01*
X77250D02*
X82250D01*
X65350D02*
X71150D01*
X57950D02*
X58850D01*
X47250D02*
X54650D01*
X42850D02*
X43950D01*
X33150D02*
X33850D01*
X104950Y20100D02*
X113550D01*
X94850D02*
X100250D01*
X85450D02*
X91650D01*
X77150D02*
X82250D01*
X65350D02*
X71250D01*
X57950D02*
X58750D01*
X47250D02*
X54650D01*
X42950D02*
X43950D01*
X33150D02*
X33850D01*
X104850Y20200D02*
X113550D01*
X94850D02*
X100150D01*
X85450D02*
X91650D01*
X77050D02*
X82250D01*
X65450D02*
X71350D01*
X57950D02*
X58750D01*
X47250D02*
X54650D01*
X43050D02*
X43950D01*
X33150D02*
X33850D01*
X104750Y20300D02*
X113550D01*
X94850D02*
X100050D01*
X85450D02*
X91650D01*
X76950D02*
X82250D01*
X65450D02*
X71450D01*
X57950D02*
X58650D01*
X47250D02*
X54650D01*
X43050D02*
X43950D01*
X33150D02*
X33850D01*
X104650Y20400D02*
X113550D01*
X94850D02*
X99950D01*
X85450D02*
X91650D01*
X76850D02*
X82250D01*
X65550D02*
X71550D01*
X57950D02*
X58650D01*
X47250D02*
X54650D01*
X43150D02*
X43950D01*
X33150D02*
X33950D01*
X104550Y20500D02*
X113550D01*
X94850D02*
X99750D01*
X85450D02*
X91650D01*
X76750D02*
X82250D01*
X65550D02*
X71750D01*
X57950D02*
X58550D01*
X47250D02*
X54650D01*
X43150D02*
X43950D01*
X33150D02*
X33950D01*
X104350Y20600D02*
X113550D01*
X94850D02*
X99650D01*
X85450D02*
X91650D01*
X76650D02*
X82250D01*
X65650D02*
X71850D01*
X57950D02*
X58550D01*
X47250D02*
X54650D01*
X43250D02*
X43950D01*
X33150D02*
X34050D01*
X104250Y20700D02*
X113550D01*
X94850D02*
X99550D01*
X85450D02*
X91650D01*
X76550D02*
X82250D01*
X65650D02*
X71950D01*
X57950D02*
X58550D01*
X47250D02*
X54650D01*
X43250D02*
X43950D01*
X33150D02*
X34050D01*
X104150Y20800D02*
X113550D01*
X94850D02*
X99450D01*
X85450D02*
X91650D01*
X76550D02*
X82250D01*
X65650D02*
X71950D01*
X57950D02*
X58450D01*
X47250D02*
X54650D01*
X43350D02*
X43950D01*
X33150D02*
X34150D01*
X104050Y20900D02*
X113550D01*
X94850D02*
X99350D01*
X85450D02*
X91650D01*
X76650D02*
X82250D01*
X65750D02*
X71950D01*
X57950D02*
X58450D01*
X47250D02*
X54650D01*
X43350D02*
X43950D01*
X33150D02*
X34250D01*
X103950Y21000D02*
X113550D01*
X94850D02*
X99250D01*
X85450D02*
X91650D01*
X76750D02*
X82250D01*
X65750D02*
X71850D01*
X57950D02*
X58450D01*
X47250D02*
X54650D01*
X43450D02*
X43950D01*
X33150D02*
X34450D01*
X103850Y21100D02*
X113550D01*
X94850D02*
X99150D01*
X85450D02*
X91650D01*
X76750D02*
X82250D01*
X65750D02*
X71750D01*
X57950D02*
X58450D01*
X47250D02*
X54650D01*
X43450D02*
X43950D01*
X33150D02*
X34550D01*
X103650Y21200D02*
X113550D01*
X94850D02*
X98950D01*
X85450D02*
X91650D01*
X76850D02*
X82250D01*
X65750D02*
X71650D01*
X57950D02*
X58450D01*
X47250D02*
X54650D01*
X43450D02*
X43950D01*
X33150D02*
X34850D01*
X103550Y21300D02*
X113550D01*
X94850D02*
X98850D01*
X85450D02*
X91650D01*
X77050D02*
X82250D01*
X65750D02*
X71550D01*
X57950D02*
X58450D01*
X47250D02*
X54650D01*
X43550D02*
X43950D01*
X33150D02*
X35250D01*
X103450Y21400D02*
X113550D01*
X94850D02*
X98750D01*
X85450D02*
X91650D01*
X77150D02*
X82250D01*
X65750D02*
X71450D01*
X57950D02*
X58450D01*
X47250D02*
X54650D01*
X43550D02*
X43950D01*
X33150D02*
X39750D01*
X103350Y21500D02*
X113550D01*
X94850D02*
X98650D01*
X85450D02*
X91650D01*
X77250D02*
X82250D01*
X65650D02*
X71350D01*
X57950D02*
X58450D01*
X47250D02*
X54650D01*
X43550D02*
X43950D01*
X33150D02*
X39850D01*
X103250Y21600D02*
X113550D01*
X94850D02*
X98550D01*
X85450D02*
X91650D01*
X77350D02*
X82250D01*
X65650D02*
X71250D01*
X57950D02*
X58550D01*
X47250D02*
X54650D01*
X43550D02*
X43950D01*
X33150D02*
X40050D01*
X103150Y21700D02*
X113550D01*
X94850D02*
X98450D01*
X85450D02*
X91650D01*
X77450D02*
X82250D01*
X65650D02*
X71250D01*
X57950D02*
X58550D01*
X47250D02*
X54650D01*
X43650D02*
X43950D01*
X33150D02*
X40150D01*
X102950Y21800D02*
X113550D01*
X94850D02*
X98350D01*
X85450D02*
X91650D01*
X77550D02*
X82250D01*
X65550D02*
X71150D01*
X57950D02*
X58550D01*
X47250D02*
X54650D01*
X43650D02*
X43950D01*
X33150D02*
X40250D01*
X102850Y21900D02*
X113550D01*
X94850D02*
X98150D01*
X85450D02*
X91650D01*
X77650D02*
X82250D01*
X65550D02*
X71050D01*
X57950D02*
X58650D01*
X47250D02*
X54650D01*
X43650D02*
X43950D01*
X33150D02*
X40350D01*
X102750Y22000D02*
X113550D01*
X94850D02*
X98050D01*
X85450D02*
X91650D01*
X77750D02*
X82250D01*
X65450D02*
X70950D01*
X57950D02*
X58750D01*
X47250D02*
X54650D01*
X43650D02*
X43950D01*
X33150D02*
X40450D01*
X102650Y22100D02*
X113550D01*
X94850D02*
X97950D01*
X85450D02*
X91650D01*
X77850D02*
X82250D01*
X65350D02*
X70850D01*
X57950D02*
X58750D01*
X47250D02*
X54650D01*
X43650D02*
X43950D01*
X33150D02*
X40550D01*
X102550Y22200D02*
X113550D01*
X94850D02*
X97850D01*
X85450D02*
X91650D01*
X77950D02*
X82250D01*
X65250D02*
X70750D01*
X57950D02*
X58850D01*
X47250D02*
X54650D01*
X43750D02*
X43950D01*
X33150D02*
X40550D01*
X102450Y22300D02*
X113550D01*
X94850D02*
X97750D01*
X85450D02*
X91650D01*
X78050D02*
X82250D01*
X65150D02*
X70650D01*
X57950D02*
X58950D01*
X47250D02*
X54650D01*
X43750D02*
X43950D01*
X33150D02*
X40650D01*
X102250Y22400D02*
X113550D01*
X94850D02*
X97650D01*
X85450D02*
X91650D01*
X78150D02*
X82250D01*
X65050D02*
X70550D01*
X57950D02*
X59050D01*
X47250D02*
X54650D01*
X43750D02*
X43950D01*
X33150D02*
X40650D01*
X102150Y22500D02*
X113550D01*
X94850D02*
X97550D01*
X85450D02*
X91650D01*
X78350D02*
X82250D01*
X64850D02*
X70450D01*
X57950D02*
X59250D01*
X47250D02*
X54650D01*
X43750D02*
X44050D01*
X33150D02*
X40650D01*
X102050Y22600D02*
X113550D01*
X94850D02*
X97350D01*
X85450D02*
X91650D01*
X78450D02*
X82250D01*
X64550D02*
X70350D01*
X57950D02*
X59650D01*
X47250D02*
X54650D01*
X43750D02*
X44050D01*
X33150D02*
X40650D01*
X101950Y22700D02*
X113550D01*
X94850D02*
X97250D01*
X85450D02*
X91650D01*
X78550D02*
X82250D01*
X57950D02*
X70250D01*
X47250D02*
X54650D01*
X43750D02*
X44050D01*
X33150D02*
X40650D01*
X101850Y22800D02*
X113550D01*
X94850D02*
X97150D01*
X85450D02*
X91650D01*
X78650D02*
X82250D01*
X57950D02*
X70150D01*
X47250D02*
X54650D01*
X43750D02*
X44050D01*
X33150D02*
X40650D01*
X101750Y22900D02*
X113550D01*
X94850D02*
X97050D01*
X85450D02*
X91650D01*
X78750D02*
X82250D01*
X57950D02*
X70050D01*
X47250D02*
X54650D01*
X43750D02*
X44050D01*
X33150D02*
X40650D01*
X101650Y23000D02*
X113550D01*
X94850D02*
X96950D01*
X85450D02*
X91650D01*
X78850D02*
X82250D01*
X57950D02*
X69950D01*
X47250D02*
X54650D01*
X43750D02*
X44050D01*
X33150D02*
X40650D01*
X101450Y23100D02*
X113550D01*
X94850D02*
X96850D01*
X85450D02*
X91650D01*
X78950D02*
X82250D01*
X74250D02*
X74550D01*
X57950D02*
X69850D01*
X47250D02*
X54650D01*
X43750D02*
X44050D01*
X33150D02*
X40650D01*
X101350Y23200D02*
X113550D01*
X94850D02*
X96650D01*
X85450D02*
X91650D01*
X79150D02*
X82250D01*
X74150D02*
X74650D01*
X57950D02*
X69750D01*
X47250D02*
X54650D01*
X43750D02*
X44050D01*
X33150D02*
X40650D01*
X101250Y23300D02*
X113550D01*
X94850D02*
X96550D01*
X85450D02*
X91650D01*
X79250D02*
X82250D01*
X74050D02*
X74750D01*
X57950D02*
X69650D01*
X47250D02*
X54650D01*
X43750D02*
X44050D01*
X33150D02*
X40550D01*
X101150Y23400D02*
X113550D01*
X94850D02*
X96450D01*
X85450D02*
X91650D01*
X79350D02*
X82250D01*
X73950D02*
X74850D01*
X57950D02*
X69550D01*
X47250D02*
X54650D01*
X43750D02*
X44050D01*
X33150D02*
X40550D01*
X101050Y23500D02*
X113550D01*
X94850D02*
X96350D01*
X85450D02*
X91650D01*
X79450D02*
X82250D01*
X73850D02*
X74950D01*
X57950D02*
X69450D01*
X47250D02*
X54750D01*
X43650D02*
X44050D01*
X33150D02*
X40550D01*
X100950Y23600D02*
X113550D01*
X94850D02*
X96250D01*
X85450D02*
X91650D01*
X79550D02*
X82250D01*
X73750D02*
X75050D01*
X57950D02*
X69350D01*
X47250D02*
X54750D01*
X43650D02*
X44050D01*
X33150D02*
X40450D01*
X100750Y23700D02*
X113550D01*
X94850D02*
X96150D01*
X85450D02*
X91650D01*
X79650D02*
X82250D01*
X73650D02*
X75250D01*
X57950D02*
X69250D01*
X47250D02*
X54750D01*
X43650D02*
X44050D01*
X33150D02*
X40350D01*
X100650Y23800D02*
X113550D01*
X94850D02*
X96050D01*
X85450D02*
X91650D01*
X79750D02*
X82250D01*
X73550D02*
X75350D01*
X57950D02*
X69150D01*
X47250D02*
X54750D01*
X43650D02*
X44050D01*
X33150D02*
X40250D01*
X100550Y23900D02*
X113550D01*
X94850D02*
X95950D01*
X85450D02*
X91650D01*
X79850D02*
X82250D01*
X73450D02*
X75450D01*
X57950D02*
X69050D01*
X47250D02*
X54750D01*
X43650D02*
X44050D01*
X33150D02*
X40250D01*
X100450Y24000D02*
X113550D01*
X94850D02*
X95850D01*
X85450D02*
X91650D01*
X79950D02*
X82250D01*
X73350D02*
X75550D01*
X57950D02*
X68950D01*
X47250D02*
X54750D01*
X43650D02*
X44050D01*
X33250D02*
X40050D01*
X100350Y24100D02*
X113550D01*
X94850D02*
X95750D01*
X85450D02*
X91650D01*
X80150D02*
X82150D01*
X73250D02*
X75650D01*
X57950D02*
X68850D01*
X47250D02*
X54750D01*
X43550D02*
X44050D01*
X33250D02*
X39950D01*
X100250Y24200D02*
X113550D01*
X94850D02*
X95750D01*
X85450D02*
X91650D01*
X80350D02*
X82150D01*
X73150D02*
X75750D01*
X58050D02*
X68550D01*
X47250D02*
X54750D01*
X43550D02*
X44050D01*
X33350D02*
X39750D01*
X100150Y24300D02*
X113550D01*
X94850D02*
X95750D01*
X85450D02*
X91650D01*
X80850D02*
X81950D01*
X73050D02*
X75850D01*
X58250D02*
X67750D01*
X47250D02*
X54750D01*
X43550D02*
X44050D01*
X33550D02*
X39550D01*
X100950Y24400D02*
X113550D01*
X94850D02*
X95650D01*
X85450D02*
X91650D01*
X72950D02*
X75950D01*
X64250D02*
X67150D01*
X47250D02*
X54750D01*
X43450D02*
X44050D01*
X106450Y24500D02*
X113550D01*
X94850D02*
X95650D01*
X85450D02*
X91650D01*
X72850D02*
X76050D01*
X64750D02*
X66850D01*
X47250D02*
X54750D01*
X43450D02*
X44050D01*
X106750Y24600D02*
X113550D01*
X94850D02*
X95650D01*
X85450D02*
X91650D01*
X72750D02*
X76250D01*
X64950D02*
X66650D01*
X47250D02*
X54750D01*
X43450D02*
X44050D01*
X106950Y24700D02*
X113550D01*
X94850D02*
X95550D01*
X85450D02*
X91650D01*
X72650D02*
X76350D01*
X65050D02*
X66550D01*
X47250D02*
X54750D01*
X43350D02*
X44050D01*
X107050Y24800D02*
X113550D01*
X94850D02*
X95550D01*
X85450D02*
X91650D01*
X72550D02*
X76450D01*
X65150D02*
X66450D01*
X47250D02*
X54750D01*
X43350D02*
X44050D01*
X107150Y24900D02*
X113550D01*
X94850D02*
X95550D01*
X85450D02*
X91650D01*
X72450D02*
X76550D01*
X65250D02*
X66350D01*
X47250D02*
X54850D01*
X43250D02*
X44050D01*
X107250Y25000D02*
X113550D01*
X94850D02*
X95550D01*
X85450D02*
X91650D01*
X72350D02*
X76650D01*
X65350D02*
X66250D01*
X47250D02*
X54850D01*
X43250D02*
X44050D01*
X107350Y25100D02*
X113550D01*
X94850D02*
X95550D01*
X85450D02*
X91650D01*
X72250D02*
X76750D01*
X65450D02*
X66250D01*
X47250D02*
X54850D01*
X43150D02*
X44050D01*
X107350Y25200D02*
X113550D01*
X94850D02*
X95550D01*
X85450D02*
X91650D01*
X72150D02*
X76850D01*
X65450D02*
X66150D01*
X47250D02*
X54950D01*
X43150D02*
X44050D01*
X107450Y25300D02*
X113550D01*
X94850D02*
X95550D01*
X85450D02*
X91650D01*
X72050D02*
X76950D01*
X65550D02*
X66150D01*
X47250D02*
X54950D01*
X43050D02*
X44050D01*
X107450Y25400D02*
X113550D01*
X94850D02*
X95550D01*
X85450D02*
X91650D01*
X71950D02*
X77050D01*
X65550D02*
X66050D01*
X47250D02*
X55050D01*
X42950D02*
X44050D01*
X107450Y25500D02*
X113550D01*
X94750D02*
X95550D01*
X85450D02*
X91650D01*
X71850D02*
X77250D01*
X65550D02*
X66050D01*
X47250D02*
X55050D01*
X42950D02*
X44050D01*
X107550Y25600D02*
X113550D01*
X94750D02*
X95650D01*
X85450D02*
X91650D01*
X71750D02*
X77350D01*
X65550D02*
X66050D01*
X47250D02*
X55150D01*
X42850D02*
X44050D01*
X107550Y25700D02*
X113550D01*
X94750D02*
X95650D01*
X85450D02*
X91650D01*
X71650D02*
X77450D01*
X65550D02*
X66050D01*
X47250D02*
X55150D01*
X42750D02*
X44050D01*
X107550Y25800D02*
X113550D01*
X94750D02*
X95650D01*
X85450D02*
X91650D01*
X71550D02*
X77550D01*
X65550D02*
X66050D01*
X47250D02*
X55250D01*
X42650D02*
X44050D01*
X107550Y25900D02*
X113550D01*
X94750D02*
X95750D01*
X85350D02*
X91650D01*
X71450D02*
X77650D01*
X65550D02*
X66050D01*
X47250D02*
X55350D01*
X42550D02*
X44050D01*
X107550Y26000D02*
X113550D01*
X94750D02*
X95750D01*
X85350D02*
X91650D01*
X71350D02*
X77750D01*
X65550D02*
X66050D01*
X47250D02*
X55450D01*
X42450D02*
X44050D01*
X107550Y26100D02*
X113550D01*
X94750D02*
X95750D01*
X85350D02*
X91650D01*
X71250D02*
X77850D01*
X65550D02*
X66050D01*
X47250D02*
X55550D01*
X42350D02*
X44050D01*
X107550Y26200D02*
X113550D01*
X94750D02*
X95850D01*
X85250D02*
X91650D01*
X71150D02*
X77950D01*
X65550D02*
X66050D01*
X47250D02*
X55650D01*
X42250D02*
X44050D01*
X107450Y26300D02*
X113550D01*
X94750D02*
X95850D01*
X85250D02*
X91650D01*
X71150D02*
X78050D01*
X65550D02*
X66150D01*
X47150D02*
X55750D01*
X42150D02*
X44050D01*
X107450Y26400D02*
X113550D01*
X94650D02*
X95950D01*
X85150D02*
X91750D01*
X71050D02*
X78150D01*
X65450D02*
X66150D01*
X47150D02*
X55850D01*
X42050D02*
X44050D01*
X107450Y26500D02*
X113550D01*
X94650D02*
X96050D01*
X85150D02*
X91750D01*
X70950D02*
X78350D01*
X65450D02*
X66150D01*
X47150D02*
X55950D01*
X41950D02*
X44050D01*
X107350Y26600D02*
X113550D01*
X94650D02*
X96150D01*
X85050D02*
X91850D01*
X70850D02*
X78450D01*
X65350D02*
X66250D01*
X47150D02*
X56050D01*
X41750D02*
X44150D01*
X107350Y26700D02*
X113550D01*
X94550D02*
X96250D01*
X84950D02*
X91850D01*
X70650D02*
X78550D01*
X65350D02*
X66350D01*
X47050D02*
X56150D01*
X41650D02*
X44150D01*
X107250Y26800D02*
X113550D01*
X94550D02*
X96350D01*
X84850D02*
X91950D01*
X70550D02*
X78650D01*
X65250D02*
X66450D01*
X47050D02*
X56350D01*
X41450D02*
X44150D01*
X107150Y26900D02*
X113550D01*
X94450D02*
X96450D01*
X84750D02*
X92050D01*
X70450D02*
X78750D01*
X65150D02*
X66550D01*
X46950D02*
X56450D01*
X41350D02*
X44250D01*
X107050Y27000D02*
X113550D01*
X94350D02*
X96650D01*
X84550D02*
X92150D01*
X70250D02*
X78950D01*
X65050D02*
X66650D01*
X46850D02*
X56650D01*
X41050D02*
X44350D01*
X106850Y27100D02*
X113550D01*
X94150D02*
X96850D01*
X84350D02*
X92250D01*
X70050D02*
X79150D01*
X64950D02*
X66850D01*
X46750D02*
X56850D01*
X40850D02*
X44450D01*
X106650Y27200D02*
X113550D01*
X94050D02*
X97150D01*
X84050D02*
X92350D01*
X69750D02*
X79450D01*
X64750D02*
X67050D01*
X46650D02*
X57150D01*
X40450D02*
X44550D01*
X106450Y27300D02*
X113550D01*
X93850D02*
X97650D01*
X83650D02*
X92550D01*
X80950D02*
X81550D01*
X69150D02*
X79850D01*
X64450D02*
X67550D01*
X46550D02*
X57450D01*
X39950D02*
X44650D01*
X99550Y27400D02*
X113550D01*
X93550D02*
X99350D01*
X46450D02*
X92850D01*
X46250Y27500D02*
X113550D01*
X45850Y27600D02*
X113550D01*
X90250Y14400D02*
X113550D01*
X81350D02*
X88050D01*
X53950D02*
X79250D01*
X105950Y14500D02*
X113550D01*
X91950D02*
X95450D01*
X81650D02*
X85050D01*
X69150D02*
X78650D01*
X54250D02*
X57550D01*
X106350Y14600D02*
X113550D01*
X92350D02*
X95250D01*
X24150D02*
X30350D01*
X24150Y14700D02*
X30250D01*
X24150Y14800D02*
X30150D01*
X24150Y14900D02*
X30150D01*
X24150Y15000D02*
X30150D01*
X24150Y15100D02*
X30050D01*
X24150Y15200D02*
X30050D01*
X24150Y15300D02*
X30050D01*
X24150Y15400D02*
X30050D01*
X24150Y15500D02*
X30050D01*
X24150Y15600D02*
X29950D01*
X24150Y15700D02*
X29950D01*
X24150Y15800D02*
X29950D01*
X24150Y15900D02*
X29950D01*
X24150Y16000D02*
X29950D01*
X24150Y16100D02*
X29950D01*
X24150Y16200D02*
X29950D01*
X24150Y16300D02*
X29950D01*
X24150Y16400D02*
X29950D01*
X24150Y16500D02*
X29950D01*
X24150Y16600D02*
X29950D01*
X24150Y16700D02*
X29950D01*
X24150Y16800D02*
X29950D01*
X24150Y16900D02*
X29950D01*
X24150Y17000D02*
X29950D01*
X24150Y17100D02*
X29950D01*
X24150Y17200D02*
X29950D01*
X24150Y17300D02*
X29950D01*
X24150Y17400D02*
X29950D01*
X24150Y17500D02*
X29950D01*
X24150Y17600D02*
X29950D01*
X24150Y17700D02*
X29950D01*
X24150Y17800D02*
X29950D01*
X24150Y17900D02*
X29950D01*
X24150Y18000D02*
X29950D01*
X24150Y18100D02*
X29950D01*
X24150Y18200D02*
X29950D01*
X24150Y18300D02*
X29950D01*
X24150Y18400D02*
X29950D01*
X24150Y18500D02*
X29950D01*
X24150Y18600D02*
X29950D01*
X24150Y18700D02*
X29950D01*
X24150Y18800D02*
X29950D01*
X24150Y18900D02*
X29950D01*
X24150Y19000D02*
X29950D01*
X24150Y19100D02*
X29950D01*
X24150Y19200D02*
X29950D01*
X24150Y19300D02*
X29950D01*
X24150Y19400D02*
X29950D01*
X24150Y19500D02*
X29950D01*
X24150Y19600D02*
X29950D01*
X24150Y19700D02*
X29950D01*
X24150Y19800D02*
X29950D01*
X24150Y19900D02*
X29950D01*
X24150Y20000D02*
X29950D01*
X24150Y20100D02*
X29950D01*
X24150Y20200D02*
X29950D01*
X24150Y20300D02*
X29950D01*
X24150Y20400D02*
X29950D01*
X24150Y20500D02*
X29950D01*
X24150Y20600D02*
X29950D01*
X24150Y20700D02*
X29950D01*
X24150Y20800D02*
X29950D01*
X24150Y20900D02*
X29950D01*
X24150Y21000D02*
X29950D01*
X24150Y21100D02*
X29950D01*
X24150Y21200D02*
X29950D01*
X24150Y21300D02*
X29950D01*
X24150Y21400D02*
X29950D01*
X24150Y21500D02*
X29950D01*
X24150Y21600D02*
X29950D01*
X24150Y21700D02*
X29950D01*
X24150Y21800D02*
X29950D01*
X24150Y21900D02*
X29950D01*
X24150Y22000D02*
X29950D01*
X24150Y22100D02*
X29950D01*
X24150Y22200D02*
X30050D01*
X24150Y22300D02*
X30050D01*
X24150Y22400D02*
X30050D01*
X24150Y22500D02*
X30050D01*
X24150Y22600D02*
X30050D01*
X24150Y22700D02*
X30050D01*
X24150Y22800D02*
X30050D01*
X24150Y22900D02*
X30050D01*
X24150Y23000D02*
X30050D01*
X24150Y23100D02*
X30050D01*
X24150Y23200D02*
X30050D01*
X24150Y23300D02*
X30050D01*
X24150Y23400D02*
X30050D01*
X24150Y23500D02*
X30050D01*
X24150Y23600D02*
X30050D01*
X24150Y23700D02*
X30050D01*
X24150Y23800D02*
X30050D01*
X24150Y23900D02*
X30050D01*
X24150Y24000D02*
X30050D01*
X24150Y24100D02*
X30050D01*
X24150Y24200D02*
X30050D01*
X24150Y24300D02*
X30050D01*
X24150Y24400D02*
X30050D01*
X24150Y24500D02*
X30050D01*
X24150Y24600D02*
X30050D01*
X24150Y24700D02*
X30050D01*
X24150Y24800D02*
X30050D01*
X24150Y24900D02*
X30050D01*
X24150Y25000D02*
X30050D01*
X24150Y25100D02*
X30050D01*
X24150Y25200D02*
X30050D01*
X24150Y25300D02*
X30050D01*
X24150Y25400D02*
X30050D01*
X24150Y25500D02*
X30050D01*
X24150Y25600D02*
X30050D01*
X24150Y25700D02*
X30050D01*
X24150Y25800D02*
X30050D01*
X24150Y25900D02*
X30150D01*
X24150Y26000D02*
X30150D01*
X24150Y26100D02*
X30150D01*
X24150Y26200D02*
X30250D01*
X24150Y26300D02*
X30250D01*
X24150Y26400D02*
X30350D01*
X24150Y26500D02*
X30450D01*
X24150Y26600D02*
X30450D01*
X24150Y26700D02*
X30550D01*
X24150Y26800D02*
X30650D01*
X24150Y26900D02*
X30750D01*
X24150Y27000D02*
X30950D01*
X24150Y27100D02*
X31050D01*
X24150Y27200D02*
X31250D01*
X24150Y27300D02*
X31850D01*
X24150Y27400D02*
X44750D01*
X24150Y27500D02*
X44950D01*
X24150Y27600D02*
X45250D01*
X24150Y27700D02*
X113550D01*
X24150Y27800D02*
X113550D01*
X24150Y27900D02*
X113550D01*
X24150Y28000D02*
X113550D01*
X24150Y28100D02*
X113550D01*
X24150Y28200D02*
X113550D01*
X24150Y28300D02*
X113550D01*
X24150Y28400D02*
X113550D01*
X24150Y28500D02*
X113550D01*
X24150Y28600D02*
X113550D01*
X24150Y28700D02*
X113550D01*
X24150Y28800D02*
X113550D01*
X24150Y28900D02*
X113550D01*
X24150Y29000D02*
X113550D01*
X24150Y29100D02*
X113550D01*
X24150Y29200D02*
X113550D01*
X24150Y29300D02*
X113550D01*
X24150Y29400D02*
X113550D01*
X24150Y29500D02*
X113550D01*
X24150Y29600D02*
X113550D01*
X24150Y29700D02*
X113550D01*
X24150Y29800D02*
X113550D01*
X24150Y29900D02*
X113550D01*
X24150Y30000D02*
X113550D01*
X24150Y12400D02*
X113550D01*
X24150Y11600D02*
X113550D01*
X24150Y12300D02*
X113550D01*
X24150Y12000D02*
X113550D01*
X24150Y12100D02*
X113550D01*
X24150Y12500D02*
X113550D01*
X24150Y12200D02*
X113550D01*
X24150Y11700D02*
X113550D01*
X24150Y11800D02*
X113550D01*
X24150Y11900D02*
X113550D01*
X24150Y12600D02*
X113550D01*
X24150Y12700D02*
X113550D01*
X24150Y12800D02*
X113550D01*
X24150Y12900D02*
X113550D01*
X24150Y13000D02*
X113550D01*
X24150Y13100D02*
X113550D01*
X24150Y13200D02*
X113550D01*
X24150Y13300D02*
X113550D01*
X24150Y13400D02*
X113550D01*
X24150Y13500D02*
X113550D01*
X24150Y13600D02*
X113550D01*
X24150Y13700D02*
X113550D01*
X24150Y13800D02*
X113550D01*
X24150Y13900D02*
X113550D01*
X31850Y14000D02*
X113550D01*
X24150D02*
X31350D01*
X32250Y14100D02*
X113550D01*
X24150D02*
X30950D01*
X32450Y14200D02*
X113550D01*
X24150D02*
X30750D01*
X32550Y14300D02*
X113550D01*
X24150D02*
X30650D01*
X32650Y14400D02*
X47950D01*
X24150D02*
X30450D01*
X32750Y14500D02*
X46550D01*
X24150D02*
X30350D01*
D14*
X131000Y20598D02*
X134999D01*
X132999D01*
Y14600D01*
X139997D02*
X137998D01*
X136998Y15599D01*
Y17599D01*
X137998Y18598D01*
X139997D01*
X140997Y17599D01*
Y16599D01*
X136998D01*
X143996Y18598D02*
X145995D01*
X146995Y17599D01*
Y14600D01*
X143996D01*
X142996Y15599D01*
X143996Y16599D01*
X146995D01*
X148994Y14600D02*
Y18598D01*
X149994D01*
X150994Y17599D01*
Y14600D01*
Y17599D01*
X151993Y18598D01*
X152993Y17599D01*
Y14600D01*
X160990D02*
Y20598D01*
X163989D01*
X164989Y19598D01*
Y17599D01*
X163989Y16599D01*
X160990D01*
X162990D02*
X164989Y14600D01*
X170987Y19598D02*
X169987Y20598D01*
X167988D01*
X166988Y19598D01*
Y15599D01*
X167988Y14600D01*
X169987D01*
X170987Y15599D01*
X172986Y17599D02*
X176985D01*
X178984Y20598D02*
X182983Y14600D01*
Y20598D02*
X178984Y14600D01*
X184983Y20598D02*
Y14600D01*
X187982D01*
X188981Y15599D01*
Y19598D01*
X187982Y20598D01*
X184983D01*
X196979D02*
Y14600D01*
X199978D01*
X200977Y15599D01*
Y16599D01*
X199978Y17599D01*
X196979D01*
X199978D01*
X200977Y18598D01*
Y19598D01*
X199978Y20598D01*
X196979D01*
X203976Y14600D02*
X205976D01*
X206975Y15599D01*
Y17599D01*
X205976Y18598D01*
X203976D01*
X202977Y17599D01*
Y15599D01*
X203976Y14600D01*
X209975Y18598D02*
X211974D01*
X212973Y17599D01*
Y14600D01*
X209975D01*
X208975Y15599D01*
X209975Y16599D01*
X212973D01*
X214973Y18598D02*
Y14600D01*
Y16599D01*
X215972Y17599D01*
X216972Y18598D01*
X217972D01*
X224970Y20598D02*
Y14600D01*
X221971D01*
X220971Y15599D01*
Y17599D01*
X221971Y18598D01*
X224970D01*
X226969Y13600D02*
X230968D01*
X232967Y20598D02*
Y16599D01*
X234966Y14600D01*
X236966Y16599D01*
Y20598D01*
X238965Y14600D02*
X240964D01*
X239965D01*
Y20598D01*
X238965Y19598D01*
X505506Y333499D02*
X509505D01*
X507506D01*
Y327501D01*
X511504D02*
Y333499D01*
X514503D01*
X515503Y332499D01*
Y330500D01*
X514503Y329500D01*
X511504D01*
X517502Y326501D02*
X521501D01*
X523500Y333499D02*
X525500D01*
X524500D01*
Y327501D01*
X523500D01*
X525500D01*
X528499D02*
Y333499D01*
X532498Y327501D01*
Y333499D01*
X534497D02*
X538496D01*
X536496D01*
Y327501D01*
X544494D02*
X540495D01*
X544494Y331500D01*
Y332499D01*
X543494Y333499D01*
X541495D01*
X540495Y332499D01*
X403354Y402999D02*
Y398001D01*
X404354Y397001D01*
X406353D01*
X407353Y398001D01*
Y402999D01*
X413351D02*
X411351Y401999D01*
X409352Y400000D01*
Y398001D01*
X410352Y397001D01*
X412351D01*
X413351Y398001D01*
Y399000D01*
X412351Y400000D01*
X409352D01*
X488012Y438499D02*
X492011D01*
X490011D01*
Y432501D01*
X494010D02*
Y438499D01*
X497009D01*
X498009Y437499D01*
Y435500D01*
X497009Y434500D01*
X494010D01*
X500008Y431501D02*
X504007D01*
X510005Y437499D02*
X509005Y438499D01*
X507006D01*
X506006Y437499D01*
Y436500D01*
X507006Y435500D01*
X509005D01*
X510005Y434500D01*
Y433500D01*
X509005Y432501D01*
X507006D01*
X506006Y433500D01*
X512004Y438499D02*
Y432501D01*
X515003D01*
X516003Y433500D01*
Y437499D01*
X515003Y438499D01*
X512004D01*
X518002Y432501D02*
Y436500D01*
X520002Y438499D01*
X522001Y436500D01*
Y432501D01*
Y435500D01*
X518002D01*
X524000Y431501D02*
X527999D01*
X529998Y432501D02*
Y436500D01*
X531998Y438499D01*
X533997Y436500D01*
Y432501D01*
Y435500D01*
X529998D01*
X539995Y437499D02*
X538996Y438499D01*
X536996D01*
X535996Y437499D01*
Y433500D01*
X536996Y432501D01*
X538996D01*
X539995Y433500D01*
X545993Y437499D02*
X544993Y438499D01*
X542994D01*
X541994Y437499D01*
Y433500D01*
X542994Y432501D01*
X544993D01*
X545993Y433500D01*
X551991Y438499D02*
X547993D01*
Y432501D01*
X551991D01*
X547993Y435500D02*
X549992D01*
X553991Y438499D02*
Y432501D01*
X557989D01*
X559989D02*
X561988D01*
X560988D01*
Y438499D01*
X559989Y437499D01*
X489712Y389743D02*
X493711D01*
X491711D01*
Y383745D01*
X495710D02*
Y389743D01*
X498709D01*
X499709Y388744D01*
Y386744D01*
X498709Y385745D01*
X495710D01*
X501708Y382746D02*
X505707D01*
X511705Y388744D02*
X510705Y389743D01*
X508706D01*
X507706Y388744D01*
Y387744D01*
X508706Y386744D01*
X510705D01*
X511705Y385745D01*
Y384745D01*
X510705Y383745D01*
X508706D01*
X507706Y384745D01*
X517703Y388744D02*
X516703Y389743D01*
X514704D01*
X513704Y388744D01*
Y384745D01*
X514704Y383745D01*
X516703D01*
X517703Y384745D01*
X519702Y389743D02*
Y383745D01*
X523701D01*
X525700Y382746D02*
X529699D01*
X531698Y383745D02*
Y387744D01*
X533698Y389743D01*
X535697Y387744D01*
Y383745D01*
Y386744D01*
X531698D01*
X541695Y388744D02*
X540695Y389743D01*
X538696D01*
X537697Y388744D01*
Y384745D01*
X538696Y383745D01*
X540695D01*
X541695Y384745D01*
X547693Y388744D02*
X546694Y389743D01*
X544694D01*
X543694Y388744D01*
Y384745D01*
X544694Y383745D01*
X546694D01*
X547693Y384745D01*
X553691Y389743D02*
X549693D01*
Y383745D01*
X553691D01*
X549693Y386744D02*
X551692D01*
X555691Y389743D02*
Y383745D01*
X559689D01*
X561689D02*
X563688D01*
X562688D01*
Y389743D01*
X561689Y388744D01*
X505706Y364699D02*
X509705D01*
X507705D01*
Y358701D01*
X511704D02*
Y364699D01*
X514703D01*
X515703Y363699D01*
Y361700D01*
X514703Y360700D01*
X511704D01*
X517702Y357701D02*
X521701D01*
X523700Y364699D02*
X525700D01*
X524700D01*
Y358701D01*
X523700D01*
X525700D01*
X528698D02*
Y364699D01*
X532697Y358701D01*
Y364699D01*
X534697D02*
X538695D01*
X536696D01*
Y358701D01*
X540695D02*
X542694D01*
X541694D01*
Y364699D01*
X540695Y363699D01*
X488012Y308499D02*
X492011D01*
X490011D01*
Y302501D01*
X494010D02*
Y308499D01*
X497009D01*
X498009Y307499D01*
Y305500D01*
X497009Y304500D01*
X494010D01*
X500008Y301501D02*
X504007D01*
X510005Y307499D02*
X509005Y308499D01*
X507006D01*
X506006Y307499D01*
Y303501D01*
X507006Y302501D01*
X509005D01*
X510005Y303501D01*
Y305500D01*
X508006D01*
X512004Y302501D02*
Y308499D01*
X516003Y302501D01*
Y308499D01*
X518002D02*
Y302501D01*
X521001D01*
X522001Y303501D01*
Y307499D01*
X521001Y308499D01*
X518002D01*
X524000Y301501D02*
X527999D01*
X529998Y302501D02*
Y306500D01*
X531998Y308499D01*
X533997Y306500D01*
Y302501D01*
Y305500D01*
X529998D01*
X539995Y307499D02*
X538996Y308499D01*
X536996D01*
X535996Y307499D01*
Y303501D01*
X536996Y302501D01*
X538996D01*
X539995Y303501D01*
X545993Y307499D02*
X544993Y308499D01*
X542994D01*
X541994Y307499D01*
Y303501D01*
X542994Y302501D01*
X544993D01*
X545993Y303501D01*
X551991Y308499D02*
X547993D01*
Y302501D01*
X551991D01*
X547993Y305500D02*
X549992D01*
X553991Y308499D02*
Y302501D01*
X557989D01*
X559989D02*
X561988D01*
X560988D01*
Y308499D01*
X559989Y307499D01*
X496011Y413499D02*
X500010D01*
X498010D01*
Y407501D01*
X502009D02*
Y413499D01*
X505008D01*
X506008Y412499D01*
Y410500D01*
X505008Y409500D01*
X502009D01*
X508007Y406501D02*
X512006D01*
X518004Y412499D02*
X517004Y413499D01*
X515005D01*
X514005Y412499D01*
Y408500D01*
X515005Y407501D01*
X517004D01*
X518004Y408500D01*
X524002Y412499D02*
X523002Y413499D01*
X521003D01*
X520003Y412499D01*
Y411500D01*
X521003Y410500D01*
X523002D01*
X524002Y409500D01*
Y408500D01*
X523002Y407501D01*
X521003D01*
X520003Y408500D01*
X526001Y406501D02*
X530000D01*
X531999Y407501D02*
Y411500D01*
X533999Y413499D01*
X535998Y411500D01*
Y407501D01*
Y410500D01*
X531999D01*
X541996Y412499D02*
X540997Y413499D01*
X538997D01*
X537997Y412499D01*
Y408500D01*
X538997Y407501D01*
X540997D01*
X541996Y408500D01*
X547994Y412499D02*
X546994Y413499D01*
X544995D01*
X543996Y412499D01*
Y408500D01*
X544995Y407501D01*
X546994D01*
X547994Y408500D01*
X553992Y413499D02*
X549994D01*
Y407501D01*
X553992D01*
X549994Y410500D02*
X551993D01*
X555992Y413499D02*
Y407501D01*
X559990D01*
X561990D02*
X563989D01*
X562989D01*
Y413499D01*
X561990Y412499D01*
X458095Y385001D02*
X457095Y386001D01*
X455096D01*
X454096Y385001D01*
Y381003D01*
X455096Y380003D01*
X457095D01*
X458095Y381003D01*
X460094D02*
X461094Y380003D01*
X463093D01*
X464093Y381003D01*
Y385001D01*
X463093Y386001D01*
X461094D01*
X460094Y385001D01*
Y384002D01*
X461094Y383002D01*
X464093D01*
X445596Y365070D02*
X444596Y366070D01*
X442597D01*
X441597Y365070D01*
Y361071D01*
X442597Y360072D01*
X444596D01*
X445596Y361071D01*
X447595Y360072D02*
X449594D01*
X448595D01*
Y366070D01*
X447595Y365070D01*
X452593D02*
X453593Y366070D01*
X455592D01*
X456592Y365070D01*
Y361071D01*
X455592Y360072D01*
X453593D01*
X452593Y361071D01*
Y365070D01*
X524004Y615164D02*
Y614165D01*
X526003Y612165D01*
X528002Y614165D01*
Y615164D01*
X526003Y612165D02*
Y609166D01*
X534000D02*
X530002D01*
X534000Y613165D01*
Y614165D01*
X533001Y615164D01*
X531001D01*
X530002Y614165D01*
X536000D02*
X536999Y615164D01*
X538999D01*
X539998Y614165D01*
Y610166D01*
X538999Y609166D01*
X536999D01*
X536000Y610166D01*
Y614165D01*
X541998D02*
X542997Y615164D01*
X544997D01*
X545997Y614165D01*
Y610166D01*
X544997Y609166D01*
X542997D01*
X541998Y610166D01*
Y614165D01*
X155203Y247299D02*
Y242301D01*
X156203Y241301D01*
X158202D01*
X159202Y242301D01*
Y247299D01*
X165200Y241301D02*
X161201D01*
X165200Y245300D01*
Y246299D01*
X164200Y247299D01*
X162201D01*
X161201Y246299D01*
X167199D02*
X168199Y247299D01*
X170198D01*
X171198Y246299D01*
Y242301D01*
X170198Y241301D01*
X168199D01*
X167199Y242301D01*
Y246299D01*
X173197Y241301D02*
X175197D01*
X174197D01*
Y247299D01*
X173197Y246299D01*
X158139Y272999D02*
Y268001D01*
X159139Y267001D01*
X161138D01*
X162138Y268001D01*
Y272999D01*
X168136Y267001D02*
X164137D01*
X168136Y271000D01*
Y271999D01*
X167136Y272999D01*
X165137D01*
X164137Y271999D01*
X170135D02*
X171135Y272999D01*
X173135D01*
X174134Y271999D01*
Y268001D01*
X173135Y267001D01*
X171135D01*
X170135Y268001D01*
Y271999D01*
X176134D02*
X177133Y272999D01*
X179132D01*
X180132Y271999D01*
Y268001D01*
X179132Y267001D01*
X177133D01*
X176134Y268001D01*
Y271999D01*
X405002Y517999D02*
Y513001D01*
X406001Y512001D01*
X408001D01*
X409000Y513001D01*
Y517999D01*
X414998D02*
X411000D01*
Y515000D01*
X412999Y516000D01*
X413999D01*
X414998Y515000D01*
Y513001D01*
X413999Y512001D01*
X411999D01*
X411000Y513001D01*
X54502Y347999D02*
Y343001D01*
X55501Y342001D01*
X57501D01*
X58500Y343001D01*
Y347999D01*
X64498Y342001D02*
X60500D01*
X64498Y346000D01*
Y346999D01*
X63499Y347999D01*
X61499D01*
X60500Y346999D01*
X353054Y219504D02*
Y214505D01*
X354053Y213506D01*
X356053D01*
X357052Y214505D01*
Y219504D01*
X359052Y213506D02*
X361051D01*
X360051D01*
Y219504D01*
X359052Y218504D01*
X493512Y528499D02*
X497510D01*
X495511D01*
Y522501D01*
X499510D02*
Y528499D01*
X502509D01*
X503509Y527499D01*
Y525500D01*
X502509Y524500D01*
X499510D01*
X505508Y521501D02*
X509507D01*
X515505Y527499D02*
X514505Y528499D01*
X512506D01*
X511506Y527499D01*
Y526500D01*
X512506Y525500D01*
X514505D01*
X515505Y524500D01*
Y523500D01*
X514505Y522501D01*
X512506D01*
X511506Y523500D01*
X517504Y528499D02*
Y522501D01*
X520503D01*
X521503Y523500D01*
Y527499D01*
X520503Y528499D01*
X517504D01*
X523502Y522501D02*
Y526500D01*
X525501Y528499D01*
X527501Y526500D01*
Y522501D01*
Y525500D01*
X523502D01*
X529500Y521501D02*
X533499D01*
X535498Y528499D02*
Y522501D01*
X539497D01*
X541496Y528499D02*
X543496D01*
X542496D01*
Y522501D01*
X541496D01*
X543496D01*
X550493Y527499D02*
X549494Y528499D01*
X547494D01*
X546495Y527499D01*
Y523500D01*
X547494Y522501D01*
X549494D01*
X550493Y523500D01*
Y525500D01*
X548494D01*
X552493Y528499D02*
Y522501D01*
Y525500D01*
X556491D01*
Y528499D01*
Y522501D01*
X558491Y528499D02*
X562490D01*
X560490D01*
Y522501D01*
X564489D02*
X566488D01*
X565488D01*
Y528499D01*
X564489Y527499D01*
X493512Y503499D02*
X497510D01*
X495511D01*
Y497501D01*
X499510D02*
Y503499D01*
X502509D01*
X503509Y502499D01*
Y500500D01*
X502509Y499500D01*
X499510D01*
X505508Y496501D02*
X509507D01*
X515505Y502499D02*
X514505Y503499D01*
X512506D01*
X511506Y502499D01*
Y501500D01*
X512506Y500500D01*
X514505D01*
X515505Y499500D01*
Y498500D01*
X514505Y497501D01*
X512506D01*
X511506Y498500D01*
X521503Y502499D02*
X520503Y503499D01*
X518504D01*
X517504Y502499D01*
Y498500D01*
X518504Y497501D01*
X520503D01*
X521503Y498500D01*
X523502Y503499D02*
Y497501D01*
X527501D01*
X529500Y496501D02*
X533499D01*
X535498Y503499D02*
Y497501D01*
X539497D01*
X541496Y503499D02*
X543496D01*
X542496D01*
Y497501D01*
X541496D01*
X543496D01*
X550493Y502499D02*
X549494Y503499D01*
X547494D01*
X546495Y502499D01*
Y498500D01*
X547494Y497501D01*
X549494D01*
X550493Y498500D01*
Y500500D01*
X548494D01*
X552493Y503499D02*
Y497501D01*
Y500500D01*
X556491D01*
Y503499D01*
Y497501D01*
X558491Y503499D02*
X562490D01*
X560490D01*
Y497501D01*
X564489D02*
X566488D01*
X565488D01*
Y503499D01*
X564489Y502499D01*
X494012Y553499D02*
X498010D01*
X496011D01*
Y547501D01*
X500010D02*
Y553499D01*
X503009D01*
X504008Y552499D01*
Y550500D01*
X503009Y549500D01*
X500010D01*
X506008Y546501D02*
X510007D01*
X512006Y553499D02*
X514005D01*
X513005D01*
Y547501D01*
X512006D01*
X514005D01*
X517004D02*
Y553499D01*
X521003Y547501D01*
Y553499D01*
X523002D02*
X527001D01*
X525002D01*
Y547501D01*
X529000Y546501D02*
X532999D01*
X534998Y553499D02*
Y547501D01*
X538997D01*
X540997Y553499D02*
X542996D01*
X541996D01*
Y547501D01*
X540997D01*
X542996D01*
X549994Y552499D02*
X548994Y553499D01*
X546994D01*
X545995Y552499D01*
Y548500D01*
X546994Y547501D01*
X548994D01*
X549994Y548500D01*
Y550500D01*
X547994D01*
X551993Y553499D02*
Y547501D01*
Y550500D01*
X555992D01*
Y553499D01*
Y547501D01*
X557991Y553499D02*
X561990D01*
X559990D01*
Y547501D01*
X563989D02*
X565988D01*
X564989D01*
Y553499D01*
X563989Y552499D01*
X500411Y243587D02*
X504410D01*
X502410D01*
Y237589D01*
X506409D02*
Y243587D01*
X509408D01*
X510408Y242587D01*
Y240588D01*
X509408Y239588D01*
X506409D01*
X512407Y236589D02*
X516406D01*
X522404Y242587D02*
X521404Y243587D01*
X519405D01*
X518405Y242587D01*
Y238589D01*
X519405Y237589D01*
X521404D01*
X522404Y238589D01*
Y240588D01*
X520404D01*
X524403Y237589D02*
Y243587D01*
X527402D01*
X528402Y242587D01*
Y240588D01*
X527402Y239588D01*
X524403D01*
X534400Y242587D02*
X533400Y243587D01*
X531401D01*
X530401Y242587D01*
Y241588D01*
X531401Y240588D01*
X533400D01*
X534400Y239588D01*
Y238589D01*
X533400Y237589D01*
X531401D01*
X530401Y238589D01*
X536399Y236589D02*
X540398D01*
X542397Y243587D02*
Y239588D01*
X544397Y237589D01*
X546396Y239588D01*
Y243587D01*
X551395D02*
X549395D01*
X548395Y242587D01*
Y238589D01*
X549395Y237589D01*
X551395D01*
X552394Y238589D01*
Y242587D01*
X551395Y243587D01*
X554393D02*
Y238589D01*
X555393Y237589D01*
X557393D01*
X558392Y238589D01*
Y243587D01*
X560392D02*
X564390D01*
X562391D01*
Y237589D01*
X566390D02*
X568389D01*
X567389D01*
Y243587D01*
X566390Y242587D01*
X506510Y117787D02*
X510509D01*
X508509D01*
Y111789D01*
X512508D02*
Y117787D01*
X515507D01*
X516507Y116787D01*
Y114788D01*
X515507Y113788D01*
X512508D01*
X518506Y110789D02*
X522505D01*
X528503Y116787D02*
X527503Y117787D01*
X525504D01*
X524504Y116787D01*
Y112789D01*
X525504Y111789D01*
X527503D01*
X528503Y112789D01*
Y114788D01*
X526504D01*
X530502Y111789D02*
Y117787D01*
X533501D01*
X534501Y116787D01*
Y114788D01*
X533501Y113788D01*
X530502D01*
X540499Y116787D02*
X539499Y117787D01*
X537500D01*
X536500Y116787D01*
Y115788D01*
X537500Y114788D01*
X539499D01*
X540499Y113788D01*
Y112789D01*
X539499Y111789D01*
X537500D01*
X536500Y112789D01*
X542498Y110789D02*
X546497D01*
X548496Y117787D02*
Y113788D01*
X550496Y111789D01*
X552495Y113788D01*
Y117787D01*
X558493Y116787D02*
X557493Y117787D01*
X555494D01*
X554494Y116787D01*
Y112789D01*
X555494Y111789D01*
X557493D01*
X558493Y112789D01*
X564491Y116787D02*
X563492Y117787D01*
X561492D01*
X560493Y116787D01*
Y112789D01*
X561492Y111789D01*
X563492D01*
X564491Y112789D01*
X566491Y111789D02*
X568490D01*
X567490D01*
Y117787D01*
X566491Y116787D01*
X512009Y217987D02*
X516008D01*
X514008D01*
Y211989D01*
X518007D02*
Y217987D01*
X521006D01*
X522006Y216987D01*
Y214988D01*
X521006Y213988D01*
X518007D01*
X524005Y210989D02*
X528004D01*
X534002Y216987D02*
X533002Y217987D01*
X531003D01*
X530003Y216987D01*
Y212989D01*
X531003Y211989D01*
X533002D01*
X534002Y212989D01*
Y214988D01*
X532003D01*
X536001Y211989D02*
Y217987D01*
X539000D01*
X540000Y216987D01*
Y214988D01*
X539000Y213988D01*
X536001D01*
X545998Y216987D02*
X544998Y217987D01*
X542999D01*
X541999Y216987D01*
Y215988D01*
X542999Y214988D01*
X544998D01*
X545998Y213988D01*
Y212989D01*
X544998Y211989D01*
X542999D01*
X541999Y212989D01*
X547997Y210989D02*
X551996D01*
X553996Y217987D02*
X557994D01*
X555995D01*
Y211989D01*
X559994Y217987D02*
X563992Y211989D01*
Y217987D02*
X559994Y211989D01*
X565992D02*
X567991D01*
X566991D01*
Y217987D01*
X565992Y216987D01*
X512009Y192987D02*
X516008D01*
X514008D01*
Y186989D01*
X518007D02*
Y192987D01*
X521006D01*
X522006Y191987D01*
Y189988D01*
X521006Y188988D01*
X518007D01*
X524005Y185989D02*
X528004D01*
X534002Y191987D02*
X533002Y192987D01*
X531003D01*
X530003Y191987D01*
Y187989D01*
X531003Y186989D01*
X533002D01*
X534002Y187989D01*
Y189988D01*
X532003D01*
X536001Y186989D02*
Y192987D01*
X539000D01*
X540000Y191987D01*
Y189988D01*
X539000Y188988D01*
X536001D01*
X545998Y191987D02*
X544998Y192987D01*
X542999D01*
X541999Y191987D01*
Y190988D01*
X542999Y189988D01*
X544998D01*
X545998Y188988D01*
Y187989D01*
X544998Y186989D01*
X542999D01*
X541999Y187989D01*
X547997Y185989D02*
X551996D01*
X553996Y186989D02*
Y192987D01*
X556994D01*
X557994Y191987D01*
Y189988D01*
X556994Y188988D01*
X553996D01*
X555995D02*
X557994Y186989D01*
X559994Y192987D02*
X563992Y186989D01*
Y192987D02*
X559994Y186989D01*
X565992D02*
X567991D01*
X566991D01*
Y192987D01*
X565992Y191987D01*
X506510Y143187D02*
X510509D01*
X508509D01*
Y137189D01*
X512508D02*
Y143187D01*
X515507D01*
X516507Y142187D01*
Y140188D01*
X515507Y139188D01*
X512508D01*
X518506Y136189D02*
X522505D01*
X528503Y142187D02*
X527503Y143187D01*
X525504D01*
X524504Y142187D01*
Y138189D01*
X525504Y137189D01*
X527503D01*
X528503Y138189D01*
Y140188D01*
X526504D01*
X530502Y137189D02*
Y143187D01*
X533501D01*
X534501Y142187D01*
Y140188D01*
X533501Y139188D01*
X530502D01*
X540499Y142187D02*
X539499Y143187D01*
X537500D01*
X536500Y142187D01*
Y141188D01*
X537500Y140188D01*
X539499D01*
X540499Y139188D01*
Y138189D01*
X539499Y137189D01*
X537500D01*
X536500Y138189D01*
X542498Y136189D02*
X546497D01*
X548496Y137189D02*
Y143187D01*
X551496D01*
X552495Y142187D01*
Y140188D01*
X551496Y139188D01*
X548496D01*
X550496D02*
X552495Y137189D01*
X558493Y142187D02*
X557493Y143187D01*
X555494D01*
X554494Y142187D01*
Y141188D01*
X555494Y140188D01*
X557493D01*
X558493Y139188D01*
Y138189D01*
X557493Y137189D01*
X555494D01*
X554494Y138189D01*
X560493Y143187D02*
X564491D01*
X562492D01*
Y137189D01*
X566491D02*
X568490D01*
X567490D01*
Y143187D01*
X566491Y142187D01*
X489213Y168787D02*
X493212D01*
X491212D01*
Y162789D01*
X495211D02*
Y168787D01*
X498210D01*
X499210Y167787D01*
Y165788D01*
X498210Y164788D01*
X495211D01*
X501209Y161789D02*
X505208D01*
X511206Y167787D02*
X510206Y168787D01*
X508207D01*
X507207Y167787D01*
Y163789D01*
X508207Y162789D01*
X510206D01*
X511206Y163789D01*
Y165788D01*
X509206D01*
X513205Y162789D02*
Y168787D01*
X516204D01*
X517204Y167787D01*
Y165788D01*
X516204Y164788D01*
X513205D01*
X523202Y167787D02*
X522202Y168787D01*
X520203D01*
X519203Y167787D01*
Y166788D01*
X520203Y165788D01*
X522202D01*
X523202Y164788D01*
Y163789D01*
X522202Y162789D01*
X520203D01*
X519203Y163789D01*
X525201Y161789D02*
X529200D01*
X531199Y168787D02*
Y162789D01*
X535198D01*
X541196Y167787D02*
X540196Y168787D01*
X538197D01*
X537197Y167787D01*
Y163789D01*
X538197Y162789D01*
X540196D01*
X541196Y163789D01*
X543195Y168787D02*
Y162789D01*
Y164788D01*
X547194Y168787D01*
X544195Y165788D01*
X547194Y162789D01*
X549193Y168787D02*
X551193D01*
X550193D01*
Y162789D01*
X549193D01*
X551193D01*
X554192D02*
Y168787D01*
X558190Y162789D01*
Y168787D01*
X560190D02*
Y162789D01*
X563189D01*
X564188Y163789D01*
Y167787D01*
X563189Y168787D01*
X560190D01*
X566188Y162789D02*
X568187D01*
X567188D01*
Y168787D01*
X566188Y167787D01*
X482014Y267987D02*
X486013D01*
X484013D01*
Y261989D01*
X488012D02*
Y267987D01*
X491011D01*
X492011Y266987D01*
Y264988D01*
X491011Y263988D01*
X488012D01*
X494010Y260989D02*
X498009D01*
X504007Y266987D02*
X503007Y267987D01*
X501008D01*
X500008Y266987D01*
Y262989D01*
X501008Y261989D01*
X503007D01*
X504007Y262989D01*
Y264988D01*
X502007D01*
X506006Y261989D02*
Y267987D01*
X509005D01*
X510005Y266987D01*
Y264988D01*
X509005Y263988D01*
X506006D01*
X516003Y266987D02*
X515003Y267987D01*
X513004D01*
X512004Y266987D01*
Y265988D01*
X513004Y264988D01*
X515003D01*
X516003Y263988D01*
Y262989D01*
X515003Y261989D01*
X513004D01*
X512004Y262989D01*
X518002Y260989D02*
X522001D01*
X524000Y261989D02*
Y265988D01*
X526000Y267987D01*
X527999Y265988D01*
Y261989D01*
Y264988D01*
X524000D01*
X529998Y261989D02*
Y267987D01*
X533997Y261989D01*
Y267987D01*
X535996D02*
X539995D01*
X537996D01*
Y261989D01*
X545993Y267987D02*
X541994D01*
Y261989D01*
X545993D01*
X541994Y264988D02*
X543994D01*
X547993Y261989D02*
Y267987D01*
X551991Y261989D01*
Y267987D01*
X553991Y261989D02*
Y267987D01*
X557989Y261989D01*
Y267987D01*
X559989Y261989D02*
Y265988D01*
X561988Y267987D01*
X563987Y265988D01*
Y261989D01*
Y264988D01*
X559989D01*
X565987Y261989D02*
X567986D01*
X566986D01*
Y267987D01*
X565987Y266987D01*
X55011Y263499D02*
X59010D01*
X57011D01*
Y257501D01*
X61009D02*
Y263499D01*
X64008D01*
X65008Y262499D01*
Y260500D01*
X64008Y259500D01*
X61009D01*
X67007Y256501D02*
X71006D01*
X77004Y262499D02*
X76004Y263499D01*
X74005D01*
X73005Y262499D01*
Y258501D01*
X74005Y257501D01*
X76004D01*
X77004Y258501D01*
Y260500D01*
X75005D01*
X79004Y257501D02*
Y263499D01*
X83002Y257501D01*
Y263499D01*
X85002D02*
Y257501D01*
X88001D01*
X89000Y258501D01*
Y262499D01*
X88001Y263499D01*
X85002D01*
X91000Y256501D02*
X94998D01*
X96998Y257501D02*
Y263499D01*
X99997D01*
X100996Y262499D01*
Y260500D01*
X99997Y259500D01*
X96998D01*
X105995Y263499D02*
X103996D01*
X102996Y262499D01*
Y258501D01*
X103996Y257501D01*
X105995D01*
X106994Y258501D01*
Y262499D01*
X105995Y263499D01*
X108994D02*
Y257501D01*
X110993Y259500D01*
X112993Y257501D01*
Y263499D01*
X118991D02*
X114992D01*
Y257501D01*
X118991D01*
X114992Y260500D02*
X116991D01*
X120990Y257501D02*
Y263499D01*
X123989D01*
X124989Y262499D01*
Y260500D01*
X123989Y259500D01*
X120990D01*
X122989D02*
X124989Y257501D01*
X493512Y478499D02*
X497510D01*
X495511D01*
Y472501D01*
X499510D02*
Y478499D01*
X502509D01*
X503509Y477499D01*
Y475500D01*
X502509Y474500D01*
X499510D01*
X505508Y471501D02*
X509507D01*
X515505Y477499D02*
X514505Y478499D01*
X512506D01*
X511506Y477499D01*
Y473500D01*
X512506Y472501D01*
X514505D01*
X515505Y473500D01*
Y475500D01*
X513505D01*
X517504Y472501D02*
Y478499D01*
X521503Y472501D01*
Y478499D01*
X523502D02*
Y472501D01*
X526501D01*
X527501Y473500D01*
Y477499D01*
X526501Y478499D01*
X523502D01*
X529500Y471501D02*
X533499D01*
X535498Y478499D02*
Y472501D01*
X539497D01*
X541496Y478499D02*
X543496D01*
X542496D01*
Y472501D01*
X541496D01*
X543496D01*
X550493Y477499D02*
X549494Y478499D01*
X547494D01*
X546495Y477499D01*
Y473500D01*
X547494Y472501D01*
X549494D01*
X550493Y473500D01*
Y475500D01*
X548494D01*
X552493Y478499D02*
Y472501D01*
Y475500D01*
X556491D01*
Y478499D01*
Y472501D01*
X558491Y478499D02*
X562490D01*
X560490D01*
Y472501D01*
X564489D02*
X566488D01*
X565488D01*
Y478499D01*
X564489Y477499D01*
X506410Y92987D02*
X510409D01*
X508409D01*
Y86989D01*
X512408D02*
Y92987D01*
X515407D01*
X516407Y91987D01*
Y89988D01*
X515407Y88988D01*
X512408D01*
X518406Y85989D02*
X522405D01*
X528403Y91987D02*
X527403Y92987D01*
X525404D01*
X524404Y91987D01*
Y87989D01*
X525404Y86989D01*
X527403D01*
X528403Y87989D01*
Y89988D01*
X526404D01*
X530402Y86989D02*
Y92987D01*
X534401Y86989D01*
Y92987D01*
X536400D02*
Y86989D01*
X539399D01*
X540399Y87989D01*
Y91987D01*
X539399Y92987D01*
X536400D01*
X542398Y85989D02*
X546397D01*
X552395Y91987D02*
X551396Y92987D01*
X549396D01*
X548396Y91987D01*
Y87989D01*
X549396Y86989D01*
X551396D01*
X552395Y87989D01*
Y89988D01*
X550396D01*
X554394Y86989D02*
Y92987D01*
X557394D01*
X558393Y91987D01*
Y89988D01*
X557394Y88988D01*
X554394D01*
X564391Y91987D02*
X563392Y92987D01*
X561392D01*
X560393Y91987D01*
Y90988D01*
X561392Y89988D01*
X563392D01*
X564391Y88988D01*
Y87989D01*
X563392Y86989D01*
X561392D01*
X560393Y87989D01*
X566391Y86989D02*
X568390D01*
X567390D01*
Y92987D01*
X566391Y91987D01*
X6501Y297012D02*
Y301011D01*
Y299012D01*
X12499D01*
Y303010D02*
X6501D01*
Y306009D01*
X7501Y307009D01*
X9500D01*
X10500Y306009D01*
Y303010D01*
X13499Y309008D02*
Y313007D01*
X6501Y315006D02*
X12499D01*
Y318005D01*
X11500Y319005D01*
X10500D01*
X9500Y318005D01*
Y315006D01*
Y318005D01*
X8501Y319005D01*
X7501D01*
X6501Y318005D01*
Y315006D01*
Y325003D02*
Y321005D01*
X12499D01*
Y325003D01*
X9500Y321005D02*
Y323004D01*
X6501Y331001D02*
Y327003D01*
X9500D01*
Y329002D01*
Y327003D01*
X12499D01*
X6501Y336000D02*
Y334000D01*
X7501Y333001D01*
X11500D01*
X12499Y334000D01*
Y336000D01*
X11500Y336999D01*
X7501D01*
X6501Y336000D01*
X12499Y338999D02*
X6501D01*
Y341998D01*
X7501Y342997D01*
X9500D01*
X10500Y341998D01*
Y338999D01*
Y340998D02*
X12499Y342997D01*
X6501Y348995D02*
Y344997D01*
X12499D01*
Y348995D01*
X9500Y344997D02*
Y346996D01*
X13499Y350995D02*
Y354994D01*
X12499Y356993D02*
X6501D01*
Y359992D01*
X7501Y360992D01*
X9500D01*
X10500Y359992D01*
Y356993D01*
Y358992D02*
X12499Y360992D01*
X6501Y366990D02*
Y362991D01*
X12499D01*
Y366990D01*
X9500Y362991D02*
Y364990D01*
X7501Y372988D02*
X6501Y371988D01*
Y369989D01*
X7501Y368989D01*
X11500D01*
X12499Y369989D01*
Y371988D01*
X11500Y372988D01*
X9500D01*
Y370988D01*
X49373Y208499D02*
X53372D01*
X51373D01*
Y202501D01*
X55371D02*
Y208499D01*
X58371D01*
X59370Y207499D01*
Y205500D01*
X58371Y204500D01*
X55371D01*
X61370Y201501D02*
X65368D01*
X67368Y202501D02*
Y206500D01*
X69367Y208499D01*
X71366Y206500D01*
Y202501D01*
Y205500D01*
X67368D01*
X77364Y208499D02*
X73366D01*
Y205500D01*
X75365D01*
X73366D01*
Y202501D01*
X79364Y208499D02*
X83363D01*
X81363D01*
Y202501D01*
X89360Y208499D02*
X85362D01*
Y202501D01*
X89360D01*
X85362Y205500D02*
X87361D01*
X91360Y202501D02*
Y208499D01*
X94359D01*
X95359Y207499D01*
Y205500D01*
X94359Y204500D01*
X91360D01*
X93359D02*
X95359Y202501D01*
X97358Y201501D02*
X101357D01*
X103356Y202501D02*
Y208499D01*
X106355D01*
X107355Y207499D01*
Y205500D01*
X106355Y204500D01*
X103356D01*
X105355D02*
X107355Y202501D01*
X113353Y208499D02*
X109354D01*
Y202501D01*
X113353D01*
X109354Y205500D02*
X111353D01*
X119351Y207499D02*
X118351Y208499D01*
X116352D01*
X115352Y207499D01*
Y203501D01*
X116352Y202501D01*
X118351D01*
X119351Y203501D01*
Y205500D01*
X117351D01*
X121350Y201501D02*
X125349D01*
X131347Y208499D02*
X127348D01*
Y205500D01*
X129348Y206500D01*
X130347D01*
X131347Y205500D01*
Y203501D01*
X130347Y202501D01*
X128348D01*
X127348Y203501D01*
X133346Y208499D02*
Y204500D01*
X135346Y202501D01*
X137345Y204500D01*
Y208499D01*
X139344Y207499D02*
X140344Y208499D01*
X142343D01*
X143343Y207499D01*
Y203501D01*
X142343Y202501D01*
X140344D01*
X139344Y203501D01*
Y207499D01*
X73015Y358499D02*
X77014D01*
X75015D01*
Y352501D01*
X79013D02*
Y358499D01*
X82012D01*
X83012Y357499D01*
Y355500D01*
X82012Y354500D01*
X79013D01*
X85011Y351501D02*
X89010D01*
X91009Y352501D02*
Y356500D01*
X93009Y358499D01*
X95008Y356500D01*
Y352501D01*
Y355500D01*
X91009D01*
X101006Y358499D02*
X97007D01*
Y355500D01*
X99007D01*
X97007D01*
Y352501D01*
X103006Y358499D02*
X107004D01*
X105005D01*
Y352501D01*
X113002Y358499D02*
X109004D01*
Y352501D01*
X113002D01*
X109004Y355500D02*
X111003D01*
X115002Y352501D02*
Y358499D01*
X118001D01*
X119000Y357499D01*
Y355500D01*
X118001Y354500D01*
X115002D01*
X117001D02*
X119000Y352501D01*
X121000Y351501D02*
X124998D01*
X126998Y352501D02*
Y358499D01*
X129997D01*
X130997Y357499D01*
Y355500D01*
X129997Y354500D01*
X126998D01*
X128997D02*
X130997Y352501D01*
X136995Y358499D02*
X132996D01*
Y352501D01*
X136995D01*
X132996Y355500D02*
X134995D01*
X142993Y357499D02*
X141993Y358499D01*
X139994D01*
X138994Y357499D01*
Y353501D01*
X139994Y352501D01*
X141993D01*
X142993Y353501D01*
Y355500D01*
X140993D01*
X144992Y351501D02*
X148991D01*
X150990Y357499D02*
X151990Y358499D01*
X153989D01*
X154989Y357499D01*
Y356500D01*
X153989Y355500D01*
X152989D01*
X153989D01*
X154989Y354500D01*
Y353501D01*
X153989Y352501D01*
X151990D01*
X150990Y353501D01*
X156988Y358499D02*
Y354500D01*
X158987Y352501D01*
X160987Y354500D01*
Y358499D01*
X162986Y357499D02*
X163986Y358499D01*
X165985D01*
X166985Y357499D01*
Y356500D01*
X165985Y355500D01*
X164985D01*
X165985D01*
X166985Y354500D01*
Y353501D01*
X165985Y352501D01*
X163986D01*
X162986Y353501D01*
X141019Y133499D02*
X145018D01*
X143018D01*
Y127501D01*
X147017D02*
Y133499D01*
X150016D01*
X151016Y132499D01*
Y130500D01*
X150016Y129500D01*
X147017D01*
X153015Y126501D02*
X157014D01*
X159013Y127501D02*
Y131500D01*
X161013Y133499D01*
X163012Y131500D01*
Y127501D01*
Y130500D01*
X159013D01*
X169010Y133499D02*
X165011D01*
Y130500D01*
X167011D01*
X165011D01*
Y127501D01*
X171009Y133499D02*
X175008D01*
X173009D01*
Y127501D01*
X181006Y133499D02*
X177007D01*
Y127501D01*
X181006D01*
X177007Y130500D02*
X179007D01*
X183005Y127501D02*
Y133499D01*
X186004D01*
X187004Y132499D01*
Y130500D01*
X186004Y129500D01*
X183005D01*
X185005D02*
X187004Y127501D01*
X189004Y126501D02*
X193002D01*
X199000Y132499D02*
X198001Y133499D01*
X196001D01*
X195002Y132499D01*
Y131500D01*
X196001Y130500D01*
X198001D01*
X199000Y129500D01*
Y128500D01*
X198001Y127501D01*
X196001D01*
X195002Y128500D01*
X201000Y133499D02*
Y128500D01*
X201999Y127501D01*
X203999D01*
X204998Y128500D01*
Y133499D01*
X206998Y127501D02*
Y133499D01*
X209997D01*
X210997Y132499D01*
Y130500D01*
X209997Y129500D01*
X206998D01*
X212996Y127501D02*
Y133499D01*
X215995D01*
X216995Y132499D01*
Y130500D01*
X215995Y129500D01*
X212996D01*
X214995D02*
X216995Y127501D01*
X218994Y133499D02*
Y129500D01*
X220993Y127501D01*
X222993Y129500D01*
Y133499D01*
X228991Y132499D02*
X227991Y133499D01*
X225992D01*
X224992Y132499D01*
Y131500D01*
X225992Y130500D01*
X227991D01*
X228991Y129500D01*
Y128500D01*
X227991Y127501D01*
X225992D01*
X224992Y128500D01*
X230990Y127501D02*
Y133499D01*
X233989D01*
X234989Y132499D01*
Y130500D01*
X233989Y129500D01*
X230990D01*
X232989D02*
X234989Y127501D01*
X236988Y126501D02*
X240987D01*
X246985Y133499D02*
X242986D01*
Y130500D01*
X244985Y131500D01*
X245985D01*
X246985Y130500D01*
Y128500D01*
X245985Y127501D01*
X243986D01*
X242986Y128500D01*
X248984Y133499D02*
Y129500D01*
X250984Y127501D01*
X252983Y129500D01*
Y133499D01*
X254982Y132499D02*
X255982Y133499D01*
X257981D01*
X258981Y132499D01*
Y128500D01*
X257981Y127501D01*
X255982D01*
X254982Y128500D01*
Y132499D01*
X136061Y193499D02*
X140059D01*
X138060D01*
Y187501D01*
X142059D02*
Y193499D01*
X145058D01*
X146057Y192499D01*
Y190500D01*
X145058Y189500D01*
X142059D01*
X148057Y186501D02*
X152055D01*
X154055Y187501D02*
Y193499D01*
X156054Y191499D01*
X158053Y193499D01*
Y187501D01*
X160053D02*
Y191499D01*
X162052Y193499D01*
X164051Y191499D01*
Y187501D01*
Y190500D01*
X160053D01*
X166051Y187501D02*
Y193499D01*
X170050Y187501D01*
Y193499D01*
X172049Y186501D02*
X176048D01*
X178047Y187501D02*
Y193499D01*
X181046D01*
X182046Y192499D01*
Y190500D01*
X181046Y189500D01*
X178047D01*
X180046D02*
X182046Y187501D01*
X188044Y192499D02*
X187044Y193499D01*
X185045D01*
X184045Y192499D01*
Y191499D01*
X185045Y190500D01*
X187044D01*
X188044Y189500D01*
Y188500D01*
X187044Y187501D01*
X185045D01*
X184045Y188500D01*
X190043Y193499D02*
X194042D01*
X192042D01*
Y187501D01*
X196041Y186501D02*
X200040D01*
X206038Y193499D02*
X202039D01*
Y190500D01*
X204039Y191499D01*
X205038D01*
X206038Y190500D01*
Y188500D01*
X205038Y187501D01*
X203039D01*
X202039Y188500D01*
X208037Y193499D02*
Y189500D01*
X210037Y187501D01*
X212036Y189500D01*
Y193499D01*
X214035Y192499D02*
X215035Y193499D01*
X217034D01*
X218034Y192499D01*
Y188500D01*
X217034Y187501D01*
X215035D01*
X214035Y188500D01*
Y192499D01*
X166019Y313499D02*
X170018D01*
X168018D01*
Y307501D01*
X172017D02*
Y313499D01*
X175016D01*
X176016Y312499D01*
Y310500D01*
X175016Y309500D01*
X172017D01*
X178015Y306501D02*
X182014D01*
X184013Y307501D02*
Y311500D01*
X186013Y313499D01*
X188012Y311500D01*
Y307501D01*
Y310500D01*
X184013D01*
X194010Y313499D02*
X190011D01*
Y310500D01*
X192011D01*
X190011D01*
Y307501D01*
X196009Y313499D02*
X200008D01*
X198009D01*
Y307501D01*
X206006Y313499D02*
X202007D01*
Y307501D01*
X206006D01*
X202007Y310500D02*
X204007D01*
X208005Y307501D02*
Y313499D01*
X211004D01*
X212004Y312499D01*
Y310500D01*
X211004Y309500D01*
X208005D01*
X210005D02*
X212004Y307501D01*
X214004Y306501D02*
X218002D01*
X224000Y312499D02*
X223001Y313499D01*
X221001D01*
X220002Y312499D01*
Y311500D01*
X221001Y310500D01*
X223001D01*
X224000Y309500D01*
Y308501D01*
X223001Y307501D01*
X221001D01*
X220002Y308501D01*
X226000Y313499D02*
Y308501D01*
X226999Y307501D01*
X228999D01*
X229998Y308501D01*
Y313499D01*
X231998Y307501D02*
Y313499D01*
X234997D01*
X235997Y312499D01*
Y310500D01*
X234997Y309500D01*
X231998D01*
X237996Y307501D02*
Y313499D01*
X240995D01*
X241995Y312499D01*
Y310500D01*
X240995Y309500D01*
X237996D01*
X239995D02*
X241995Y307501D01*
X243994Y313499D02*
Y309500D01*
X245993Y307501D01*
X247993Y309500D01*
Y313499D01*
X253991Y312499D02*
X252991Y313499D01*
X250992D01*
X249992Y312499D01*
Y311500D01*
X250992Y310500D01*
X252991D01*
X253991Y309500D01*
Y308501D01*
X252991Y307501D01*
X250992D01*
X249992Y308501D01*
X255990Y307501D02*
Y313499D01*
X258989D01*
X259989Y312499D01*
Y310500D01*
X258989Y309500D01*
X255990D01*
X257989D02*
X259989Y307501D01*
X261988Y306501D02*
X265987D01*
X267986Y312499D02*
X268986Y313499D01*
X270985D01*
X271985Y312499D01*
Y311500D01*
X270985Y310500D01*
X269985D01*
X270985D01*
X271985Y309500D01*
Y308501D01*
X270985Y307501D01*
X268986D01*
X267986Y308501D01*
X273984Y313499D02*
Y309500D01*
X275984Y307501D01*
X277983Y309500D01*
Y313499D01*
X279982Y312499D02*
X280982Y313499D01*
X282981D01*
X283981Y312499D01*
Y311500D01*
X282981Y310500D01*
X281982D01*
X282981D01*
X283981Y309500D01*
Y308501D01*
X282981Y307501D01*
X280982D01*
X279982Y308501D01*
X150273Y343499D02*
X154272D01*
X152272D01*
Y337501D01*
X156271D02*
Y343499D01*
X159270D01*
X160270Y342499D01*
Y340500D01*
X159270Y339500D01*
X156271D01*
X162269Y336501D02*
X166268D01*
X168267Y337501D02*
Y343499D01*
X170267Y341499D01*
X172266Y343499D01*
Y337501D01*
X174265D02*
Y341499D01*
X176265Y343499D01*
X178264Y341499D01*
Y337501D01*
Y340500D01*
X174265D01*
X180263Y337501D02*
Y343499D01*
X184262Y337501D01*
Y343499D01*
X186261Y336501D02*
X190260D01*
X192260Y337501D02*
Y343499D01*
X195258D01*
X196258Y342499D01*
Y340500D01*
X195258Y339500D01*
X192260D01*
X194259D02*
X196258Y337501D01*
X202256Y342499D02*
X201257Y343499D01*
X199257D01*
X198258Y342499D01*
Y341499D01*
X199257Y340500D01*
X201257D01*
X202256Y339500D01*
Y338500D01*
X201257Y337501D01*
X199257D01*
X198258Y338500D01*
X204256Y343499D02*
X208254D01*
X206255D01*
Y337501D01*
X210254Y336501D02*
X214252D01*
X216252Y342499D02*
X217251Y343499D01*
X219251D01*
X220251Y342499D01*
Y341499D01*
X219251Y340500D01*
X218251D01*
X219251D01*
X220251Y339500D01*
Y338500D01*
X219251Y337501D01*
X217251D01*
X216252Y338500D01*
X222250Y343499D02*
Y339500D01*
X224249Y337501D01*
X226249Y339500D01*
Y343499D01*
X228248Y342499D02*
X229248Y343499D01*
X231247D01*
X232247Y342499D01*
Y341499D01*
X231247Y340500D01*
X230247D01*
X231247D01*
X232247Y339500D01*
Y338500D01*
X231247Y337501D01*
X229248D01*
X228248Y338500D01*
X283010Y393499D02*
X287009D01*
X285010D01*
Y387501D01*
X289008D02*
Y393499D01*
X292007D01*
X293007Y392499D01*
Y390500D01*
X292007Y389500D01*
X289008D01*
X295006Y386501D02*
X299005D01*
X305003Y392499D02*
X304004Y393499D01*
X302004D01*
X301005Y392499D01*
Y388500D01*
X302004Y387501D01*
X304004D01*
X305003Y388500D01*
Y390500D01*
X303004D01*
X307003Y387501D02*
Y393499D01*
X311001Y387501D01*
Y393499D01*
X313001D02*
Y387501D01*
X316000D01*
X316999Y388500D01*
Y392499D01*
X316000Y393499D01*
X313001D01*
X318999Y386501D02*
X322997D01*
X324997Y387501D02*
Y393499D01*
X326996Y391499D01*
X328995Y393499D01*
Y387501D01*
X334994Y392499D02*
X333994Y393499D01*
X331995D01*
X330995Y392499D01*
Y388500D01*
X331995Y387501D01*
X333994D01*
X334994Y388500D01*
X336993Y393499D02*
Y388500D01*
X337993Y387501D01*
X339992D01*
X340992Y388500D01*
Y393499D01*
X342991Y392499D02*
X343991Y393499D01*
X345990D01*
X346990Y392499D01*
Y391499D01*
X345990Y390500D01*
X344990D01*
X345990D01*
X346990Y389500D01*
Y388500D01*
X345990Y387501D01*
X343991D01*
X342991Y388500D01*
X283054Y454516D02*
X287052D01*
X285053D01*
Y448517D01*
X289052D02*
Y454516D01*
X292051D01*
X293051Y453516D01*
Y451516D01*
X292051Y450517D01*
X289052D01*
X295050Y447518D02*
X299048D01*
X305047Y453516D02*
X304047Y454516D01*
X302048D01*
X301048Y453516D01*
Y449517D01*
X302048Y448517D01*
X304047D01*
X305047Y449517D01*
Y451516D01*
X303047D01*
X307046Y448517D02*
Y454516D01*
X311045Y448517D01*
Y454516D01*
X313044D02*
Y448517D01*
X316043D01*
X317043Y449517D01*
Y453516D01*
X316043Y454516D01*
X313044D01*
X319042Y447518D02*
X323041D01*
X325040Y448517D02*
Y454516D01*
X327040Y452516D01*
X329039Y454516D01*
Y448517D01*
X335037Y453516D02*
X334037Y454516D01*
X332038D01*
X331038Y453516D01*
Y449517D01*
X332038Y448517D01*
X334037D01*
X335037Y449517D01*
X337036Y454516D02*
Y449517D01*
X338036Y448517D01*
X340035D01*
X341035Y449517D01*
Y454516D01*
X347033Y448517D02*
X343034D01*
X347033Y452516D01*
Y453516D01*
X346033Y454516D01*
X344034D01*
X343034Y453516D01*
X283054Y424515D02*
X287052D01*
X285053D01*
Y418517D01*
X289052D02*
Y424515D01*
X292051D01*
X293051Y423516D01*
Y421516D01*
X292051Y420517D01*
X289052D01*
X295050Y417518D02*
X299048D01*
X305047Y423516D02*
X304047Y424515D01*
X302048D01*
X301048Y423516D01*
Y419517D01*
X302048Y418517D01*
X304047D01*
X305047Y419517D01*
Y421516D01*
X303047D01*
X307046Y418517D02*
Y424515D01*
X311045Y418517D01*
Y424515D01*
X313044D02*
Y418517D01*
X316043D01*
X317043Y419517D01*
Y423516D01*
X316043Y424515D01*
X313044D01*
X319042Y417518D02*
X323041D01*
X325040Y418517D02*
Y424515D01*
X327040Y422516D01*
X329039Y424515D01*
Y418517D01*
X335037Y423516D02*
X334037Y424515D01*
X332038D01*
X331038Y423516D01*
Y419517D01*
X332038Y418517D01*
X334037D01*
X335037Y419517D01*
X337036Y424515D02*
Y419517D01*
X338036Y418517D01*
X340035D01*
X341035Y419517D01*
Y424515D01*
X343034Y418517D02*
X345034D01*
X344034D01*
Y424515D01*
X343034Y423516D01*
X321009Y653499D02*
X325008D01*
X323009D01*
Y647501D01*
X327007D02*
Y653499D01*
X330007D01*
X331006Y652499D01*
Y650500D01*
X330007Y649500D01*
X327007D01*
X333005Y646501D02*
X337004D01*
X339004Y647501D02*
Y653499D01*
X341003Y651500D01*
X343002Y653499D01*
Y647501D01*
X349000Y652499D02*
X348001Y653499D01*
X346001D01*
X345002Y652499D01*
Y648500D01*
X346001Y647501D01*
X348001D01*
X349000Y648500D01*
X351000Y653499D02*
Y648500D01*
X351999Y647501D01*
X353999D01*
X354998Y648500D01*
Y653499D01*
X356998Y646501D02*
X360997D01*
X362996Y647501D02*
Y653499D01*
X365995D01*
X366995Y652499D01*
Y650500D01*
X365995Y649500D01*
X362996D01*
X364995D02*
X366995Y647501D01*
X372993Y652499D02*
X371993Y653499D01*
X369993D01*
X368994Y652499D01*
Y651500D01*
X369993Y650500D01*
X371993D01*
X372993Y649500D01*
Y648500D01*
X371993Y647501D01*
X369993D01*
X368994Y648500D01*
X374992Y653499D02*
X378991D01*
X376991D01*
Y647501D01*
X277452Y592716D02*
X276453Y593715D01*
X274453D01*
X273454Y592716D01*
Y591716D01*
X274453Y590716D01*
X276453D01*
X277452Y589717D01*
Y588717D01*
X276453Y587717D01*
X274453D01*
X273454Y588717D01*
X279452Y593715D02*
Y587717D01*
X281451Y589717D01*
X283451Y587717D01*
Y593715D01*
X289448Y587717D02*
X285450D01*
X289448Y591716D01*
Y592716D01*
X288449Y593715D01*
X286450D01*
X285450Y592716D01*
X291448D02*
X292448Y593715D01*
X294447D01*
X295447Y592716D01*
Y588717D01*
X294447Y587717D01*
X292448D01*
X291448Y588717D01*
Y592716D01*
X297446Y587717D02*
X299445D01*
X298446D01*
Y593715D01*
X297446Y592716D01*
X272090Y703141D02*
X271090Y704141D01*
X269091D01*
X268091Y703141D01*
Y702141D01*
X269091Y701142D01*
X271090D01*
X272090Y700142D01*
Y699142D01*
X271090Y698143D01*
X269091D01*
X268091Y699142D01*
X274089Y704141D02*
Y698143D01*
X276089Y700142D01*
X278088Y698143D01*
Y704141D01*
X284086Y698143D02*
X280087D01*
X284086Y702141D01*
Y703141D01*
X283086Y704141D01*
X281087D01*
X280087Y703141D01*
X286085D02*
X287085Y704141D01*
X289084D01*
X290084Y703141D01*
Y699142D01*
X289084Y698143D01*
X287085D01*
X286085Y699142D01*
Y703141D01*
X292083D02*
X293083Y704141D01*
X295082D01*
X296082Y703141D01*
Y699142D01*
X295082Y698143D01*
X293083D01*
X292083Y699142D01*
Y703141D01*
X81001Y186999D02*
X80002Y187999D01*
X78002D01*
X77003Y186999D01*
Y186000D01*
X78002Y185000D01*
X80002D01*
X81001Y184000D01*
Y183001D01*
X80002Y182001D01*
X78002D01*
X77003Y183001D01*
X83001Y187999D02*
Y182001D01*
X85000Y184000D01*
X86999Y182001D01*
Y187999D01*
X88999Y186999D02*
X89998Y187999D01*
X91998D01*
X92997Y186999D01*
Y186000D01*
X91998Y185000D01*
X90998D01*
X91998D01*
X92997Y184000D01*
Y183001D01*
X91998Y182001D01*
X89998D01*
X88999Y183001D01*
X101001Y334149D02*
X100002Y335149D01*
X98002D01*
X97003Y334149D01*
Y333149D01*
X98002Y332150D01*
X100002D01*
X101001Y331150D01*
Y330150D01*
X100002Y329151D01*
X98002D01*
X97003Y330150D01*
X103001Y335149D02*
Y329151D01*
X105000Y331150D01*
X106999Y329151D01*
Y335149D01*
X112997Y329151D02*
X108999D01*
X112997Y333149D01*
Y334149D01*
X111998Y335149D01*
X109998D01*
X108999Y334149D01*
X287001Y151488D02*
X286001Y152487D01*
X284002D01*
X283002Y151488D01*
Y150488D01*
X284002Y149488D01*
X286001D01*
X287001Y148488D01*
Y147489D01*
X286001Y146489D01*
X284002D01*
X283002Y147489D01*
X289000Y152487D02*
Y146489D01*
X291000Y148488D01*
X292999Y146489D01*
Y152487D01*
X294998Y146489D02*
X296998D01*
X295998D01*
Y152487D01*
X294998Y151488D01*
X186204Y241201D02*
Y247199D01*
X189203D01*
X190202Y246199D01*
Y244200D01*
X189203Y243200D01*
X186204D01*
X188203D02*
X190202Y241201D01*
X196200D02*
X192202D01*
X196200Y245200D01*
Y246199D01*
X195201Y247199D01*
X193201D01*
X192202Y246199D01*
X198200D02*
X199199Y247199D01*
X201199D01*
X202198Y246199D01*
Y242201D01*
X201199Y241201D01*
X199199D01*
X198200Y242201D01*
Y246199D01*
X207197Y241201D02*
Y247199D01*
X204198Y244200D01*
X208196D01*
X297153Y598497D02*
Y604495D01*
X300152D01*
X301152Y603495D01*
Y601496D01*
X300152Y600496D01*
X297153D01*
X299152D02*
X301152Y598497D01*
X307150D02*
X303151D01*
X307150Y602496D01*
Y603495D01*
X306150Y604495D01*
X304151D01*
X303151Y603495D01*
X309149D02*
X310149Y604495D01*
X312148D01*
X313148Y603495D01*
Y599497D01*
X312148Y598497D01*
X310149D01*
X309149Y599497D01*
Y603495D01*
X315147D02*
X316147Y604495D01*
X318146D01*
X319146Y603495D01*
Y602496D01*
X318146Y601496D01*
X317147D01*
X318146D01*
X319146Y600496D01*
Y599497D01*
X318146Y598497D01*
X316147D01*
X315147Y599497D01*
X275053Y512001D02*
Y517999D01*
X278052D01*
X279052Y516999D01*
Y515000D01*
X278052Y514000D01*
X275053D01*
X277052D02*
X279052Y512001D01*
X285050D02*
X281051D01*
X285050Y516000D01*
Y516999D01*
X284050Y517999D01*
X282051D01*
X281051Y516999D01*
X287049D02*
X288049Y517999D01*
X290048D01*
X291048Y516999D01*
Y513001D01*
X290048Y512001D01*
X288049D01*
X287049Y513001D01*
Y516999D01*
X297046Y512001D02*
X293047D01*
X297046Y516000D01*
Y516999D01*
X296046Y517999D01*
X294047D01*
X293047Y516999D01*
X190003Y267001D02*
Y272999D01*
X193002D01*
X194002Y271999D01*
Y270000D01*
X193002Y269000D01*
X190003D01*
X192003D02*
X194002Y267001D01*
X200000D02*
X196001D01*
X200000Y271000D01*
Y271999D01*
X199000Y272999D01*
X197001D01*
X196001Y271999D01*
X201999D02*
X202999Y272999D01*
X204998D01*
X205998Y271999D01*
Y268001D01*
X204998Y267001D01*
X202999D01*
X201999Y268001D01*
Y271999D01*
X207997Y267001D02*
X209997D01*
X208997D01*
Y272999D01*
X207997Y271999D01*
X294988Y617001D02*
Y622999D01*
X297987D01*
X298987Y621999D01*
Y620000D01*
X297987Y619000D01*
X294988D01*
X296987D02*
X298987Y617001D01*
X304985D02*
X300986D01*
X304985Y621000D01*
Y621999D01*
X303985Y622999D01*
X301986D01*
X300986Y621999D01*
X306984D02*
X307984Y622999D01*
X309983D01*
X310983Y621999D01*
Y618001D01*
X309983Y617001D01*
X307984D01*
X306984Y618001D01*
Y621999D01*
X312982D02*
X313982Y622999D01*
X315981D01*
X316981Y621999D01*
Y618001D01*
X315981Y617001D01*
X313982D01*
X312982Y618001D01*
Y621999D01*
X140002Y172999D02*
Y168001D01*
X141001Y167001D01*
X143001D01*
X144000Y168001D01*
Y172999D01*
X148999Y167001D02*
Y172999D01*
X146000Y170000D01*
X149998D01*
X455002Y397001D02*
Y402999D01*
X458001D01*
X459000Y401999D01*
Y400000D01*
X458001Y399000D01*
X455002D01*
X457001D02*
X459000Y397001D01*
X461000Y402999D02*
X464998D01*
Y401999D01*
X461000Y398001D01*
Y397001D01*
X418939Y348930D02*
Y354928D01*
X421938D01*
X422937Y353928D01*
Y351929D01*
X421938Y350929D01*
X418939D01*
X420938D02*
X422937Y348930D01*
X428935Y354928D02*
X426936Y353928D01*
X424937Y351929D01*
Y349930D01*
X425936Y348930D01*
X427936D01*
X428935Y349930D01*
Y350929D01*
X427936Y351929D01*
X424937D01*
X105002Y133162D02*
Y139160D01*
X108001D01*
X109000Y138161D01*
Y136161D01*
X108001Y135162D01*
X105002D01*
X107001D02*
X109000Y133162D01*
X114998Y139160D02*
X111000D01*
Y136161D01*
X112999Y137161D01*
X113999D01*
X114998Y136161D01*
Y134162D01*
X113999Y133162D01*
X111999D01*
X111000Y134162D01*
X44454Y181817D02*
Y187815D01*
X47453D01*
X48452Y186816D01*
Y184816D01*
X47453Y183817D01*
X44454D01*
X46453D02*
X48452Y181817D01*
X53451D02*
Y187815D01*
X50452Y184816D01*
X54451D01*
X124411Y275151D02*
Y281149D01*
X127410D01*
X128410Y280149D01*
Y278150D01*
X127410Y277150D01*
X124411D01*
X126410D02*
X128410Y275151D01*
X130409Y280149D02*
X131409Y281149D01*
X133408D01*
X134408Y280149D01*
Y279149D01*
X133408Y278150D01*
X132408D01*
X133408D01*
X134408Y277150D01*
Y276150D01*
X133408Y275151D01*
X131409D01*
X130409Y276150D01*
X70002Y329151D02*
Y335149D01*
X73001D01*
X74000Y334149D01*
Y332150D01*
X73001Y331150D01*
X70002D01*
X72001D02*
X74000Y329151D01*
X79998D02*
X76000D01*
X79998Y333149D01*
Y334149D01*
X78999Y335149D01*
X76999D01*
X76000Y334149D01*
X301001Y221489D02*
Y227487D01*
X304000D01*
X305000Y226487D01*
Y224488D01*
X304000Y223488D01*
X301001D01*
X303001D02*
X305000Y221489D01*
X306999D02*
X308999D01*
X307999D01*
Y227487D01*
X306999Y226487D01*
X304665Y187489D02*
Y191488D01*
X303666Y192487D01*
X301666D01*
X300667Y191488D01*
Y187489D01*
X301666Y186489D01*
X303666D01*
X302666Y188488D02*
X304665Y186489D01*
X303666D02*
X304665Y187489D01*
X306665Y186489D02*
X308664D01*
X307664D01*
Y192487D01*
X306665Y191488D01*
X454004Y687001D02*
Y692999D01*
X457003D01*
X458002Y691999D01*
Y690000D01*
X457003Y689000D01*
X454004D01*
X464000Y687001D02*
X460002D01*
X464000Y691000D01*
Y691999D01*
X463001Y692999D01*
X461001D01*
X460002Y691999D01*
X466000D02*
X466999Y692999D01*
X468999D01*
X469998Y691999D01*
Y688001D01*
X468999Y687001D01*
X466999D01*
X466000Y688001D01*
Y691999D01*
X471998D02*
X472997Y692999D01*
X474997D01*
X475996Y691999D01*
Y688001D01*
X474997Y687001D01*
X472997D01*
X471998Y688001D01*
Y691999D01*
X382254Y675517D02*
Y681516D01*
X384253Y679516D01*
X386252Y681516D01*
Y675517D01*
X388252Y681516D02*
Y675517D01*
X391251D01*
X392250Y676517D01*
Y680516D01*
X391251Y681516D01*
X388252D01*
X398249Y675517D02*
X394250D01*
X398249Y679516D01*
Y680516D01*
X397249Y681516D01*
X395250D01*
X394250Y680516D01*
X400248D02*
X401248Y681516D01*
X403247D01*
X404247Y680516D01*
Y676517D01*
X403247Y675517D01*
X401248D01*
X400248Y676517D01*
Y680516D01*
X406246D02*
X407246Y681516D01*
X409245D01*
X410245Y680516D01*
Y676517D01*
X409245Y675517D01*
X407246D01*
X406246Y676517D01*
Y680516D01*
X264989Y542999D02*
Y537001D01*
X268988D01*
X274986Y542999D02*
X270988D01*
Y537001D01*
X274986D01*
X270988Y540000D02*
X272987D01*
X276986Y542999D02*
Y537001D01*
X279985D01*
X280984Y538001D01*
Y541999D01*
X279985Y542999D01*
X276986D01*
X286982Y537001D02*
X282984D01*
X286982Y541000D01*
Y541999D01*
X285983Y542999D01*
X283983D01*
X282984Y541999D01*
X288982D02*
X289981Y542999D01*
X291981D01*
X292980Y541999D01*
Y538001D01*
X291981Y537001D01*
X289981D01*
X288982Y538001D01*
Y541999D01*
X294980Y537001D02*
X296979D01*
X295979D01*
Y542999D01*
X294980Y541999D01*
X263005Y636464D02*
Y630466D01*
X267004D01*
X273002Y636464D02*
X269004D01*
Y630466D01*
X273002D01*
X269004Y633465D02*
X271003D01*
X275002Y636464D02*
Y630466D01*
X278001D01*
X279000Y631465D01*
Y635464D01*
X278001Y636464D01*
X275002D01*
X284998Y630466D02*
X281000D01*
X284998Y634464D01*
Y635464D01*
X283999Y636464D01*
X281999D01*
X281000Y635464D01*
X286998D02*
X287997Y636464D01*
X289997D01*
X290997Y635464D01*
Y631465D01*
X289997Y630466D01*
X287997D01*
X286998Y631465D01*
Y635464D01*
X292996D02*
X293995Y636464D01*
X295995D01*
X296994Y635464D01*
Y631465D01*
X295995Y630466D01*
X293995D01*
X292996Y631465D01*
Y635464D01*
X96704Y122999D02*
Y117001D01*
X100702D01*
X106700Y122999D02*
X102702D01*
Y117001D01*
X106700D01*
X102702Y120000D02*
X104701D01*
X108700Y122999D02*
Y117001D01*
X111699D01*
X112698Y118001D01*
Y121999D01*
X111699Y122999D01*
X108700D01*
X118696Y117001D02*
X114698D01*
X118696Y121000D01*
Y121999D01*
X117697Y122999D01*
X115697D01*
X114698Y121999D01*
X115003Y293865D02*
Y287867D01*
X119002D01*
X125000Y293865D02*
X121001D01*
Y287867D01*
X125000D01*
X121001Y290866D02*
X123001D01*
X126999Y293865D02*
Y287867D01*
X129998D01*
X130998Y288867D01*
Y292865D01*
X129998Y293865D01*
X126999D01*
X132997Y287867D02*
X134997D01*
X133997D01*
Y293865D01*
X132997Y292865D01*
X374552Y278904D02*
X372553D01*
X373553D01*
Y273905D01*
X372553Y272906D01*
X371553D01*
X370554Y273905D01*
X376552Y272906D02*
X378551D01*
X377551D01*
Y278904D01*
X376552Y277904D01*
X442001Y202487D02*
X438002D01*
Y199488D01*
X440002D01*
X438002D01*
Y196489D01*
X444000Y202487D02*
Y196489D01*
X446999D01*
X447999Y197489D01*
Y198488D01*
X446999Y199488D01*
X444000D01*
X446999D01*
X447999Y200488D01*
Y201487D01*
X446999Y202487D01*
X444000D01*
X449998Y196489D02*
X451998D01*
X450998D01*
Y202487D01*
X449998Y201487D01*
X360054Y705515D02*
Y699517D01*
X363053D01*
X364052Y700517D01*
Y704516D01*
X363053Y705515D01*
X360054D01*
X370051Y699517D02*
X366052D01*
X370051Y703516D01*
Y704516D01*
X369051Y705515D01*
X367051D01*
X366052Y704516D01*
X372050D02*
X373049Y705515D01*
X375049D01*
X376048Y704516D01*
Y700517D01*
X375049Y699517D01*
X373049D01*
X372050Y700517D01*
Y704516D01*
X378048D02*
X379048Y705515D01*
X381047D01*
X382047Y704516D01*
Y700517D01*
X381047Y699517D01*
X379048D01*
X378048Y700517D01*
Y704516D01*
X35631Y372999D02*
Y367001D01*
X38631D01*
X39630Y368001D01*
Y371999D01*
X38631Y372999D01*
X35631D01*
X45628Y367001D02*
X41630D01*
X45628Y371000D01*
Y371999D01*
X44629Y372999D01*
X42629D01*
X41630Y371999D01*
X301001Y207487D02*
Y201489D01*
X304000D01*
X305000Y202489D01*
Y206487D01*
X304000Y207487D01*
X301001D01*
X306999Y201489D02*
X308999D01*
X307999D01*
Y207487D01*
X306999Y206487D01*
X537294Y592866D02*
X536294Y593865D01*
X534295D01*
X533295Y592866D01*
Y588867D01*
X534295Y587867D01*
X536294D01*
X537294Y588867D01*
X543292Y587867D02*
X539293D01*
X543292Y591866D01*
Y592866D01*
X542292Y593865D01*
X540293D01*
X539293Y592866D01*
X545291D02*
X546291Y593865D01*
X548290D01*
X549290Y592866D01*
Y588867D01*
X548290Y587867D01*
X546291D01*
X545291Y588867D01*
Y592866D01*
X555288Y593865D02*
X551289D01*
Y590866D01*
X553288Y591866D01*
X554288D01*
X555288Y590866D01*
Y588867D01*
X554288Y587867D01*
X552289D01*
X551289Y588867D01*
X538002Y661999D02*
X537003Y662999D01*
X535003D01*
X534004Y661999D01*
Y658001D01*
X535003Y657001D01*
X537003D01*
X538002Y658001D01*
X544000Y657001D02*
X540002D01*
X544000Y661000D01*
Y661999D01*
X543001Y662999D01*
X541001D01*
X540002Y661999D01*
X546000D02*
X546999Y662999D01*
X548999D01*
X549998Y661999D01*
Y658001D01*
X548999Y657001D01*
X546999D01*
X546000Y658001D01*
Y661999D01*
X554997Y657001D02*
Y662999D01*
X551998Y660000D01*
X555997D01*
X496552Y623516D02*
X495553Y624515D01*
X493553D01*
X492554Y623516D01*
Y619517D01*
X493553Y618517D01*
X495553D01*
X496552Y619517D01*
X502551Y618517D02*
X498552D01*
X502551Y622516D01*
Y623516D01*
X501551Y624515D01*
X499551D01*
X498552Y623516D01*
X504550D02*
X505549Y624515D01*
X507549D01*
X508548Y623516D01*
Y619517D01*
X507549Y618517D01*
X505549D01*
X504550Y619517D01*
Y623516D01*
X510548D02*
X511548Y624515D01*
X513547D01*
X514547Y623516D01*
Y622516D01*
X513547Y621516D01*
X512547D01*
X513547D01*
X514547Y620517D01*
Y619517D01*
X513547Y618517D01*
X511548D01*
X510548Y619517D01*
X496552Y653516D02*
X495553Y654516D01*
X493553D01*
X492554Y653516D01*
Y649517D01*
X493553Y648517D01*
X495553D01*
X496552Y649517D01*
X502551Y648517D02*
X498552D01*
X502551Y652516D01*
Y653516D01*
X501551Y654516D01*
X499551D01*
X498552Y653516D01*
X504550D02*
X505549Y654516D01*
X507549D01*
X508548Y653516D01*
Y649517D01*
X507549Y648517D01*
X505549D01*
X504550Y649517D01*
Y653516D01*
X514547Y648517D02*
X510548D01*
X514547Y652516D01*
Y653516D01*
X513547Y654516D01*
X511548D01*
X510548Y653516D01*
X496552Y678516D02*
X495553Y679516D01*
X493553D01*
X492554Y678516D01*
Y674517D01*
X493553Y673517D01*
X495553D01*
X496552Y674517D01*
X502551Y673517D02*
X498552D01*
X502551Y677516D01*
Y678516D01*
X501551Y679516D01*
X499551D01*
X498552Y678516D01*
X504550D02*
X505549Y679516D01*
X507549D01*
X508548Y678516D01*
Y674517D01*
X507549Y673517D01*
X505549D01*
X504550Y674517D01*
Y678516D01*
X510548Y673517D02*
X512547D01*
X511548D01*
Y679516D01*
X510548Y678516D01*
X496552Y708516D02*
X495553Y709515D01*
X493553D01*
X492554Y708516D01*
Y704517D01*
X493553Y703517D01*
X495553D01*
X496552Y704517D01*
X502551Y703517D02*
X498552D01*
X502551Y707516D01*
Y708516D01*
X501551Y709515D01*
X499551D01*
X498552Y708516D01*
X504550D02*
X505549Y709515D01*
X507549D01*
X508548Y708516D01*
Y704517D01*
X507549Y703517D01*
X505549D01*
X504550Y704517D01*
Y708516D01*
X510548D02*
X511548Y709515D01*
X513547D01*
X514547Y708516D01*
Y704517D01*
X513547Y703517D01*
X511548D01*
X510548Y704517D01*
Y708516D01*
X444000Y516999D02*
X443001Y517999D01*
X441001D01*
X440002Y516999D01*
Y513001D01*
X441001Y512001D01*
X443001D01*
X444000Y513001D01*
X446000Y516999D02*
X446999Y517999D01*
X448999D01*
X449998Y516999D01*
Y516000D01*
X448999Y515000D01*
X449998Y514000D01*
Y513001D01*
X448999Y512001D01*
X446999D01*
X446000Y513001D01*
Y514000D01*
X446999Y515000D01*
X446000Y516000D01*
Y516999D01*
X446999Y515000D02*
X448999D01*
X404000Y496999D02*
X403001Y497999D01*
X401001D01*
X400002Y496999D01*
Y493001D01*
X401001Y492001D01*
X403001D01*
X404000Y493001D01*
X406000Y497999D02*
X409998D01*
Y496999D01*
X406000Y493001D01*
Y492001D01*
X152502Y322999D02*
Y318001D01*
X153501Y317001D01*
X155501D01*
X156500Y318001D01*
Y322999D01*
X158500Y321999D02*
X159499Y322999D01*
X161499D01*
X162498Y321999D01*
Y321000D01*
X161499Y320000D01*
X160499D01*
X161499D01*
X162498Y319000D01*
Y318001D01*
X161499Y317001D01*
X159499D01*
X158500Y318001D01*
X58456Y157141D02*
X59456Y158141D01*
Y160140D01*
X58456Y161140D01*
X54457D01*
X53458Y160140D01*
Y158141D01*
X54457Y157141D01*
X59456Y151143D02*
X58456Y153143D01*
X56457Y155142D01*
X54457D01*
X53458Y154142D01*
Y152143D01*
X54457Y151143D01*
X55457D01*
X56457Y152143D01*
Y155142D01*
X79000Y316999D02*
X78001Y317999D01*
X76001D01*
X75002Y316999D01*
Y313001D01*
X76001Y312001D01*
X78001D01*
X79000Y313001D01*
X84998Y317999D02*
X81000D01*
Y315000D01*
X82999Y316000D01*
X83999D01*
X84998Y315000D01*
Y313001D01*
X83999Y312001D01*
X81999D01*
X81000Y313001D01*
X394100Y125787D02*
X393101Y126787D01*
X391101D01*
X390102Y125787D01*
Y121789D01*
X391101Y120789D01*
X393101D01*
X394100Y121789D01*
X399099Y120789D02*
Y126787D01*
X396100Y123788D01*
X400098D01*
X409600Y127804D02*
X408601Y128804D01*
X406601D01*
X405602Y127804D01*
Y123805D01*
X406601Y122806D01*
X408601D01*
X409600Y123805D01*
X411600Y127804D02*
X412599Y128804D01*
X414599D01*
X415598Y127804D01*
Y126804D01*
X414599Y125805D01*
X413599D01*
X414599D01*
X415598Y124805D01*
Y123805D01*
X414599Y122806D01*
X412599D01*
X411600Y123805D01*
X447400Y156288D02*
X446401Y157287D01*
X444401D01*
X443402Y156288D01*
Y152289D01*
X444401Y151289D01*
X446401D01*
X447400Y152289D01*
X453398Y151289D02*
X449400D01*
X453398Y155288D01*
Y156288D01*
X452399Y157287D01*
X450399D01*
X449400Y156288D01*
X446316Y166488D02*
X445317Y167487D01*
X443317D01*
X442318Y166488D01*
Y162489D01*
X443317Y161489D01*
X445317D01*
X446316Y162489D01*
X448316Y161489D02*
X450315D01*
X449315D01*
Y167487D01*
X448316Y166488D01*
X17754Y698215D02*
Y692217D01*
X20753D01*
X21752Y693217D01*
Y694217D01*
X20753Y695216D01*
X17754D01*
X20753D01*
X21752Y696216D01*
Y697216D01*
X20753Y698215D01*
X17754D01*
X23752D02*
X27751D01*
X25751D01*
Y692217D01*
X33748D02*
X29750D01*
X33748Y696216D01*
Y697216D01*
X32749Y698215D01*
X30749D01*
X29750Y697216D01*
X343002Y127487D02*
Y121489D01*
X346001D01*
X347001Y122489D01*
Y123488D01*
X346001Y124488D01*
X343002D01*
X346001D01*
X347001Y125488D01*
Y126488D01*
X346001Y127487D01*
X343002D01*
X349000D02*
X352999D01*
X351000D01*
Y121489D01*
X354998D02*
X356998D01*
X355998D01*
Y127487D01*
X354998Y126488D01*
X580000Y705000D02*
G03*
X560826Y720000I-18924J-4435D01*
G01*
X227Y19994D02*
G03*
X20000Y0I19429J-560D01*
G01*
X15000Y720000D02*
G03*
X28Y700002I4435J-18924D01*
G01*
X565000Y0D02*
G03*
X580000Y19174I-4435J18924D01*
G01*
X580000Y705000D02*
X580000Y18924D01*
X35000Y720000D02*
X560000Y720000D01*
X15000Y720000D02*
X35000D01*
X-0Y700000D02*
X0Y20000D01*
X20000Y-0D02*
X565000Y-0D01*
M02*
