M48
;Layer_Color=9474304
;FILE_FORMAT=2:5
INCH,LZ
;TYPE=PLATED
T1F00S00C0.02800
T2F00S00C0.03900
T3F00S00C0.10039
%
T01
X0065Y005874
X0055Y0069287
X0045Y008
X0065Y0085
X0055Y012
X0045Y015
X0121516Y012
T02
X0023122Y003874
Y004874
Y005874
X0209961Y0078728
X0219961
X0199961
X0189961
X0179961
X0023122Y007874
Y006874
Y0314331
Y0324331
Y0334331
Y0344331
Y0354331
X0219972
Y0344331
Y0334331
Y0324331
Y0314331
T03
X0023622Y0023622
X0219535Y0024622
X0023622Y0374016
X0216535
M30
