G04*
G04 #@! TF.GenerationSoftware,Altium Limited,Altium Designer,22.6.1 (34)*
G04*
G04 Layer_Color=8421504*
%FSLAX25Y25*%
%MOIN*%
G70*
G04*
G04 #@! TF.SameCoordinates,77978B21-DC67-4B61-947D-8792CEF4CC07*
G04*
G04*
G04 #@! TF.FilePolarity,Positive*
G04*
G01*
G75*
%ADD12C,0.01000*%
%ADD13R,0.07992X0.14961*%
%ADD14R,0.14961X0.07992*%
%ADD15R,0.05433X0.04331*%
%ADD16R,0.01102X0.01614*%
%ADD17R,0.01614X0.01102*%
%ADD18R,0.03976X0.05433*%
%ADD19R,0.05433X0.03976*%
D12*
X19685Y393701D02*
G03*
X500Y374016I250J-19435D01*
G01*
X236221D02*
G03*
X216035Y393701I-19935J-250D01*
G01*
Y1000D02*
G03*
X236221Y19685I750J19435D01*
G01*
X500D02*
G03*
X19685Y1000I18935J250D01*
G01*
X236221Y19685D02*
Y374016D01*
X19685Y1000D02*
X19685D01*
X216035D01*
X20000Y393701D02*
X216035D01*
X500Y19685D02*
Y374016D01*
D13*
X85000Y140000D02*
D03*
X130000Y111063D02*
D03*
D14*
X125000Y90000D02*
D03*
X80000Y105000D02*
D03*
D15*
X114193Y107579D02*
D03*
Y114547D02*
D03*
D16*
X102224Y115256D02*
D03*
X104193D02*
D03*
Y108839D02*
D03*
X102224D02*
D03*
D17*
X106417Y115000D02*
D03*
Y113031D02*
D03*
Y111063D02*
D03*
Y109095D02*
D03*
X100000D02*
D03*
Y111063D02*
D03*
Y113031D02*
D03*
Y115000D02*
D03*
D18*
X76260Y120000D02*
D03*
X83740D02*
D03*
D19*
X106417Y87776D02*
D03*
Y95256D02*
D03*
X102224Y143740D02*
D03*
Y136260D02*
D03*
M02*
